<svg xmlns="http://www.w3.org/2000/svg" data-name="Layer 1" viewBox="0 0 52.09 57"><path fill="none" stroke="#231f20" stroke-width="2" stroke-miterlimit="10" d="M12 1h28v55H12zm5 .2v55m18-55v55"/><circle cx="26" cy="11.2" r="4.5" fill="#fecb30" stroke="#231f20" stroke-width="2" stroke-miterlimit="10"/><circle cx="26" cy="28.2" r="4.5" fill="#fecb30" stroke="#231f20" stroke-width="2" stroke-miterlimit="10"/><circle cx="26" cy="45.2" r="4.5" fill="#fecb30" stroke="#231f20" stroke-width="2" stroke-miterlimit="10"/><path fill="none" stroke="#231f20" stroke-width="2" stroke-miterlimit="10" d="M12 7.2H3s-3.8.3-1 3c1.5 1.4 10 8 10 8m0 5H3s-3.8.3-1 3c1.5 1.4 10 8 10 8m0 5H3s-3.8.3-1 3c1.5 1.4 10 8 10 8m28-43h9s4 .3 1 3c-1.4 1.4-10 8-10 8m0 5h9s4 .3 1 3c-1.4 1.4-10 8-10 8m0 5h9s4 .3 1 3c-1.4 1.4-10 8-10 8"/></svg>