<svg xmlns="http://www.w3.org/2000/svg" viewBox="0 0 64 64" aria-labelledby="title"
aria-describedby="desc" role="img" xmlns:xlink="http://www.w3.org/1999/xlink">
  <title>Game Controller</title>
  <desc>A line styled icon from Orion Icon Library.</desc>
  <path data-name="layer2"
  d="M44.1 47.9l5.1 7a7 7 0 0 0 12.7-5.4L57.8 28a12 12 0 0 0-11.2-9.9H18A12 12 0 0 0 6.2 28l-4 21.6A7 7 0 0 0 14.9 55l5.1-7m5.9-4h12.2"
  fill="none" stroke="#000000" stroke-linecap="round" stroke-linejoin="round"
  stroke-width="3"></path>
  <circle data-name="layer1" cx="39" cy="29" r="3" fill="none" stroke="#000000"
  stroke-linecap="round" stroke-linejoin="round" stroke-width="3"></circle>
  <circle data-name="layer1" cx="49" cy="31" r="3" fill="none"
  stroke="#000000" stroke-linecap="round" stroke-linejoin="round" stroke-width="3"></circle>
  <path data-name="layer1" fill="none" stroke="#000000" stroke-linecap="round"
  stroke-linejoin="round" stroke-width="3" d="M18 26v8m-4-4h8"></path>
  <path data-name="layer2" fill="none" stroke="#000000" stroke-linecap="round"
  stroke-linejoin="round" stroke-width="3" d="M32 18V6"></path>
  <circle data-name="layer1" cx="21" cy="43" r="5" fill="none" stroke="#000000"
  stroke-linecap="round" stroke-linejoin="round" stroke-width="3"></circle>
  <circle data-name="layer1" cx="43" cy="43" r="5" fill="none"
  stroke="#000000" stroke-linecap="round" stroke-linejoin="round" stroke-width="3"></circle>
</svg>