<svg xmlns="http://www.w3.org/2000/svg" viewBox="0 0 64 64" aria-labelledby="title"
aria-describedby="desc" role="img" xmlns:xlink="http://www.w3.org/1999/xlink">
  <title>Error Bug</title>
  <desc>A line styled icon from Orion Icon Library.</desc>
  <path data-name="layer2"
  d="M58 18c0 5.2-3.5 7.4-8 8.2M62 36H50m-1.2 8C54 45.2 59.9 48 60 56M6 18c0 5.2 3.5 7.4 8 8.2M2 36h12m1.2 8C10 45.2 4 48 4 56"
  fill="none" stroke="#000000" stroke-linecap="round" stroke-linejoin="round"
  stroke-width="3"></path>
  <path data-name="layer1" d="M18 22.6v-2a8.6 8.6 0 0 1 8.6-8.6h10.8a8.6 8.6 0 0 1 8.6 8.6v1.9M24.2 12.4a8 8 0 0 1 15.7 0"
  fill="none" stroke="#000000" stroke-linecap="round" stroke-linejoin="round"
  stroke-width="3"></path>
  <path data-name="layer1" d="M43.3 22H20.7a6.7 6.7 0 0 0-6.7 6.7v7.8c.1 10.6 6 19.3 18 21.5 12-2.1 17.9-11 18-21.6v-7.7a6.7 6.7 0 0 0-6.7-6.7zM32 22v36"
  fill="none" stroke="#000000" stroke-linecap="round" stroke-linejoin="round"
  stroke-width="3"></path>
</svg>