<svg xmlns="http://www.w3.org/2000/svg" viewBox="0 0 64 64" aria-labelledby="title"
aria-describedby="desc" role="img" xmlns:xlink="http://www.w3.org/1999/xlink">
  <title>Hamburger</title>
  <desc>A line styled icon from Orion Icon Library.</desc>
  <path data-name="layer1"
  d="M58.9 34.4A5 5 0 0 1 62 39a5 5 0 0 1-5 5M7 44a5 5 0 0 1-5-5 5 5 0 0 1 2-4"
  fill="none" stroke="#000000" stroke-linecap="round" stroke-linejoin="round"
  stroke-width="3"></path>
  <path data-name="layer2" d="M8 26c-2 0-9.6 5.4-4 9 3.3 1.9 6.7-2.8 8-2.8S18 36 24 36s9.1-4 12-4 5.1 4 8 4 4.8-2 8-2 9.2 1.9 10-2-6-6-6-6"
  fill="none" stroke="#000000" stroke-linecap="round" stroke-linejoin="round"
  stroke-width="3"></path>
  <path data-name="layer1" d="M57 54l-.6 5a3.7 3.7 0 0 1-3.4 3H11a3.7 3.7 0 0 1-3.6-3l-.5-5"
  fill="none" stroke="#000000" stroke-linecap="round" stroke-linejoin="round"
  stroke-width="3"></path>
  <path data-name="layer2" fill="none" stroke="#000000" stroke-linecap="round"
  stroke-linejoin="round" stroke-width="3" d="M32 44l16 8 8-8"></path>
  <path data-name="layer1" d="M56 26a24 24 0 1 0-48 0h48z" fill="none"
  stroke="#000000" stroke-linecap="round" stroke-linejoin="round" stroke-width="3"></path>
  <circle data-name="layer1" cx="44" cy="12" r="1" fill="none" stroke="#000000"
  stroke-linecap="round" stroke-linejoin="round" stroke-width="3"></circle>
  <circle data-name="layer1" cx="38" cy="14" r="1" fill="none"
  stroke="#000000" stroke-linecap="round" stroke-linejoin="round" stroke-width="3"></circle>
  <circle data-name="layer1" cx="32" cy="10" r="1" fill="none"
  stroke="#000000" stroke-linecap="round" stroke-linejoin="round" stroke-width="3"></circle>
  <circle data-name="layer1" cx="28" cy="16" r="1" fill="none"
  stroke="#000000" stroke-linecap="round" stroke-linejoin="round" stroke-width="3"></circle>
  <circle data-name="layer1" cx="22" cy="12" r="1" fill="none"
  stroke="#000000" stroke-linecap="round" stroke-linejoin="round" stroke-width="3"></circle>
  <path data-name="layer1" d="M62 49a5 5 0 0 1-5 5H7a5 5 0 0 1-5-5 5 5 0 0 1 5-5h50a5 5 0 0 1 5 5z"
  fill="none" stroke="#000000" stroke-linecap="round" stroke-linejoin="round"
  stroke-width="3"></path>
</svg>