<svg xmlns="http://www.w3.org/2000/svg" viewBox="0 0 64 64" aria-labelledby="title"
aria-describedby="desc" role="img" xmlns:xlink="http://www.w3.org/1999/xlink">
  <title>Message App</title>
  <desc>A line styled icon from Orion Icon Library.</desc>
  <path data-name="layer2"
  d="M38 42v16a4 4 0 0 1-4 4H8a4 4 0 0 1-4-4V6a4 4 0 0 1 4-4h22M4 10h24M4 48h34"
  fill="none" stroke="#000000" stroke-linecap="round" stroke-linejoin="round"
  stroke-width="3"></path>
  <circle data-name="layer2" cx="21" cy="55" r="1" fill="none" stroke="#000000"
  stroke-linecap="round" stroke-linejoin="round" stroke-width="3"></circle>
  <path data-name="layer1" d="M59.4 2H30.6A2.6 2.6 0 0 0 28 4.6v18.8a2.6 2.6 0 0 0 2.6 2.6H38v7l7-7h14.4a2.6 2.6 0 0 0 2.6-2.6V4.6A2.6 2.6 0 0 0 59.4 2z"
  fill="none" stroke="#000000" stroke-linecap="round" stroke-linejoin="round"
  stroke-width="3"></path>
  <circle data-name="layer1" cx="45" cy="14" r="1" fill="none" stroke="#000000"
  stroke-linecap="round" stroke-linejoin="round" stroke-width="3"></circle>
  <circle data-name="layer1" cx="37" cy="14" r="1" fill="none"
  stroke="#000000" stroke-linecap="round" stroke-linejoin="round" stroke-width="3"></circle>
  <circle data-name="layer1" cx="53" cy="14" r="1" fill="none"
  stroke="#000000" stroke-linecap="round" stroke-linejoin="round" stroke-width="3"></circle>
</svg>