<svg xmlns="http://www.w3.org/2000/svg" viewBox="0 0 64 64" aria-labelledby="title"
aria-describedby="desc" role="img" xmlns:xlink="http://www.w3.org/1999/xlink">
  <title>Polaroid Camera</title>
  <desc>A line styled icon from Orion Icon Library.</desc>
  <path data-name="layer2"
  d="M10 54H4a2 2 0 0 1-2-2V40a2 2 0 0 1 2-2h56a2 2 0 0 1 2 2v12a2 2 0 0 1-2 2h-6"
  fill="none" stroke="#000000" stroke-miterlimit="10" stroke-width="3" stroke-linejoin="round"
  stroke-linecap="round"></path>
  <path data-name="layer1" fill="none" stroke="#000000" stroke-miterlimit="10"
  stroke-width="3" d="M14 46L6 62h52l-8-16" stroke-linejoin="round" stroke-linecap="round"></path>
  <path data-name="layer2" fill="none" stroke="#000000" stroke-miterlimit="10"
  stroke-width="3" d="M61.5 38.7L56 32V2H8v30l-5.5 6.7M10 46h44" stroke-linejoin="round"
  stroke-linecap="round"></path>
  <circle data-name="layer1" cx="32" cy="18" r="8" fill="none" stroke="#000000"
  stroke-miterlimit="10" stroke-width="3" stroke-linejoin="round" stroke-linecap="round"></circle>
  <circle data-name="layer1" cx="32" cy="18" r="4" fill="none"
  stroke="#000000" stroke-miterlimit="10" stroke-width="3" stroke-linejoin="round"
  stroke-linecap="round"></circle>
  <path data-name="layer1" d="M49 10a2 2 0 0 1-2 2h-2a2 2 0 0 1-2-2 2 2 0 0 1 2-2h2a2 2 0 0 1 2 2z"
  fill="none" stroke="#000000" stroke-miterlimit="10" stroke-width="3" stroke-linejoin="round"
  stroke-linecap="round"></path>
  <circle data-name="layer1" cx="18" cy="24" r="1" fill="none" stroke="#000000"
  stroke-miterlimit="10" stroke-width="3" stroke-linejoin="round" stroke-linecap="round"></circle>
</svg>