<svg xmlns="http://www.w3.org/2000/svg" viewBox="0 0 64 64" aria-labelledby="title"
aria-describedby="desc" role="img" xmlns:xlink="http://www.w3.org/1999/xlink">
  <title>Shopping Basket</title>
  <desc>A line styled icon from Orion Icon Library.</desc>
  <path data-name="layer2"
  d="M38 8.4A20 20 0 0 1 54 28v2m-44 0v-2A20 20 0 0 1 26 8.4M38 8a4 4 0 0 1-4 4h-4a4 4 0 0 1-4-4 4 4 0 0 1 4-4h4a4 4 0 0 1 4 4z"
  fill="none" stroke="#000000" stroke-miterlimit="10" stroke-width="3" stroke-linejoin="round"
  stroke-linecap="round"></path>
  <path data-name="layer1" fill="none" stroke="#000000" stroke-miterlimit="10"
  stroke-width="3" d="M32 38v14M20 38v14m24-14v14M6.1 30L12 60h40l6-30M2 30h60"
  stroke-linejoin="round" stroke-linecap="round"></path>
</svg>