<svg xmlns="http://www.w3.org/2000/svg" width="24" height="21" viewBox="0 0 24 21">
  <path fill-rule="evenodd" d="M22.2576371,0.374910461 L23.1245137,0.164048606 C23.7024342,0.023473333 23.9913902,0.26557156 23.9913902,0.89035055 L20.1958768,20.0084921 L19.7272949,20.5825049 C19.4149054,20.965182 18.8994705,21.0081349 18.1809746,20.7113649 L12.839141,16.6347024 L9.46535128,19.9616339 L9.27791853,20.0670648 C9.15296273,20.1373524 8.99677032,20.1646861 8.80933663,20.1490666 L8.71562025,20.1490666 C8.63752287,20.1178277 8.55161705,20.0319219 8.4579002,19.8913466 C8.36418335,19.7507713 8.24703905,19.4461961 8.10646378,18.9776119 C8.04398588,18.7589392 7.92684157,18.3606486 7.75502735,17.782728 C7.5988326,17.2048075 7.41921134,16.576133 7.21615817,15.8966859 C7.01310499,15.2172387 6.81786449,14.5495162 6.63043079,13.8934983 C6.4429971,13.2530998 6.29461431,12.7610937 6.18527799,12.4174653 L0.890302522,10.6368541 L0.48029336,10.4142777 C0.206952551,10.2658927 0.0468553366,10.0276992 -3.08760535e-06,9.69969026 C-0.0468615119,9.37168129 0.0976164624,9.12567826 0.43343517,8.96167377 L0.937160712,8.71566827 L22.2576371,0.374910461 Z M19.5867203,4.73272213 C19.7272956,4.59214685 19.8092966,4.47890736 19.8327258,4.39300025 L19.8678695,4.26414023 C19.8678695,4.02984811 19.7507252,3.97127595 19.516433,4.08842202 L19.1649966,4.26414023 L6.6070017,12.604898 C6.7319575,12.964146 6.87253066,13.4171039 7.02872541,13.9637855 C7.18492015,14.5104672 7.34501737,15.068855 7.50902185,15.6389658 C7.67302634,16.2090767 7.83312355,16.7518453 7.9893183,17.2672879 C8.12989357,17.7983501 8.24703788,18.21226 8.34075473,18.50903 C8.43447157,18.6652247 8.55552069,18.7394161 8.7039057,18.7316064 C8.85229071,18.7237966 8.93429172,18.6183668 8.9499112,18.4153136 L9.46535128,14.0106437 C9.68402393,13.7919711 10.3166032,13.2062496 11.363108,12.2534616 C12.4096128,11.2850542 13.5263885,10.2580891 14.7134686,9.17253563 C15.9005486,8.08698213 16.9860859,7.09906517 17.9701128,6.20875511 C18.9541397,5.30282558 19.4930035,4.8108195 19.5867203,4.73272213 Z"/>
</svg>
