<svg xmlns="http://www.w3.org/2000/svg" width="24" height="21" viewBox="0 0 24 21">
  <path fill-rule="evenodd" d="M21.5625,5.625 L21.5625,6.234375 C21.5625,7.85938313 21.2578155,9.50780414 20.6484375,11.1796875 C20.0390595,12.8359458 19.1406309,14.3359308 17.953125,15.6796875 C16.7656191,17.0234442 15.2968837,18.1249957 13.546875,18.984375 C11.8124913,19.8281292 9.81251133,20.25 7.546875,20.25 C6.85937156,20.25 6.17969086,20.2031255 5.5078125,20.109375 C4.83593414,20.0156245 4.18359691,19.8750009 3.55078125,19.6875 C2.91796559,19.4999991 2.30469047,19.2656264 1.7109375,18.984375 C1.11718453,18.7187487 0.546877734,18.4062518 0,18.046875 C0.187500937,18.0625001 0.382811484,18.0742187 0.5859375,18.0820312 C0.789063516,18.0898438 0.984374063,18.09375 1.171875,18.09375 C2.3125057,18.09375 3.41015098,17.9140643 4.46484375,17.5546875 C5.51953652,17.1953107 6.46874578,16.6718784 7.3125,15.984375 C6.23436961,15.984375 5.27344172,15.6601595 4.4296875,15.0117188 C3.58593328,14.363278 3.00000164,13.5468799 2.671875,12.5625 C2.82812578,12.6093752 2.98046801,12.6367187 3.12890625,12.6445312 C3.27734449,12.6523438 3.43749914,12.65625 3.609375,12.65625 C3.84375117,12.65625 4.0664052,12.6445314 4.27734375,12.6210938 C4.4882823,12.5976561 4.70312391,12.5625002 4.921875,12.515625 C3.79686937,12.2812488 2.85937875,11.710942 2.109375,10.8046875 C1.35937125,9.89843297 0.984375,8.85938086 0.984375,7.6875 L0.984375,7.59375 C1.31250164,7.78125094 1.66015441,7.92968695 2.02734375,8.0390625 C2.39453309,8.14843805 2.78124797,8.203125 3.1875,8.203125 C2.53124672,7.78124789 2.00000203,7.20703488 1.59375,6.48046875 C1.18749797,5.75390262 0.984375,4.96875422 0.984375,4.125 C0.984375,3.68749781 1.04687437,3.25781461 1.171875,2.8359375 C1.29687563,2.41406039 1.46874891,2.01562687 1.6875,1.640625 C2.28125297,2.39062875 2.95312125,3.07030945 3.703125,3.6796875 C4.45312875,4.28906555 5.2578082,4.81640402 6.1171875,5.26171875 C6.9765668,5.70703348 7.88280773,6.06249867 8.8359375,6.328125 C9.80469234,6.59375133 10.7968699,6.74999977 11.8125,6.796875 C11.7656248,6.60937406 11.7304689,6.42187594 11.7070312,6.234375 C11.6835936,6.04687406 11.671875,5.85937594 11.671875,5.671875 C11.671875,4.99999664 11.7968738,4.35937805 12.046875,3.75 C12.3125013,3.15624703 12.6679665,2.63672098 13.1132812,2.19140625 C13.558596,1.74609152 14.078122,1.39843875 14.671875,1.1484375 C15.265628,0.882811172 15.9062466,0.75 16.59375,0.75 C17.3125036,0.75 17.9804657,0.890623594 18.5976562,1.171875 C19.2148468,1.45312641 19.7499977,1.82812266 20.203125,2.296875 C20.7656278,2.18749945 21.3124973,2.03515723 21.84375,1.83984375 C22.3750027,1.64453027 22.8749977,1.40625141 23.34375,1.125 C23.1562491,1.68750281 22.8750019,2.20312266 22.5,2.671875 C22.1249981,3.14062734 21.6875025,3.53124844 21.1875,3.84375 C21.6718774,3.78124969 22.1484352,3.68750062 22.6171875,3.5625 C23.0859398,3.43749938 23.5468727,3.26562609 24,3.046875 C23.6718734,3.53125242 23.3007833,3.99218531 22.8867188,4.4296875 C22.4726542,4.86718969 22.0312523,5.2656232 21.5625,5.625 Z"/>
</svg>
