<svg xmlns="http://www.w3.org/2000/svg" width="1280" height="1338" viewBox="0 0 1280 1338" style="background:#0070f0">
  <g fill="none" fill-rule="evenodd" stroke="#FFFFFF" stroke-width="2" transform="translate(70 48)" opacity=".3">
    <rect width="259" height="173" x="1" y="1"/>
    <rect width="259" height="173" x="1" y="622"/>
    <rect width="259" height="173" x="587" y="1"/>
    <rect width="259" height="173" x="587" y="622"/>
    <rect width="259" height="173" x="1" y="208"/>
    <rect width="259" height="173" x="1" y="829"/>
    <rect width="259" height="173" x="587" y="208"/>
    <rect width="259" height="173" x="587" y="829"/>
    <rect width="259" height="173" x="1" y="415"/>
    <rect width="259" height="173" x="1" y="1036"/>
    <rect width="259" height="173" x="587" y="415"/>
    <rect width="259" height="173" x="587" y="1036"/>
    <rect width="259" height="173" x="294" y="1"/>
    <rect width="259" height="173" x="294" y="622"/>
    <rect width="259" height="173" x="880" y="1"/>
    <rect width="259" height="173" x="880" y="622"/>
    <rect width="259" height="173" x="294" y="208"/>
    <rect width="259" height="173" x="294" y="829"/>
    <rect width="259" height="173" x="880" y="208"/>
    <rect width="259" height="173" x="880" y="829"/>
    <rect width="259" height="173" x="294" y="415"/>
    <rect width="259" height="173" x="294" y="1036"/>
    <rect width="259" height="173" x="880" y="415"/>
    <rect width="259" height="173" x="880" y="1036"/>
  </g>
</svg>
