<svg xmlns="http://www.w3.org/2000/svg" width="1280" height="1338" viewBox="0 0 1280 1338" xmlns:xlink="http://www.w3.org/1999/xlink" style="background:#0070f0">
  <defs>
    <path id="a" d="M48,48 L213,48 L213,72 L48,72 L48,48 Z M48,108 L213,108 L213,132 L48,132 L48,108 Z M48,168 L213,168 L213,192 L48,192 L48,168 Z M48,228 L213,228 L213,252 L48,252 L48,228 Z M48,288 L166,288 L166,312 L48,312 L48,288 Z"/>
    <rect id="c" width="554" height="1210"/>
    <path id="e" d="M237.537121,630.131367 L192.076046,562 L106,691 L235.114068,691 L449,691 L320.538023,519 L237.537121,630.131367 Z"/>
    <rect id="f" width="554" height="589"/>
    <path id="h" d="M246.857909,314.063599 L212,261.913613 L146,360.65445 L245,360.65445 L409,360.65445 L310.5,229 L246.857909,314.063599 Z"/>
    <rect id="i" width="261" height="589"/>
    <path id="k" d="M110.630108,309.02681 L85.1825095,271 L37,343 L109.273764,343 L229,343 L157.091255,247 L110.630108,309.02681 Z"/>
  </defs>
  <g fill="none" fill-rule="evenodd">
    <g stroke="#FFFFFF" stroke-width="2" opacity=".3" transform="translate(70 48)">
      <rect width="259" height="173" x="1" y="1"/>
      <rect width="259" height="173" x="1" y="622"/>
      <rect width="259" height="173" x="587" y="1"/>
      <rect width="259" height="173" x="587" y="622"/>
      <rect width="259" height="173" x="1" y="208"/>
      <rect width="259" height="173" x="1" y="829"/>
      <rect width="259" height="173" x="587" y="208"/>
      <rect width="259" height="173" x="587" y="829"/>
      <rect width="259" height="173" x="1" y="415"/>
      <rect width="259" height="173" x="1" y="1036"/>
      <rect width="259" height="173" x="587" y="415"/>
      <rect width="259" height="173" x="587" y="1036"/>
      <rect width="259" height="173" x="294" y="1"/>
      <rect width="259" height="173" x="294" y="622"/>
      <rect width="259" height="173" x="880" y="1"/>
      <rect width="259" height="173" x="880" y="622"/>
      <rect width="259" height="173" x="294" y="208"/>
      <rect width="259" height="173" x="294" y="829"/>
      <rect width="259" height="173" x="880" y="208"/>
      <rect width="259" height="173" x="880" y="829"/>
      <rect width="259" height="173" x="294" y="415"/>
      <rect width="259" height="173" x="294" y="1036"/>
      <rect width="259" height="173" x="880" y="415"/>
      <rect width="259" height="173" x="880" y="1036"/>
    </g>
    <g transform="translate(70 48)">
      <g transform="translate(879 621)">
        <rect width="257" height="378" x="2" y="2" stroke="#FFFFFF" stroke-width="4"/>
        <mask id="b" fill="white">
          <use xlink:href="#a"/>
        </mask>
        <path stroke="#FFFFFF" d="M48.5,48.5 L48.5,71.5 L212.5,71.5 L212.5,48.5 L48.5,48.5 Z M48.5,108.5 L48.5,131.5 L212.5,131.5 L212.5,108.5 L48.5,108.5 Z M48.5,168.5 L48.5,191.5 L212.5,191.5 L212.5,168.5 L48.5,168.5 Z M48.5,228.5 L48.5,251.5 L212.5,251.5 L212.5,228.5 L48.5,228.5 Z M48.5,288.5 L48.5,311.5 L165.5,311.5 L165.5,288.5 L48.5,288.5 Z"/>
        <path stroke="#FFFFFF" d="M-900.000131 1005.00013L57.0081223 47.9918777M-890.000131 1005.00013L67.0081223 47.9918777M-880.000131 1005.00013L77.0081223 47.9918777M-870.000131 1005.00013L87.0081223 47.9918777M-860.000131 1005.00013L97.0081223 47.9918777M-850.000131 1005.00013L107.008122 47.9918777M-840.000131 1005.00013L117.008122 47.9918777M-830.000131 1005.00013L127.008122 47.9918777M-820.000131 1005.00013L137.008122 47.9918777M-810.000131 1005.00013L147.008122 47.9918777M-800.000131 1005.00013L157.008122 47.9918777M-790.000131 1005.00013L167.008122 47.9918777M-780.000131 1005.00013L177.008122 47.9918777M-770.000131 1005.00013L187.008122 47.9918777M-760.000131 1005.00013L197.008122 47.9918777M-750.000131 1005.00013L207.008122 47.9918777M-740.000131 1005.00013L217.008122 47.9918777M-730.000131 1005.00013L227.008122 47.9918777M-720.000131 1005.00013L237.008122 47.9918777M-710.000131 1005.00013L247.008122 47.9918777M-700.000131 1005.00013L257.008122 47.9918777M-690.000131 1005.00013L267.008122 47.9918777M-680.000131 1005.00013L277.008122 47.9918777M-670.000131 1005.00013L287.008122 47.9918777M-660.000131 995.000131L297.008122 37.9918777M-650.000131 995.000131L307.008122 37.9918777M-640.000131 995.000131L317.008122 37.9918777M-630.000131 995.000131L327.008122 37.9918777M-620.000131 995.000131L337.008122 37.9918777M-610.000131 995.000131L347.008122 37.9918777M-600.000131 995.000131L357.008122 37.9918777M-590.000131 995.000131L367.008122 37.9918777M-580.000131 995.000131L377.008122 37.9918777M-570.000131 995.000131L387.008122 37.9918777M-560.000131 995.000131L397.008122 37.9918777M-550.000131 995.000131L407.008122 37.9918777M-540.000131 995.000131L417.008122 37.9918777M-530.000131 995.000131L427.008122 37.9918777M-520.000131 995.000131L437.008122 37.9918777M-510.000131 995.000131L447.008122 37.9918777M-500.000131 995.000131L457.008122 37.9918777M-490.000131 995.000131L467.008122 37.9918777M-480.000131 995.000131L477.008122 37.9918777M-470.000131 995.000131L487.008122 37.9918777M-460.000131 995.000131L497.008122 37.9918777M-450.000131 995.000131L507.008122 37.9918777M-440.000131 995.000131L517.008122 37.9918777M-430.000131 995.000131L527.008122 37.9918777M-420.000131 995.000131L537.008122 37.9918777M-410.000131 995.000131L547.008122 37.9918777M-400.000131 995.000131L557.008122 37.9918777M-390.000131 995.000131L567.008122 37.9918777M-380.000131 995.000131L577.008122 37.9918777M-370.000131 995.000131L587.008122 37.9918777M-360.000131 995.000131L597.008122 37.9918777M-350.000131 995.000131L607.008122 37.9918777M-340.000131 995.000131L617.008122 37.9918777M-330.000131 995.000131L627.008122 37.9918777M-320.000131 995.000131L637.008122 37.9918777M-310.000131 995.000131L647.008122 37.9918777M-300.000131 995.000131L657.008122 37.9918777M-290.000131 995.000131L667.008122 37.9918777M-280.000131 995.000131L677.008122 37.9918777M-270.000131 995.000131L687.008122 37.9918777M-260.000131 995.000131L697.008122 37.9918777M-250.000131 995.000131L707.008122 37.9918777M-240.000131 995.000131L717.008122 37.9918777M-230.000131 995.000131L727.008122 37.9918777M-220.000131 995.000131L737.008122 37.9918777M-210.000131 995.000131L747.008122 37.9918777M-200.000131 995.000131L757.008122 37.9918777M-190.000131 995.000131L767.008122 37.9918777M-180.000131 995.000131L777.008122 37.9918777M-170.000131 995.000131L787.008122 37.9918777M-160.000131 995.000131L797.008122 37.9918777M-150.000131 995.000131L807.008122 37.9918777M-140.000131 995.000131L817.008122 37.9918777M-130.000131 995.000131L827.008122 37.9918777M-120.000131 995.000131L837.008122 37.9918777M-110.000131 995.000131L847.008122 37.9918777M-100.000131 995.000131L857.008122 37.9918777M-90.0001306 995.000131L867.008122 37.9918777M-80.0001306 995.000131L877.008122 37.9918777M-70.0001306 995.000131L887.008122 37.9918777M-60.0001306 995.000131L897.008122 37.9918777M-50.0001306 995.000131L907.008122 37.9918777M-40.0001306 995.000131L917.008122 37.9918777M-30.0001306 995.000131L927.008122 37.9918777M-20.0001306 995.000131L937.008122 37.9918777M-10.0001306 995.000131L947.008122 37.9918777M-.000130615393 995.000131L957.008122 37.9918777M9.99986938 995.000131L967.008122 37.9918777M19.9998694 995.000131L977.008122 37.9918777M29.9998694 995.000131L987.008122 37.9918777M39.9998694 995.000131L997.008122 37.9918777M49.9998694 995.000131L1007.00812 37.9918777M59.9998694 995.000131L1017.00812 37.9918777M69.9998694 995.000131L1027.00812 37.9918777" mask="url(#b)"/>
      </g>
      <mask id="d" fill="white">
        <use xlink:href="#c"/>
      </mask>
      <rect width="550" height="1206" x="2" y="2" stroke="#FFFFFF" stroke-width="4"/>
      <g stroke="#FFFFFF" transform="translate(-1396 1)" mask="url(#d)">
        <path d="M.13686838e-13 1414.21356L1414.21356 0M20 1414.21356L1434.21356 0M39 1414.21356L1453.21356 0M58 1414.21356L1472.21356 0M77 1414.21356L1491.21356 0M96 1414.21356L1510.21356 0M115 1414.21356L1529.21356 0M134 1414.21356L1548.21356 0M153 1414.21356L1567.21356 0M172 1414.21356L1586.21356 0M191 1414.21356L1605.21356 0M210 1414.21356L1624.21356 0M229 1414.21356L1643.21356 0M248 1414.21356L1662.21356 0M267 1414.21356L1681.21356 0M286 1414.21356L1700.21356 0M305 1414.21356L1719.21356 0M324 1414.21356L1738.21356 0M343 1414.21356L1757.21356 0M362 1414.21356L1776.21356 0M381 1414.21356L1795.21356 0M400 1414.21356L1814.21356 0M419 1414.21356L1833.21356 0M438 1414.21356L1852.21356 0M457 1414.21356L1871.21356 0M476 1414.21356L1890.21356 0M495 1414.21356L1909.21356 0M514 1414.21356L1928.21356 0M533 1414.21356L1947.21356 0M552 1414.21356L1966.21356 0M571 1414.21356L1985.21356 0M590 1414.21356L2004.21356 0M609 1414.21356L2023.21356 0M628 1414.21356L2042.21356 0M647 1414.21356L2061.21356 0M666 1414.21356L2080.21356 0M685 1414.21356L2099.21356 0M704 1414.21356L2118.21356 0M723 1414.21356L2137.21356 0M742 1414.21356L2156.21356 0M761 1414.21356L2175.21356 0M780 1414.21356L2194.21356 0M799 1414.21356L2213.21356 0M818 1414.21356L2232.21356 0M837 1414.21356L2251.21356 0M856 1414.21356L2270.21356 0M875 1414.21356L2289.21356 0M894 1414.21356L2308.21356 0M913 1414.21356L2327.21356 0M932 1414.21356L2346.21356 0M951 1414.21356L2365.21356 0M970 1414.21356L2384.21356 0M989 1414.21356L2403.21356 0M1008 1414.21356L2422.21356 0M1027 1414.21356L2441.21356 0M1046 1414.21356L2460.21356 0M1065 1414.21356L2479.21356 0M1084 1414.21356L2498.21356 0M1103 1414.21356L2517.21356 0M1122 1414.21356L2536.21356 0M1141 1414.21356L2555.21356 0M1160 1414.21356L2574.21356 0M1179 1414.21356L2593.21356 0M1198 1414.21356L2612.21356 0M1217 1414.21356L2631.21356 0M1236 1414.21356L2650.21356 0M1255 1414.21356L2669.21356 0M1274 1414.21356L2688.21356 0M1293 1414.21356L2707.21356 0M1312 1414.21356L2726.21356 0M1331 1414.21356L2745.21356 0M1350 1414.21356L2764.21356 0M1369 1414.21356L2783.21356 0M1388 1414.21356L2802.21356 0M1407 1414.21356L2821.21356 0M1426 1414.21356L2840.21356 0M1445 1414.21356L2859.21356 0M1464 1414.21356L2878.21356 0M1483 1414.21356L2897.21356 0M1502 1414.21356L2916.21356 0M1521 1414.21356L2935.21356 0M1540 1414.21356L2954.21356 0M1559 1414.21356L2973.21356 0M1578 1414.21356L2992.21356 0M1597 1414.21356L3011.21356 0M1616 1414.21356L3030.21356 0M1635 1414.21356L3049.21356 0M1654 1414.21356L3068.21356 0M1673 1414.21356L3087.21356 0M1692 1414.21356L3106.21356 0M1711 1414.21356L3125.21356 0M1730 1414.21356L3144.21356 0"/>
      </g>
      <g mask="url(#d)">
        <use fill="#0070F0" xlink:href="#e"/>
        <path stroke="#FFFFFF" stroke-width="4" d="M192.076046,565.603346 L109.738867,689 L445.010005,689 L320.538023,522.342275 L237.445116,633.596829 L192.076046,565.603346 Z"/>
      </g>
      <g transform="translate(586)">
        <mask id="g" fill="white">
          <use xlink:href="#f"/>
        </mask>
        <rect width="550" height="585" x="2" y="2" stroke="#FFFFFF" stroke-width="4"/>
        <g stroke="#FFFFFF" transform="translate(-1396 1)" mask="url(#g)">
          <path d="M.13686838e-13 1189.33861L1414.21356 0M20 1189.33861L1434.21356 0M40 1189.33861L1454.21356 0M60 1189.33861L1474.21356 0M80 1189.33861L1494.21356 0M100 1189.33861L1514.21356 0M120 1189.33861L1534.21356 0M140 1189.33861L1554.21356 0M160 1189.33861L1574.21356 0M180 1189.33861L1594.21356 0M200 1189.33861L1614.21356 0M220 1189.33861L1634.21356 0M240 1189.33861L1654.21356 0M260 1189.33861L1674.21356 0M280 1189.33861L1694.21356 0M300 1189.33861L1714.21356 0M320 1189.33861L1734.21356 0M340 1189.33861L1754.21356 0M360 1189.33861L1774.21356 0M380 1189.33861L1794.21356 0M400 1189.33861L1814.21356 0M420 1189.33861L1834.21356 0M440 1189.33861L1854.21356 0M460 1189.33861L1874.21356 0M480 1189.33861L1894.21356 0M500 1189.33861L1914.21356 0M520 1189.33861L1934.21356 0M540 1189.33861L1954.21356 0M560 1189.33861L1974.21356 0M580 1189.33861L1994.21356 0M600 1189.33861L2014.21356 0M620 1189.33861L2034.21356 0M640 1189.33861L2054.21356 0M660 1189.33861L2074.21356 0M680 1189.33861L2094.21356 0M700 1189.33861L2114.21356 0M720 1189.33861L2134.21356 0M740 1189.33861L2154.21356 0M760 1189.33861L2174.21356 0M780 1189.33861L2194.21356 0M800 1189.33861L2214.21356 0M820 1189.33861L2234.21356 0M840 1189.33861L2254.21356 0M860 1189.33861L2274.21356 0M880 1189.33861L2294.21356 0M900 1189.33861L2314.21356 0M920 1189.33861L2334.21356 0M940 1189.33861L2354.21356 0M960 1189.33861L2374.21356 0M980 1189.33861L2394.21356 0M1000 1189.33861L2414.21356 0M1020 1189.33861L2434.21356 0M1040 1189.33861L2454.21356 0M1060 1189.33861L2474.21356 0M1080 1189.33861L2494.21356 0M1100 1189.33861L2514.21356 0M1120 1189.33861L2534.21356 0M1140 1189.33861L2554.21356 0M1160 1189.33861L2574.21356 0M1180 1189.33861L2594.21356 0M1200 1189.33861L2614.21356 0M1220 1189.33861L2634.21356 0"/>
        </g>
        <g mask="url(#g)">
          <use fill="#0070F0" xlink:href="#h"/>
          <path stroke="#FFFFFF" stroke-width="4" d="M212,265.512632 L149.742477,358.65445 L405.005852,358.65445 L310.5,232.338552 L246.765957,317.525053 L212,265.512632 Z"/>
        </g>
      </g>
      <g transform="translate(586 621)">
        <mask id="j" fill="white">
          <use xlink:href="#i"/>
        </mask>
        <rect width="257" height="585" x="2" y="2" stroke="#FFFFFF" stroke-width="4"/>
        <path stroke="#FFFFFF" d="M-574.180151 588.18294L13 3M-554.180151 588.18294L33 3M-534.180151 588.18294L53 3M-514.180151 588.18294L73 3M-494.180151 588.18294L93 3M-474.180151 588.18294L113 3M-454.180151 588.18294L133 3M-434.180151 588.18294L153 3M-414.180151 588.18294L173 3M-394.180151 588.18294L193 3M-374.180151 588.18294L213 3M-354.180151 588.18294L233 3M-334.180151 588.18294L253 3M-314.180151 588.18294L273 3M-294.180151 588.18294L293 3M-274.180151 588.18294L313 3M-254.180151 588.18294L333 3M-234.180151 588.18294L353 3M-214.180151 588.18294L373 3M-194.180151 588.18294L393 3M-174.180151 588.18294L413 3M-154.180151 588.18294L433 3M-134.180151 588.18294L453 3M-114.180151 588.18294L473 3M-94.1801511 588.18294L493 3M-74.1801511 588.18294L513 3M-54.1801511 588.18294L533 3M-34.1801511 588.18294L553 3M-14.1801511 588.18294L573 3M5.81984886 588.18294L593 3M25.8198489 588.18294L613 3M45.8198489 588.18294L633 3M65.8198489 588.18294L653 3M85.8198489 588.18294L673 3M105.819849 588.18294L693 3M125.819849 588.18294L713 3M145.819849 588.18294L733 3M165.819849 588.18294L753 3M184.819849 588.18294L772 3M204.819849 588.18294L792 3M224.819849 588.18294L812 3M244.819849 588.18294L832 3" mask="url(#j)"/>
        <g mask="url(#j)">
          <use fill="#0070F0" xlink:href="#k"/>
          <path stroke="#FFFFFF" stroke-width="4" d="M85.1825095,274.596102 L40.7449198,341 L225.003041,341 L157.091255,250.336041 L110.538193,312.48556 L85.1825095,274.596102 Z"/>
        </g>
      </g>
    </g>
  </g>
</svg>
