<svg xmlns="http://www.w3.org/2000/svg" width="1280" height="1338" viewBox="0 0 1280 1338" xmlns:xlink="http://www.w3.org/1999/xlink" style="background:#0070f0">
  <defs>
    <rect id="a" width="1139" height="589"/>
    <path id="c" d="M529.95563,320.131367 L484.574561,252 L398.65,381 L527.536842,381 L741.046358,381 L612.81046,209 L529.95563,320.131367 Z"/>
    <rect id="d" width="261" height="592"/>
    <path id="f" d="M110.630108,310.262653 L85.1825095,272.091255 L37,344.365019 L109.273764,344.365019 L229,344.365019 L157.091255,248 L110.630108,310.262653 Z"/>
    <path id="g" d="M48,108 L213,108 L213,132 L48,132 L48,108 Z M48,48 L213,48 L213,72 L48,72 L48,48 Z"/>
    <rect id="i" width="554" height="381"/>
    <path id="k" d="M246.857909,209.736374 L212,157.586387 L146,256.327225 L245,256.327225 L409,256.327225 L310.5,124.672775 L246.857909,209.736374 Z"/>
  </defs>
  <g fill="none" fill-rule="evenodd">
    <g stroke="#FFFFFF" stroke-width="2" opacity=".3" transform="translate(70 48)">
      <rect width="259" height="173" x="1" y="1"/>
      <rect width="259" height="173" x="1" y="622"/>
      <rect width="259" height="173" x="587" y="1"/>
      <rect width="259" height="173" x="587" y="622"/>
      <rect width="259" height="173" x="1" y="208"/>
      <rect width="259" height="173" x="1" y="829"/>
      <rect width="259" height="173" x="587" y="208"/>
      <rect width="259" height="173" x="587" y="829"/>
      <rect width="259" height="173" x="1" y="415"/>
      <rect width="259" height="173" x="1" y="1036"/>
      <rect width="259" height="173" x="587" y="415"/>
      <rect width="259" height="173" x="587" y="1036"/>
      <rect width="259" height="173" x="294" y="1"/>
      <rect width="259" height="173" x="294" y="622"/>
      <rect width="259" height="173" x="880" y="1"/>
      <rect width="259" height="173" x="880" y="622"/>
      <rect width="259" height="173" x="294" y="208"/>
      <rect width="259" height="173" x="294" y="829"/>
      <rect width="259" height="173" x="880" y="208"/>
      <rect width="259" height="173" x="880" y="829"/>
      <rect width="259" height="173" x="294" y="415"/>
      <rect width="259" height="173" x="294" y="1036"/>
      <rect width="259" height="173" x="880" y="415"/>
      <rect width="259" height="173" x="880" y="1036"/>
    </g>
    <g transform="translate(70 48)">
      <mask id="b" fill="white">
        <use xlink:href="#a"/>
      </mask>
      <rect width="1135" height="585" x="2" y="2" stroke="#FFFFFF" stroke-width="4"/>
      <path stroke="#FFFFFF" d="M-576.67246 589.178757L10.9903509 1M-556.690004 589.178757L30.972807 1M-536.707547 589.178757L50.9552632 1M-516.725091 589.178757L70.9377193 1M-496.742635 589.178757L90.9201754 1M-476.760179 589.178757L110.902632 1M-456.777723 589.178757L130.885088 1M-436.795267 589.178757L150.867544 1M-416.812811 589.178757L170.85 1M-396.830354 589.178757L190.832456 1M-376.847898 589.178757L210.814912 1M-356.865442 589.178757L230.797368 1M-336.882986 589.178757L250.779825 1M-316.90053 589.178757L270.762281 1M-296.918074 589.178757L290.744737 1M-276.935618 589.178757L310.727193 1M-256.953161 589.178757L330.709649 1M-236.970705 589.178757L350.692105 1M-216.988249 589.178757L370.674561 1M-197.005793 589.178757L390.657018 1M-177.023337 589.178757L410.639474 1M-157.040881 589.178757L430.62193 1M-137.058425 589.178757L450.604386 1M-117.075968 589.178757L470.586842 1M-97.0935123 589.178757L490.569298 1M-77.1110562 589.178757L510.551754 1M-57.1286 589.178757L530.534211 1M-37.1461439 589.178757L550.516667 1M-17.1636878 589.178757L570.499123 1M2.81876838 589.178757L590.481579 1M22.8012245 589.178757L610.464035 1M42.7836807 589.178757L630.446491 1M62.7661368 589.178757L650.428947 1M82.7485929 589.178757L670.411404 1M102.731049 589.178757L690.39386 1M122.713505 589.178757L710.376316 1M142.695961 589.178757L730.358772 1M162.678418 589.178757L750.341228 1M182.660874 589.178757L770.323684 1M202.64333 589.178757L790.30614 1M222.625786 589.178757L810.288596 1M242.608242 589.178757L830.271053 1M262.590698 589.178757L850.253509 1M282.573154 589.178757L870.235965 1M302.55561 589.178757L890.218421 1M322.538067 589.178757L910.200877 1M342.520523 589.178757L930.183333 1M362.502979 589.178757L950.165789 1M382.485435 589.178757L970.148246 1M402.467891 589.178757L990.130702 1M422.450347 589.178757L1010.11316 1M442.432803 589.178757L1030.09561 1M462.41526 589.178757L1050.07807 1M482.397716 589.178757L1070.06053 1M502.380172 589.178757L1090.04298 1M522.362628 589.178757L1110.02544 1M542.345084 589.178757L1130.00789 1M562.32754 589.178757L1149.99035 1M582.309996 589.178757L1169.97281 1M602.292453 589.178757L1189.95526 1M622.274909 589.178757L1209.93772 1M642.257365 589.178757L1229.92018 1M662.239821 589.178757L1249.90263 1M682.222277 589.178757L1269.88509 1M702.204733 589.178757L1289.86754 1M722.187189 589.178757L1309.85 1M742.169646 589.178757L1329.83246 1M762.152102 589.178757L1349.81491 1M782.134558 589.178757L1369.79737 1M802.117014 589.178757L1389.77982 1M822.09947 589.178757L1409.76228 1M842.081926 589.178757L1429.74474 1M862.064382 589.178757L1449.72719 1M882.046839 589.178757L1469.70965 1M902.029295 589.178757L1489.69211 1M922.011751 589.178757L1509.67456 1M941.994207 589.178757L1529.65702 1M961.976663 589.178757L1549.63947 1M981.959119 589.178757L1569.62193 1M1001.94158 589.178757L1589.60439 1M1021.92403 589.178757L1609.58684 1M1041.90649 589.178757L1629.5693 1M1061.88894 589.178757L1649.55175 1M1081.8714 589.178757L1669.53421 1M1101.85386 589.178757L1689.51667 1M1121.83631 589.178757L1709.49912 1" mask="url(#b)"/>
      <g mask="url(#b)">
        <use fill="#0070F0" xlink:href="#c"/>
        <path stroke="#FFFFFF" stroke-width="4" d="M484.574561,255.607743 L402.385216,379 L737.060564,379 L612.81046,212.346059 L529.863572,323.600902 L484.574561,255.607743 Z"/>
      </g>
      <g transform="translate(293 621)">
        <mask id="e" fill="white">
          <use xlink:href="#d"/>
        </mask>
        <rect width="257" height="588" x="2" y="2" stroke="#FFFFFF" stroke-width="4"/>
        <path stroke="#FFFFFF" d="M-574.179477 591.178757L13.4833333 3M-554.179477 591.178757L33.4833333 3M-534.179477 591.178757L53.4833333 3M-514.179477 591.178757L73.4833333 3M-494.179477 591.178757L93.4833333 3M-474.179477 591.178757L113.483333 3M-454.179477 591.178757L133.483333 3M-434.179477 591.178757L153.483333 3M-414.179477 591.178757L173.483333 3M-394.179477 591.178757L193.483333 3M-374.179477 591.178757L213.483333 3M-354.179477 591.178757L233.483333 3M-334.179477 591.178757L253.483333 3M-314.179477 591.178757L273.483333 3M-294.179477 591.178757L293.483333 3M-274.179477 591.178757L313.483333 3M-254.179477 591.178757L333.483333 3M-234.179477 591.178757L353.483333 3M-214.179477 591.178757L373.483333 3M-194.179477 591.178757L393.483333 3M-174.179477 591.178757L413.483333 3M-154.179477 591.178757L433.483333 3M-134.179477 591.178757L453.483333 3M-114.179477 591.178757L473.483333 3M-94.1794772 591.178757L493.483333 3M-74.1794772 591.178757L513.483333 3M-54.1794772 591.178757L533.483333 3M-34.1794772 591.178757L553.483333 3M-14.1794772 591.178757L573.483333 3M5.82052277 591.178757L593.483333 3M25.8205228 591.178757L613.483333 3M45.8205228 591.178757L633.483333 3M65.8205228 591.178757L653.483333 3M85.8205228 591.178757L673.483333 3M105.820523 591.178757L693.483333 3M125.820523 591.178757L713.483333 3M145.820523 591.178757L733.483333 3M165.820523 591.178757L753.483333 3M184.820523 591.178757L772.483333 3M204.820523 591.178757L792.483333 3M224.820523 591.178757L812.483333 3M244.820523 591.178757L832.483333 3" mask="url(#e)"/>
        <g mask="url(#e)">
          <use fill="#0070F0" xlink:href="#f"/>
          <path stroke="#FFFFFF" stroke-width="4" d="M85.1825095,275.696806 L40.7370342,342.365019 L225.012114,342.365019 L157.091255,251.344172 L110.538077,313.730157 L85.1825095,275.696806 Z"/>
        </g>
      </g>
      <g transform="translate(586 1035)">
        <rect width="257" height="171" x="2" y="2" stroke="#FFFFFF" stroke-width="4"/>
        <mask id="h" fill="white">
          <use xlink:href="#g"/>
        </mask>
        <path stroke="#FFFFFF" d="M48.5,108.5 L48.5,131.5 L212.5,131.5 L212.5,108.5 L48.5,108.5 Z M48.5,48.5 L48.5,71.5 L212.5,71.5 L212.5,48.5 L48.5,48.5 Z"/>
        <path stroke="#FFFFFF" d="M-343 381L37 1M-324 381L56 1M-305 381L75 1M-286 381L94 1M-267 381L113 1M-248 381L132 1M-229 381L151 1M-210 381L170 1M-191 381L189 1M-172 381L208 1M-153 381L227 1M-134 381L246 1M-115 381L265 1M-96 381L284 1M-77 381L303 1M-58 381L322 1M-39 381L341 1M-20 381L360 1M-1 381L379 1M18 381L398 1M37 381L417 1M56 381L436 1M75 381L455 1M94 381L474 1M113 381L493 1M132 381L512 1M151 381L531 1M170 381L550 1M189 381L569 1M208 381L588 1M227 381L607 1M246 381L626 1M265 381L645 1M284 381L664 1M303 381L683 1M322 381L702 1M341 381L721 1M360 381L740 1M379 381L759 1M398 381L778 1M417 381L797 1M436 381L816 1M455 381L835 1M474 381L854 1M493 381L873 1M512 381L892 1M531 381L911 1M550 381L930 1M560 381L940 1M570 381L950 1M580 381L960 1M590 381L970 1M600 381L980 1M610 381L990 1M620 381L1000 1M-333 381L47 1M-314 381L66 1M-295 381L85 1M-276 381L104 1M-257 381L123 1M-238 381L142 1M-219 381L161 1M-200 381L180 1M-181 381L199 1M-162 381L218 1M-143 381L237 1M-124 381L256 1M-105 381L275 1M-86 381L294 1M-67 381L313 1M-48 381L332 1M-29 381L351 1M-10 381L370 1M9 381L389 1M28 381L408 1M47 381L427 1M66 381L446 1M85 381L465 1M104 381L484 1M123 381L503 1M142 381L522 1M161 381L541 1M180 381L560 1M199 381L579 1M218 381L598 1M237 381L617 1M256 381L636 1M275 381L655 1M294 381L674 1M313 381L693 1M332 381L712 1M351 381L731 1M370 381L750 1M389 381L769 1M408 381L788 1M427 381L807 1M446 381L826 1M465 381L845 1M484 381L864 1M503 381L883 1M522 381L902 1M541 381L921 1" mask="url(#h)"/>
      </g>
      <g transform="translate(586 621)">
        <mask id="j" fill="white">
          <use xlink:href="#i"/>
        </mask>
        <rect width="550" height="377" x="2" y="2" stroke="#FFFFFF" stroke-width="4"/>
        <path stroke="#FFFFFF" d="M-359 380.002618L21 .997382199M-340 380.002618L40 .997382199M-321 380.002618L59 .997382199M-302 380.002618L78 .997382199M-283 380.002618L97 .997382199M-264 380.002618L116 .997382199M-245 380.002618L135 .997382199M-226 380.002618L154 .997382199M-207 380.002618L173 .997382199M-188 380.002618L192 .997382199M-169 380.002618L211 .997382199M-150 380.002618L230 .997382199M-131 380.002618L249 .997382199M-112 380.002618L268 .997382199M-93 380.002618L287 .997382199M-74 380.002618L306 .997382199M-55 380.002618L325 .997382199M-36 380.002618L344 .997382199M-17 380.002618L363 .997382199M2 380.002618L382 .997382199M21 380.002618L401 .997382199M40 380.002618L420 .997382199M59 380.002618L439 .997382199M78 380.002618L458 .997382199M97 380.002618L477 .997382199M116 380.002618L496 .997382199M135 380.002618L515 .997382199M154 380.002618L534 .997382199M173 380.002618L553 .997382199M192 380.002618L572 .997382199M211 380.002618L591 .997382199M230 380.002618L610 .997382199M249 380.002618L629 .997382199M268 380.002618L648 .997382199M287 380.002618L667 .997382199M306 380.002618L686 .997382199M325 380.002618L705 .997382199M344 380.002618L724 .997382199M363 380.002618L743 .997382199M382 380.002618L762 .997382199M401 380.002618L781 .997382199M420 380.002618L800 .997382199M439 380.002618L819 .997382199M458 380.002618L838 .997382199M477 380.002618L857 .997382199M496 380.002618L876 .997382199M515 380.002618L895 .997382199M534 380.002618L914 .997382199" mask="url(#j)"/>
        <g mask="url(#j)">
          <use fill="#0070F0" xlink:href="#k"/>
          <path stroke="#FFFFFF" stroke-width="4" d="M212,161.185407 L149.742477,254.327225 L405.005852,254.327225 L310.5,128.011327 L246.765957,213.197828 L212,161.185407 Z"/>
        </g>
      </g>
    </g>
  </g>
</svg>
