<svg xmlns="http://www.w3.org/2000/svg" width="1280" height="1338" viewBox="0 0 1280 1338" xmlns:xlink="http://www.w3.org/1999/xlink" style="background:#0070f0">
  <defs>
    <rect id="a" width="554" height="381"/>
    <path id="c" d="M246.857909,209.736374 L212,157.586387 L146,256.327225 L245,256.327225 L409,256.327225 L310.5,124.672775 L246.857909,209.736374 Z"/>
    <rect id="d" width="554" height="382"/>
    <path id="f" d="M246.857909,210.286863 L212,158 L146,257 L245,257 L409,257 L310.5,125 L246.857909,210.286863 Z"/>
    <rect id="g" width="261" height="382"/>
    <path id="i" d="M108.630108,205.262653 L83.1825095,167.091255 L35,239.365019 L107.273764,239.365019 L227,239.365019 L155.091255,143 L108.630108,205.262653 Z"/>
    <rect id="j" width="261" height="382"/>
    <path id="l" d="M108.630108,205.262653 L83.1825095,167.091255 L35,239.365019 L107.273764,239.365019 L227,239.365019 L155.091255,143 L108.630108,205.262653 Z"/>
    <rect id="m" width="554" height="796"/>
    <path id="o" d="M236.420912,423.131367 L191,355 L105,484 L234,484 L447.69697,484 L319.348485,312 L236.420912,423.131367 Z"/>
    <path id="p" d="M48,48 L213,48 L213,72 L48,72 L48,48 Z M48,108 L213,108 L213,132 L48,132 L48,108 Z M48,168 L213,168 L213,192 L48,192 L48,168 Z M48,228 L213,228 L213,252 L48,252 L48,228 Z M48,288 L166,288 L166,312 L48,312 L48,288 Z"/>
    <path id="r" d="M48,48 L213,48 L213,72 L48,72 L48,48 Z M48,108 L213,108 L213,132 L48,132 L48,108 Z M48,168 L213,168 L213,192 L48,192 L48,168 Z M48,228 L213,228 L213,252 L48,252 L48,228 Z M48,288 L166,288 L166,312 L48,312 L48,288 Z"/>
  </defs>
  <g fill="none" fill-rule="evenodd">
    <g transform="translate(70 48)">
      <g transform="translate(293 828)">
        <mask id="b" fill="white">
          <use xlink:href="#a"/>
        </mask>
        <rect width="550" height="377" x="2" y="2" stroke="#FFFFFF" stroke-width="4"/>
        <path stroke="#FFFFFF" d="M-359 380.002618L21 .997382199M-340 380.002618L40 .997382199M-321 380.002618L59 .997382199M-302 380.002618L78 .997382199M-283 380.002618L97 .997382199M-264 380.002618L116 .997382199M-245 380.002618L135 .997382199M-226 380.002618L154 .997382199M-207 380.002618L173 .997382199M-188 380.002618L192 .997382199M-169 380.002618L211 .997382199M-150 380.002618L230 .997382199M-131 380.002618L249 .997382199M-112 380.002618L268 .997382199M-93 380.002618L287 .997382199M-74 380.002618L306 .997382199M-55 380.002618L325 .997382199M-36 380.002618L344 .997382199M-17 380.002618L363 .997382199M2 380.002618L382 .997382199M21 380.002618L401 .997382199M40 380.002618L420 .997382199M59 380.002618L439 .997382199M78 380.002618L458 .997382199M97 380.002618L477 .997382199M116 380.002618L496 .997382199M135 380.002618L515 .997382199M154 380.002618L534 .997382199M173 380.002618L553 .997382199M192 380.002618L572 .997382199M211 380.002618L591 .997382199M230 380.002618L610 .997382199M249 380.002618L629 .997382199M268 380.002618L648 .997382199M287 380.002618L667 .997382199M306 380.002618L686 .997382199M325 380.002618L705 .997382199M344 380.002618L724 .997382199M363 380.002618L743 .997382199M382 380.002618L762 .997382199M401 380.002618L781 .997382199M420 380.002618L800 .997382199M439 380.002618L819 .997382199M458 380.002618L838 .997382199M477 380.002618L857 .997382199M496 380.002618L876 .997382199M515 380.002618L895 .997382199M534 380.002618L914 .997382199" mask="url(#b)"/>
        <g mask="url(#b)">
          <use fill="#0070F0" xlink:href="#c"/>
          <path stroke="#FFFFFF" stroke-width="4" d="M212,161.185407 L149.742477,254.327225 L405.005852,254.327225 L310.5,128.011327 L246.765957,213.197828 L212,161.185407 Z"/>
        </g>
      </g>
      <g transform="translate(586)">
        <mask id="e" fill="white">
          <use xlink:href="#d"/>
        </mask>
        <rect width="550" height="378" x="2" y="2" stroke="#FFFFFF" stroke-width="4"/>
        <path stroke="#FFFFFF" d="M-359 381L21 1M-340 381L40 1M-321 381L59 1M-302 381L78 1M-283 381L97 1M-264 381L116 1M-245 381L135 1M-226 381L154 1M-207 381L173 1M-188 381L192 1M-169 381L211 1M-150 381L230 1M-131 381L249 1M-112 381L268 1M-93 381L287 1M-74 381L306 1M-55 381L325 1M-36 381L344 1M-17 381L363 1M2 381L382 1M21 381L401 1M40 381L420 1M59 381L439 1M78 381L458 1M97 381L477 1M116 381L496 1M135 381L515 1M154 381L534 1M173 381L553 1M192 381L572 1M211 381L591 1M230 381L610 1M249 381L629 1M268 381L648 1M287 381L667 1M306 381L686 1M325 381L705 1M344 381L724 1M363 381L743 1M382 381L762 1M401 381L781 1M420 381L800 1M439 381L819 1M458 381L838 1M477 381L857 1M496 381L876 1M515 381L895 1M534 381L914 1" mask="url(#e)"/>
        <g mask="url(#e)">
          <use fill="#0070F0" xlink:href="#f"/>
          <path stroke="#FFFFFF" stroke-width="4" d="M212,161.605551 L149.737034,255 L405.012114,255 L310.5,128.344172 L246.765877,213.754367 L212,161.605551 Z"/>
        </g>
      </g>
      <g transform="translate(586 414)">
        <mask id="h" fill="white">
          <use xlink:href="#g"/>
        </mask>
        <rect width="257" height="378" x="2" y="2" stroke="#FFFFFF" stroke-width="4"/>
        <path stroke="#FFFFFF" d="M-364 381L16 1M-345 381L35 1M-326 381L54 1M-307 381L73 1M-288 381L92 1M-269 381L111 1M-250 381L130 1M-231 381L149 1M-212 381L168 1M-193 381L187 1M-174 381L206 1M-155 381L225 1M-136 381L244 1M-117 381L263 1M-98 381L282 1M-79 381L301 1M-60 381L320 1M-41 381L339 1M-22 381L358 1M-3 381L377 1M16 381L396 1M35 381L415 1M54 381L434 1M73 381L453 1M92 381L472 1M111 381L491 1M130 381L510 1M149 381L529 1M168 381L548 1M187 381L567 1M206 381L586 1M225 381L605 1M244 381L624 1" mask="url(#h)"/>
        <g mask="url(#h)">
          <use fill="#0070F0" xlink:href="#i"/>
          <path stroke="#FFFFFF" stroke-width="4" d="M83.1825095,170.696806 L38.7370342,237.365019 L223.012114,237.365019 L155.091255,146.344172 L108.538077,208.730157 L83.1825095,170.696806 Z"/>
        </g>
      </g>
      <g transform="translate(879 828)">
        <mask id="k" fill="white">
          <use xlink:href="#j"/>
        </mask>
        <rect width="257" height="378" x="2" y="2" stroke="#FFFFFF" stroke-width="4"/>
        <path stroke="#FFFFFF" d="M-364 381L16 1M-345 381L35 1M-326 381L54 1M-307 381L73 1M-288 381L92 1M-269 381L111 1M-250 381L130 1M-231 381L149 1M-212 381L168 1M-193 381L187 1M-174 381L206 1M-155 381L225 1M-136 381L244 1M-117 381L263 1M-98 381L282 1M-79 381L301 1M-60 381L320 1M-41 381L339 1M-22 381L358 1M-3 381L377 1M16 381L396 1M35 381L415 1M54 381L434 1M73 381L453 1M92 381L472 1M111 381L491 1M130 381L510 1M149 381L529 1M168 381L548 1M187 381L567 1M206 381L586 1M225 381L605 1M244 381L624 1" mask="url(#k)"/>
        <g mask="url(#k)">
          <use fill="#0070F0" xlink:href="#l"/>
          <path stroke="#FFFFFF" stroke-width="4" d="M83.1825095,170.696806 L38.7370342,237.365019 L223.012114,237.365019 L155.091255,146.344172 L108.538077,208.730157 L83.1825095,170.696806 Z"/>
        </g>
      </g>
      <mask id="n" fill="white">
        <use xlink:href="#m"/>
      </mask>
      <rect width="550" height="792" x="2" y="2" stroke="#FFFFFF" stroke-width="4"/>
      <path stroke="#FFFFFF" d="M-777.178757 796.178757L20.0014112-1.00141123M-757.178757 796.178757L40.0014112-1.00141123M-737.178757 796.178757L60.0014112-1.00141123M-717.178757 796.178757L80.0014112-1.00141123M-697.178757 796.178757L100.001411-1.00141123M-677.178757 796.178757L120.001411-1.00141123M-657.178757 796.178757L140.001411-1.00141123M-637.178757 796.178757L160.001411-1.00141123M-617.178757 796.178757L180.001411-1.00141123M-597.178757 796.178757L200.001411-1.00141123M-577.178757 796.178757L220.001411-1.00141123M-557.178757 796.178757L240.001411-1.00141123M-537.178757 796.178757L260.001411-1.00141123M-517.178757 796.178757L280.001411-1.00141123M-497.178757 796.178757L300.001411-1.00141123M-477.178757 796.178757L320.001411-1.00141123M-457.178757 796.178757L340.001411-1.00141123M-437.178757 796.178757L360.001411-1.00141123M-417.178757 796.178757L380.001411-1.00141123M-397.178757 796.178757L400.001411-1.00141123M-377.178757 796.178757L420.001411-1.00141123M-357.178757 796.178757L440.001411-1.00141123M-337.178757 796.178757L460.001411-1.00141123M-317.178757 796.178757L480.001411-1.00141123M-297.178757 796.178757L500.001411-1.00141123M-277.178757 796.178757L520.001411-1.00141123M-257.178757 796.178757L540.001411-1.00141123M-237.178757 796.178757L560.001411-1.00141123M-217.178757 796.178757L580.001411-1.00141123M-197.178757 796.178757L600.001411-1.00141123M-177.178757 796.178757L620.001411-1.00141123M-157.178757 796.178757L640.001411-1.00141123M-137.178757 796.178757L660.001411-1.00141123M-117.178757 796.178757L680.001411-1.00141123M-97.1787568 796.178757L700.001411-1.00141123M-77.1787568 796.178757L720.001411-1.00141123M-57.1787568 796.178757L740.001411-1.00141123M-37.1787568 796.178757L760.001411-1.00141123M-17.1787568 796.178757L780.001411-1.00141123M2.82124316 796.178757L800.001411-1.00141123M22.8212432 796.178757L820.001411-1.00141123M42.8212432 796.178757L840.001411-1.00141123M62.8212432 796.178757L860.001411-1.00141123M82.8212432 796.178757L880.001411-1.00141123M102.821243 796.178757L900.001411-1.00141123M122.821243 796.178757L920.001411-1.00141123M142.821243 796.178757L940.001411-1.00141123M162.821243 796.178757L960.001411-1.00141123M182.821243 796.178757L980.001411-1.00141123M202.821243 796.178757L1000.00141-1.00141123M222.821243 796.178757L1020.00141-1.00141123M242.821243 796.178757L1040.00141-1.00141123M262.821243 796.178757L1060.00141-1.00141123M282.821243 796.178757L1080.00141-1.00141123M302.821243 796.178757L1100.00141-1.00141123M322.821243 796.178757L1120.00141-1.00141123M342.821243 796.178757L1140.00141-1.00141123M362.821243 796.178757L1160.00141-1.00141123M382.821243 796.178757L1180.00141-1.00141123M402.821243 796.178757L1200.00141-1.00141123M422.821243 796.178757L1220.00141-1.00141123M442.821243 796.178757L1240.00141-1.00141123M462.821243 796.178757L1260.00141-1.00141123M482.821243 796.178757L1280.00141-1.00141123M502.821243 796.178757L1300.00141-1.00141123M522.821243 796.178757L1320.00141-1.00141123" mask="url(#n)"/>
      <g mask="url(#n)">
        <use fill="#0070F0" xlink:href="#o"/>
        <path stroke="#FFFFFF" stroke-width="4" d="M191,358.605551 L108.737034,482 L443.709084,482 L319.348485,315.344172 L236.32888,426.598871 L191,358.605551 Z"/>
      </g>
      <g transform="translate(879 414)">
        <rect width="257" height="378" x="2" y="2" stroke="#FFFFFF" stroke-width="4"/>
        <mask id="q" fill="white">
          <use xlink:href="#p"/>
        </mask>
        <path stroke="#FFFFFF" d="M48.5,48.5 L48.5,71.5 L212.5,71.5 L212.5,48.5 L48.5,48.5 Z M48.5,108.5 L48.5,131.5 L212.5,131.5 L212.5,108.5 L48.5,108.5 Z M48.5,168.5 L48.5,191.5 L212.5,191.5 L212.5,168.5 L48.5,168.5 Z M48.5,228.5 L48.5,251.5 L212.5,251.5 L212.5,228.5 L48.5,228.5 Z M48.5,288.5 L48.5,311.5 L165.5,311.5 L165.5,288.5 L48.5,288.5 Z"/>
        <path stroke="#FFFFFF" d="M-900.000131 1005.00013L57.0081223 47.9918777M-890.000131 1005.00013L67.0081223 47.9918777M-880.000131 1005.00013L77.0081223 47.9918777M-870.000131 1005.00013L87.0081223 47.9918777M-860.000131 1005.00013L97.0081223 47.9918777M-850.000131 1005.00013L107.008122 47.9918777M-840.000131 1005.00013L117.008122 47.9918777M-830.000131 1005.00013L127.008122 47.9918777M-820.000131 1005.00013L137.008122 47.9918777M-810.000131 1005.00013L147.008122 47.9918777M-800.000131 1005.00013L157.008122 47.9918777M-790.000131 1005.00013L167.008122 47.9918777M-780.000131 1005.00013L177.008122 47.9918777M-770.000131 1005.00013L187.008122 47.9918777M-760.000131 1005.00013L197.008122 47.9918777M-750.000131 1005.00013L207.008122 47.9918777M-740.000131 1005.00013L217.008122 47.9918777M-730.000131 1005.00013L227.008122 47.9918777M-720.000131 1005.00013L237.008122 47.9918777M-710.000131 1005.00013L247.008122 47.9918777M-700.000131 1005.00013L257.008122 47.9918777M-690.000131 1005.00013L267.008122 47.9918777M-680.000131 1005.00013L277.008122 47.9918777M-670.000131 1005.00013L287.008122 47.9918777M-660.000131 995.000131L297.008122 37.9918777M-650.000131 995.000131L307.008122 37.9918777M-640.000131 995.000131L317.008122 37.9918777M-630.000131 995.000131L327.008122 37.9918777M-620.000131 995.000131L337.008122 37.9918777M-610.000131 995.000131L347.008122 37.9918777M-600.000131 995.000131L357.008122 37.9918777M-590.000131 995.000131L367.008122 37.9918777M-580.000131 995.000131L377.008122 37.9918777M-570.000131 995.000131L387.008122 37.9918777M-560.000131 995.000131L397.008122 37.9918777M-550.000131 995.000131L407.008122 37.9918777M-540.000131 995.000131L417.008122 37.9918777M-530.000131 995.000131L427.008122 37.9918777M-520.000131 995.000131L437.008122 37.9918777M-510.000131 995.000131L447.008122 37.9918777M-500.000131 995.000131L457.008122 37.9918777M-490.000131 995.000131L467.008122 37.9918777M-480.000131 995.000131L477.008122 37.9918777M-470.000131 995.000131L487.008122 37.9918777M-460.000131 995.000131L497.008122 37.9918777M-450.000131 995.000131L507.008122 37.9918777M-440.000131 995.000131L517.008122 37.9918777M-430.000131 995.000131L527.008122 37.9918777M-420.000131 995.000131L537.008122 37.9918777M-410.000131 995.000131L547.008122 37.9918777M-400.000131 995.000131L557.008122 37.9918777M-390.000131 995.000131L567.008122 37.9918777M-380.000131 995.000131L577.008122 37.9918777M-370.000131 995.000131L587.008122 37.9918777M-360.000131 995.000131L597.008122 37.9918777M-350.000131 995.000131L607.008122 37.9918777M-340.000131 995.000131L617.008122 37.9918777M-330.000131 995.000131L627.008122 37.9918777M-320.000131 995.000131L637.008122 37.9918777M-310.000131 995.000131L647.008122 37.9918777M-300.000131 995.000131L657.008122 37.9918777M-290.000131 995.000131L667.008122 37.9918777M-280.000131 995.000131L677.008122 37.9918777M-270.000131 995.000131L687.008122 37.9918777M-260.000131 995.000131L697.008122 37.9918777M-250.000131 995.000131L707.008122 37.9918777M-240.000131 995.000131L717.008122 37.9918777M-230.000131 995.000131L727.008122 37.9918777M-220.000131 995.000131L737.008122 37.9918777M-210.000131 995.000131L747.008122 37.9918777M-200.000131 995.000131L757.008122 37.9918777M-190.000131 995.000131L767.008122 37.9918777M-180.000131 995.000131L777.008122 37.9918777M-170.000131 995.000131L787.008122 37.9918777M-160.000131 995.000131L797.008122 37.9918777M-150.000131 995.000131L807.008122 37.9918777M-140.000131 995.000131L817.008122 37.9918777M-130.000131 995.000131L827.008122 37.9918777M-120.000131 995.000131L837.008122 37.9918777M-110.000131 995.000131L847.008122 37.9918777M-100.000131 995.000131L857.008122 37.9918777M-90.0001306 995.000131L867.008122 37.9918777M-80.0001306 995.000131L877.008122 37.9918777M-70.0001306 995.000131L887.008122 37.9918777M-60.0001306 995.000131L897.008122 37.9918777M-50.0001306 995.000131L907.008122 37.9918777M-40.0001306 995.000131L917.008122 37.9918777M-30.0001306 995.000131L927.008122 37.9918777M-20.0001306 995.000131L937.008122 37.9918777M-10.0001306 995.000131L947.008122 37.9918777M-.000130615393 995.000131L957.008122 37.9918777M9.99986938 995.000131L967.008122 37.9918777M19.9998694 995.000131L977.008122 37.9918777M29.9998694 995.000131L987.008122 37.9918777M39.9998694 995.000131L997.008122 37.9918777M49.9998694 995.000131L1007.00812 37.9918777M59.9998694 995.000131L1017.00812 37.9918777M69.9998694 995.000131L1027.00812 37.9918777" mask="url(#q)"/>
      </g>
      <g transform="translate(0 828)">
        <rect width="257" height="378" x="2" y="2" stroke="#FFFFFF" stroke-width="4"/>
        <mask id="s" fill="white">
          <use xlink:href="#r"/>
        </mask>
        <path stroke="#FFFFFF" d="M48.5,48.5 L48.5,71.5 L212.5,71.5 L212.5,48.5 L48.5,48.5 Z M48.5,108.5 L48.5,131.5 L212.5,131.5 L212.5,108.5 L48.5,108.5 Z M48.5,168.5 L48.5,191.5 L212.5,191.5 L212.5,168.5 L48.5,168.5 Z M48.5,228.5 L48.5,251.5 L212.5,251.5 L212.5,228.5 L48.5,228.5 Z M48.5,288.5 L48.5,311.5 L165.5,311.5 L165.5,288.5 L48.5,288.5 Z"/>
        <path stroke="#FFFFFF" d="M-900.000131 1005.00013L57.0081223 47.9918777M-890.000131 1005.00013L67.0081223 47.9918777M-880.000131 1005.00013L77.0081223 47.9918777M-870.000131 1005.00013L87.0081223 47.9918777M-860.000131 1005.00013L97.0081223 47.9918777M-850.000131 1005.00013L107.008122 47.9918777M-840.000131 1005.00013L117.008122 47.9918777M-830.000131 1005.00013L127.008122 47.9918777M-820.000131 1005.00013L137.008122 47.9918777M-810.000131 1005.00013L147.008122 47.9918777M-800.000131 1005.00013L157.008122 47.9918777M-790.000131 1005.00013L167.008122 47.9918777M-780.000131 1005.00013L177.008122 47.9918777M-770.000131 1005.00013L187.008122 47.9918777M-760.000131 1005.00013L197.008122 47.9918777M-750.000131 1005.00013L207.008122 47.9918777M-740.000131 1005.00013L217.008122 47.9918777M-730.000131 1005.00013L227.008122 47.9918777M-720.000131 1005.00013L237.008122 47.9918777M-710.000131 1005.00013L247.008122 47.9918777M-700.000131 1005.00013L257.008122 47.9918777M-690.000131 1005.00013L267.008122 47.9918777M-680.000131 1005.00013L277.008122 47.9918777M-670.000131 1005.00013L287.008122 47.9918777M-660.000131 995.000131L297.008122 37.9918777M-650.000131 995.000131L307.008122 37.9918777M-640.000131 995.000131L317.008122 37.9918777M-630.000131 995.000131L327.008122 37.9918777M-620.000131 995.000131L337.008122 37.9918777M-610.000131 995.000131L347.008122 37.9918777M-600.000131 995.000131L357.008122 37.9918777M-590.000131 995.000131L367.008122 37.9918777M-580.000131 995.000131L377.008122 37.9918777M-570.000131 995.000131L387.008122 37.9918777M-560.000131 995.000131L397.008122 37.9918777M-550.000131 995.000131L407.008122 37.9918777M-540.000131 995.000131L417.008122 37.9918777M-530.000131 995.000131L427.008122 37.9918777M-520.000131 995.000131L437.008122 37.9918777M-510.000131 995.000131L447.008122 37.9918777M-500.000131 995.000131L457.008122 37.9918777M-490.000131 995.000131L467.008122 37.9918777M-480.000131 995.000131L477.008122 37.9918777M-470.000131 995.000131L487.008122 37.9918777M-460.000131 995.000131L497.008122 37.9918777M-450.000131 995.000131L507.008122 37.9918777M-440.000131 995.000131L517.008122 37.9918777M-430.000131 995.000131L527.008122 37.9918777M-420.000131 995.000131L537.008122 37.9918777M-410.000131 995.000131L547.008122 37.9918777M-400.000131 995.000131L557.008122 37.9918777M-390.000131 995.000131L567.008122 37.9918777M-380.000131 995.000131L577.008122 37.9918777M-370.000131 995.000131L587.008122 37.9918777M-360.000131 995.000131L597.008122 37.9918777M-350.000131 995.000131L607.008122 37.9918777M-340.000131 995.000131L617.008122 37.9918777M-330.000131 995.000131L627.008122 37.9918777M-320.000131 995.000131L637.008122 37.9918777M-310.000131 995.000131L647.008122 37.9918777M-300.000131 995.000131L657.008122 37.9918777M-290.000131 995.000131L667.008122 37.9918777M-280.000131 995.000131L677.008122 37.9918777M-270.000131 995.000131L687.008122 37.9918777M-260.000131 995.000131L697.008122 37.9918777M-250.000131 995.000131L707.008122 37.9918777M-240.000131 995.000131L717.008122 37.9918777M-230.000131 995.000131L727.008122 37.9918777M-220.000131 995.000131L737.008122 37.9918777M-210.000131 995.000131L747.008122 37.9918777M-200.000131 995.000131L757.008122 37.9918777M-190.000131 995.000131L767.008122 37.9918777M-180.000131 995.000131L777.008122 37.9918777M-170.000131 995.000131L787.008122 37.9918777M-160.000131 995.000131L797.008122 37.9918777M-150.000131 995.000131L807.008122 37.9918777M-140.000131 995.000131L817.008122 37.9918777M-130.000131 995.000131L827.008122 37.9918777M-120.000131 995.000131L837.008122 37.9918777M-110.000131 995.000131L847.008122 37.9918777M-100.000131 995.000131L857.008122 37.9918777M-90.0001306 995.000131L867.008122 37.9918777M-80.0001306 995.000131L877.008122 37.9918777M-70.0001306 995.000131L887.008122 37.9918777M-60.0001306 995.000131L897.008122 37.9918777M-50.0001306 995.000131L907.008122 37.9918777M-40.0001306 995.000131L917.008122 37.9918777M-30.0001306 995.000131L927.008122 37.9918777M-20.0001306 995.000131L937.008122 37.9918777M-10.0001306 995.000131L947.008122 37.9918777M-.000130615393 995.000131L957.008122 37.9918777M9.99986938 995.000131L967.008122 37.9918777M19.9998694 995.000131L977.008122 37.9918777M29.9998694 995.000131L987.008122 37.9918777M39.9998694 995.000131L997.008122 37.9918777M49.9998694 995.000131L1007.00812 37.9918777M59.9998694 995.000131L1017.00812 37.9918777M69.9998694 995.000131L1027.00812 37.9918777" mask="url(#s)"/>
      </g>
    </g>
    <g stroke="#FFFFFF" stroke-width="2" opacity=".2" transform="translate(70 48)">
      <rect width="259" height="173" x="1" y="1"/>
      <rect width="259" height="173" x="1" y="622"/>
      <rect width="259" height="173" x="587" y="1"/>
      <rect width="259" height="173" x="587" y="622"/>
      <rect width="259" height="173" x="1" y="208"/>
      <rect width="259" height="173" x="1" y="829"/>
      <rect width="259" height="173" x="587" y="208"/>
      <rect width="259" height="173" x="587" y="829"/>
      <rect width="259" height="173" x="1" y="415"/>
      <rect width="259" height="173" x="1" y="1036"/>
      <rect width="259" height="173" x="587" y="415"/>
      <rect width="259" height="173" x="587" y="1036"/>
      <rect width="259" height="173" x="294" y="1"/>
      <rect width="259" height="173" x="294" y="622"/>
      <rect width="259" height="173" x="880" y="1"/>
      <rect width="259" height="173" x="880" y="622"/>
      <rect width="259" height="173" x="294" y="208"/>
      <rect width="259" height="173" x="294" y="829"/>
      <rect width="259" height="173" x="880" y="208"/>
      <rect width="259" height="173" x="880" y="829"/>
      <rect width="259" height="173" x="294" y="415"/>
      <rect width="259" height="173" x="294" y="1036"/>
      <rect width="259" height="173" x="880" y="415"/>
      <rect width="259" height="173" x="880" y="1036"/>
    </g>
  </g>
</svg>
