<svg xmlns="http://www.w3.org/2000/svg" width="1280" height="1338" viewBox="0 0 1280 1338" xmlns:xlink="http://www.w3.org/1999/xlink" style="background:#0070f0">
  <defs>
    <path id="a" d="M48,228 L506,228 L506,252 L48,252 L48,228 Z M48,168 L506,168 L506,192 L48,192 L48,168 Z M48,108 L506,108 L506,132 L48,132 L48,108 Z M48,48 L506,48 L506,72 L48,72 L48,48 Z M48,288 L506,288 L506,312 L48,312 L48,288 Z M48,348 L506,348 L506,372 L48,372 L48,348 Z M48,408 L506,408 L506,432 L48,432 L48,408 Z M48,468 L376,468 L376,492 L48,492 L48,468 Z"/>
    <rect id="c" width="554" height="382"/>
    <path id="e" d="M246.857909,210.286863 L212,158 L146,257 L245,257 L409,257 L310.5,125 L246.857909,210.286863 Z"/>
    <rect id="f" width="554" height="382"/>
    <path id="h" d="M246.857909,210.286863 L212,158 L146,257 L245,257 L409,257 L310.5,125 L246.857909,210.286863 Z"/>
    <rect id="i" width="554" height="382"/>
    <path id="k" d="M246.857909,210.286863 L212,158 L146,257 L245,257 L409,257 L310.5,125 L246.857909,210.286863 Z"/>
  </defs>
  <g fill="none" fill-rule="evenodd">
    <g transform="translate(70 48)">
      <rect width="550" height="95" x="588" y="2" stroke="#FFFFFF" stroke-width="4"/>
      <g transform="translate(586 414)">
        <rect width="550" height="585" x="2" y="2" stroke="#FFFFFF" stroke-width="4"/>
        <mask id="b" fill="white">
          <use xlink:href="#a"/>
        </mask>
        <path stroke="#FFFFFF" d="M48.5,228.5 L48.5,251.5 L505.5,251.5 L505.5,228.5 L48.5,228.5 Z M48.5,168.5 L48.5,191.5 L505.5,191.5 L505.5,168.5 L48.5,168.5 Z M48.5,108.5 L48.5,131.5 L505.5,131.5 L505.5,108.5 L48.5,108.5 Z M48.5,48.5 L48.5,71.5 L505.5,71.5 L505.5,48.5 L48.5,48.5 Z M48.5,288.5 L48.5,311.5 L505.5,311.5 L505.5,288.5 L48.5,288.5 Z M48.5,348.5 L48.5,371.5 L505.5,371.5 L505.5,348.5 L48.5,348.5 Z M48.5,408.5 L48.5,431.5 L505.5,431.5 L505.5,408.5 L48.5,408.5 Z M48.5,468.5 L48.5,491.5 L375.5,491.5 L375.5,468.5 L48.5,468.5 Z"/>
        <path stroke="#FFFFFF" d="M-387.753592 491.753592L56 48M-377.753592 491.753592L66 48M-367.753592 491.753592L76 48M-357.753592 491.753592L86 48M-347.753592 491.753592L96 48M-337.753592 491.753592L106 48M-327.753592 491.753592L116 48M-317.753592 491.753592L126 48M-307.753592 491.753592L136 48M-297.753592 491.753592L146 48M-287.753592 491.753592L156 48M-277.753592 491.753592L166 48M-267.753592 491.753592L176 48M-257.753592 491.753592L186 48M-247.753592 491.753592L196 48M-237.753592 491.753592L206 48M-227.753592 491.753592L216 48M-217.753592 491.753592L226 48M-207.753592 491.753592L236 48M-197.753592 491.753592L246 48M-187.753592 491.753592L256 48M-177.753592 491.753592L266 48M-167.753592 491.753592L276 48M-157.753592 491.753592L286 48M-147.753592 491.753592L296 48M-137.753592 491.753592L306 48M-127.753592 491.753592L316 48M-117.753592 491.753592L326 48M-107.753592 491.753592L336 48M-97.7535915 491.753592L346 48M-87.7535915 491.753592L356 48M-77.7535915 491.753592L366 48M-67.7535915 491.753592L376 48M-57.7535915 491.753592L386 48M-47.7535915 491.753592L396 48M-37.7535915 491.753592L406 48M-27.7535915 491.753592L416 48M-17.7535915 491.753592L426 48M-7.75359153 491.753592L436 48M2.24640847 491.753592L446 48M12.2464085 491.753592L456 48M22.2464085 491.753592L466 48M32.2464085 491.753592L476 48M42.2464085 491.753592L486 48M52.2464085 491.753592L496 48M62.2464085 491.753592L506 48M72.2464085 491.753592L516 48M82.2464085 491.753592L526 48M92.2464085 491.753592L536 48M102.246408 491.753592L546 48M112.246408 491.753592L556 48M122.246408 491.753592L566 48M132.246408 491.753592L576 48M142.246408 491.753592L586 48M152.246408 491.753592L596 48M162.246408 491.753592L606 48M172.246408 491.753592L616 48M182.246408 491.753592L626 48M192.246408 491.753592L636 48M202.246408 491.753592L646 48M212.246408 491.753592L656 48M222.246408 491.753592L666 48M232.246408 491.753592L676 48M242.246408 491.753592L686 48M252.246408 491.753592L696 48M262.246408 491.753592L706 48M272.246408 491.753592L716 48M282.246408 491.753592L726 48M292.246408 491.753592L736 48M302.246408 491.753592L746 48M312.246408 491.753592L756 48M322.246408 491.753592L766 48M332.246408 491.753592L776 48M342.246408 491.753592L786 48M352.246408 491.753592L796 48M362.246408 491.753592L806 48M372.246408 491.753592L816 48M382.246408 491.753592L826 48M392.246408 491.753592L836 48M402.246408 491.753592L846 48M412.246408 491.753592L856 48M422.246408 491.753592L866 48M432.246408 491.753592L876 48M442.246408 491.753592L886 48" mask="url(#b)"/>
      </g>
      <g transform="translate(0 828)">
        <mask id="d" fill="white">
          <use xlink:href="#c"/>
        </mask>
        <rect width="550" height="378" x="2" y="2" stroke="#FFFFFF" stroke-width="4"/>
        <path stroke="#FFFFFF" d="M-359 381L21 1M-340 381L40 1M-321 381L59 1M-302 381L78 1M-283 381L97 1M-264 381L116 1M-245 381L135 1M-226 381L154 1M-207 381L173 1M-188 381L192 1M-169 381L211 1M-150 381L230 1M-131 381L249 1M-112 381L268 1M-93 381L287 1M-74 381L306 1M-55 381L325 1M-36 381L344 1M-17 381L363 1M2 381L382 1M21 381L401 1M40 381L420 1M59 381L439 1M78 381L458 1M97 381L477 1M116 381L496 1M135 381L515 1M154 381L534 1M173 381L553 1M192 381L572 1M211 381L591 1M230 381L610 1M249 381L629 1M268 381L648 1M287 381L667 1M306 381L686 1M325 381L705 1M344 381L724 1M363 381L743 1M382 381L762 1M401 381L781 1M420 381L800 1M439 381L819 1M458 381L838 1M477 381L857 1M496 381L876 1M515 381L895 1M534 381L914 1" mask="url(#d)"/>
        <g mask="url(#d)">
          <use fill="#0070F0" xlink:href="#e"/>
          <path stroke="#FFFFFF" stroke-width="4" d="M212,161.605551 L149.737034,255 L405.012114,255 L310.5,128.344172 L246.765877,213.754367 L212,161.605551 Z"/>
        </g>
      </g>
      <g transform="translate(0 414)">
        <mask id="g" fill="white">
          <use xlink:href="#f"/>
        </mask>
        <rect width="550" height="378" x="2" y="2" stroke="#FFFFFF" stroke-width="4"/>
        <path stroke="#FFFFFF" d="M-359 381L21 1M-340 381L40 1M-321 381L59 1M-302 381L78 1M-283 381L97 1M-264 381L116 1M-245 381L135 1M-226 381L154 1M-207 381L173 1M-188 381L192 1M-169 381L211 1M-150 381L230 1M-131 381L249 1M-112 381L268 1M-93 381L287 1M-74 381L306 1M-55 381L325 1M-36 381L344 1M-17 381L363 1M2 381L382 1M21 381L401 1M40 381L420 1M59 381L439 1M78 381L458 1M97 381L477 1M116 381L496 1M135 381L515 1M154 381L534 1M173 381L553 1M192 381L572 1M211 381L591 1M230 381L610 1M249 381L629 1M268 381L648 1M287 381L667 1M306 381L686 1M325 381L705 1M344 381L724 1M363 381L743 1M382 381L762 1M401 381L781 1M420 381L800 1M439 381L819 1M458 381L838 1M477 381L857 1M496 381L876 1M515 381L895 1M534 381L914 1" mask="url(#g)"/>
        <g mask="url(#g)">
          <use fill="#0070F0" xlink:href="#h"/>
          <path stroke="#FFFFFF" stroke-width="4" d="M212,161.605551 L149.737034,255 L405.012114,255 L310.5,128.344172 L246.765877,213.754367 L212,161.605551 Z"/>
        </g>
      </g>
      <mask id="j" fill="white">
        <use xlink:href="#i"/>
      </mask>
      <rect width="550" height="378" x="2" y="2" stroke="#FFFFFF" stroke-width="4"/>
      <path stroke="#FFFFFF" d="M-359 381L21 1M-340 381L40 1M-321 381L59 1M-302 381L78 1M-283 381L97 1M-264 381L116 1M-245 381L135 1M-226 381L154 1M-207 381L173 1M-188 381L192 1M-169 381L211 1M-150 381L230 1M-131 381L249 1M-112 381L268 1M-93 381L287 1M-74 381L306 1M-55 381L325 1M-36 381L344 1M-17 381L363 1M2 381L382 1M21 381L401 1M40 381L420 1M59 381L439 1M78 381L458 1M97 381L477 1M116 381L496 1M135 381L515 1M154 381L534 1M173 381L553 1M192 381L572 1M211 381L591 1M230 381L610 1M249 381L629 1M268 381L648 1M287 381L667 1M306 381L686 1M325 381L705 1M344 381L724 1M363 381L743 1M382 381L762 1M401 381L781 1M420 381L800 1M439 381L819 1M458 381L838 1M477 381L857 1M496 381L876 1M515 381L895 1M534 381L914 1" mask="url(#j)"/>
      <g mask="url(#j)">
        <use fill="#0070F0" xlink:href="#k"/>
        <path stroke="#FFFFFF" stroke-width="4" d="M212,161.605551 L149.737034,255 L405.012114,255 L310.5,128.344172 L246.765877,213.754367 L212,161.605551 Z"/>
      </g>
    </g>
    <g stroke="#FFFFFF" stroke-width="2" opacity=".3" transform="translate(70 48)">
      <rect width="259" height="173" x="1" y="1"/>
      <rect width="259" height="173" x="1" y="622"/>
      <rect width="259" height="173" x="587" y="1"/>
      <rect width="259" height="173" x="587" y="622"/>
      <rect width="259" height="173" x="1" y="208"/>
      <rect width="259" height="173" x="1" y="829"/>
      <rect width="259" height="173" x="587" y="208"/>
      <rect width="259" height="173" x="587" y="829"/>
      <rect width="259" height="173" x="1" y="415"/>
      <rect width="259" height="173" x="1" y="1036"/>
      <rect width="259" height="173" x="587" y="415"/>
      <rect width="259" height="173" x="587" y="1036"/>
      <rect width="259" height="173" x="294" y="1"/>
      <rect width="259" height="173" x="294" y="622"/>
      <rect width="259" height="173" x="880" y="1"/>
      <rect width="259" height="173" x="880" y="622"/>
      <rect width="259" height="173" x="294" y="208"/>
      <rect width="259" height="173" x="294" y="829"/>
      <rect width="259" height="173" x="880" y="208"/>
      <rect width="259" height="173" x="880" y="829"/>
      <rect width="259" height="173" x="294" y="415"/>
      <rect width="259" height="173" x="294" y="1036"/>
      <rect width="259" height="173" x="880" y="415"/>
      <rect width="259" height="173" x="880" y="1036"/>
    </g>
  </g>
</svg>
