<svg xmlns="http://www.w3.org/2000/svg" width="1280" height="1752" viewBox="0 0 1280 1752" xmlns:xlink="http://www.w3.org/1999/xlink" style="background:#0070f0">
  <defs>
    <rect id="a" width="261" height="382"/>
    <path id="c" d="M108.630108,205.262653 L83.1825095,167.091255 L35,239.365019 L107.273764,239.365019 L227,239.365019 L155.091255,143 L108.630108,205.262653 Z"/>
    <rect id="d" width="261" height="382"/>
    <path id="f" d="M108.630108,205.262653 L83.1825095,167.091255 L35,239.365019 L107.273764,239.365019 L227,239.365019 L155.091255,143 L108.630108,205.262653 Z"/>
    <path id="g" d="M48,48 L506,48 L506,72 L48,72 L48,48 Z M48,108 L506,108 L506,132 L48,132 L48,108 Z M48,168 L506,168 L506,192 L48,192 L48,168 Z M48,228 L506,228 L506,252 L48,252 L48,228 Z M48,288 L376,288 L376,312 L48,312 L48,288 Z"/>
    <path id="i" d="M48,48 L506,48 L506,72 L48,72 L48,48 Z M48,108 L506,108 L506,132 L48,132 L48,108 Z M48,168 L506,168 L506,192 L48,192 L48,168 Z M48,228 L506,228 L506,252 L48,252 L48,228 Z M48,288 L506,288 L506,312 L48,312 L48,288 Z M48,348 L506,348 L506,372 L48,372 L48,348 Z M48,408 L506,408 L506,432 L48,432 L48,408 Z M48,468 L506,468 L506,492 L48,492 L48,468 Z M48,528 L506,528 L506,552 L48,552 L48,528 Z M48,588 L506,588 L506,612 L48,612 L48,588 Z M48,648 L506,648 L506,672 L48,672 L48,648 Z M48,708 L506,708 L506,732 L48,732 L48,708 Z M48,768 L506,768 L506,792 L48,792 L48,768 Z M48,828 L506,828 L506,852 L48,852 L48,828 Z M48,888 L376,888 L376,912 L48,912 L48,888 Z"/>
    <rect id="k" width="1140" height="589"/>
    <path id="m" d="M530.420912,320.131367 L485,252 L399,381 L528,381 L741.69697,381 L613.348485,209 L530.420912,320.131367 Z"/>
  </defs>
  <g fill="none" fill-rule="evenodd">
    <g transform="translate(70 48)">
      <g transform="translate(879 1035)">
        <mask id="b" fill="white">
          <use xlink:href="#a"/>
        </mask>
        <rect width="257" height="378" x="2" y="2" stroke="#FFFFFF" stroke-width="4"/>
        <path stroke="#FFFFFF" d="M-364 381L16 1M-345 381L35 1M-326 381L54 1M-307 381L73 1M-288 381L92 1M-269 381L111 1M-250 381L130 1M-231 381L149 1M-212 381L168 1M-193 381L187 1M-174 381L206 1M-155 381L225 1M-136 381L244 1M-117 381L263 1M-98 381L282 1M-79 381L301 1M-60 381L320 1M-41 381L339 1M-22 381L358 1M-3 381L377 1M16 381L396 1M35 381L415 1M54 381L434 1M73 381L453 1M92 381L472 1M111 381L491 1M130 381L510 1M149 381L529 1M168 381L548 1M187 381L567 1M206 381L586 1M225 381L605 1M244 381L624 1" mask="url(#b)"/>
        <g mask="url(#b)">
          <use fill="#0070F0" xlink:href="#c"/>
          <path stroke="#FFFFFF" stroke-width="4" d="M83.1825095,170.696806 L38.7370342,237.365019 L223.012114,237.365019 L155.091255,146.344172 L108.538077,208.730157 L83.1825095,170.696806 Z"/>
        </g>
      </g>
      <g transform="translate(586 1035)">
        <mask id="e" fill="white">
          <use xlink:href="#d"/>
        </mask>
        <rect width="257" height="378" x="2" y="2" stroke="#FFFFFF" stroke-width="4"/>
        <path stroke="#FFFFFF" d="M-364 381L16 1M-345 381L35 1M-326 381L54 1M-307 381L73 1M-288 381L92 1M-269 381L111 1M-250 381L130 1M-231 381L149 1M-212 381L168 1M-193 381L187 1M-174 381L206 1M-155 381L225 1M-136 381L244 1M-117 381L263 1M-98 381L282 1M-79 381L301 1M-60 381L320 1M-41 381L339 1M-22 381L358 1M-3 381L377 1M16 381L396 1M35 381L415 1M54 381L434 1M73 381L453 1M92 381L472 1M111 381L491 1M130 381L510 1M149 381L529 1M168 381L548 1M187 381L567 1M206 381L586 1M225 381L605 1M244 381L624 1" mask="url(#e)"/>
        <g mask="url(#e)">
          <use fill="#0070F0" xlink:href="#f"/>
          <path stroke="#FFFFFF" stroke-width="4" d="M83.1825095,170.696806 L38.7370342,237.365019 L223.012114,237.365019 L155.091255,146.344172 L108.538077,208.730157 L83.1825095,170.696806 Z"/>
        </g>
      </g>
      <g transform="translate(586 621)">
        <rect width="550" height="378" x="2" y="2" stroke="#FFFFFF" stroke-width="4"/>
        <mask id="h" fill="white">
          <use xlink:href="#g"/>
        </mask>
        <path stroke="#FFFFFF" d="M48.5,48.5 L48.5,71.5 L505.5,71.5 L505.5,48.5 L48.5,48.5 Z M48.5,108.5 L48.5,131.5 L505.5,131.5 L505.5,108.5 L48.5,108.5 Z M48.5,168.5 L48.5,191.5 L505.5,191.5 L505.5,168.5 L48.5,168.5 Z M48.5,228.5 L48.5,251.5 L505.5,251.5 L505.5,228.5 L48.5,228.5 Z M48.5,288.5 L48.5,311.5 L375.5,311.5 L375.5,288.5 L48.5,288.5 Z"/>
        <path stroke="#FFFFFF" d="M-343 381L37 1M-324 381L56 1M-305 381L75 1M-286 381L94 1M-267 381L113 1M-248 381L132 1M-229 381L151 1M-210 381L170 1M-191 381L189 1M-172 381L208 1M-153 381L227 1M-134 381L246 1M-115 381L265 1M-96 381L284 1M-77 381L303 1M-58 381L322 1M-39 381L341 1M-20 381L360 1M-1 381L379 1M18 381L398 1M37 381L417 1M56 381L436 1M75 381L455 1M94 381L474 1M113 381L493 1M132 381L512 1M151 381L531 1M170 381L550 1M189 381L569 1M208 381L588 1M227 381L607 1M246 381L626 1M265 381L645 1M284 381L664 1M303 381L683 1M322 381L702 1M341 381L721 1M360 381L740 1M379 381L759 1M398 381L778 1M417 381L797 1M436 381L816 1M455 381L835 1M474 381L854 1M493 381L873 1M512 381L892 1M531 381L911 1M550 381L930 1M-333 381L47 1M-314 381L66 1M-295 381L85 1M-276 381L104 1M-257 381L123 1M-238 381L142 1M-219 381L161 1M-200 381L180 1M-181 381L199 1M-162 381L218 1M-143 381L237 1M-124 381L256 1M-105 381L275 1M-86 381L294 1M-67 381L313 1M-48 381L332 1M-29 381L351 1M-10 381L370 1M9 381L389 1M28 381L408 1M47 381L427 1M66 381L446 1M85 381L465 1M104 381L484 1M123 381L503 1M142 381L522 1M161 381L541 1M180 381L560 1M199 381L579 1M218 381L598 1M237 381L617 1M256 381L636 1M275 381L655 1M294 381L674 1M313 381L693 1M332 381L712 1M351 381L731 1M370 381L750 1M389 381L769 1M408 381L788 1M427 381L807 1M446 381L826 1M465 381L845 1M484 381L864 1M503 381L883 1M522 381L902 1M541 381L921 1M560 381L940 1" mask="url(#h)"/>
      </g>
      <g transform="translate(0 621)">
        <rect width="550" height="999" x="2" y="2" stroke="#FFFFFF" stroke-width="4"/>
        <mask id="j" fill="white">
          <use xlink:href="#i"/>
        </mask>
        <path stroke="#FFFFFF" d="M48.5,48.5 L48.5,71.5 L505.5,71.5 L505.5,48.5 L48.5,48.5 Z M48.5,108.5 L48.5,131.5 L505.5,131.5 L505.5,108.5 L48.5,108.5 Z M48.5,168.5 L48.5,191.5 L505.5,191.5 L505.5,168.5 L48.5,168.5 Z M48.5,228.5 L48.5,251.5 L505.5,251.5 L505.5,228.5 L48.5,228.5 Z M48.5,288.5 L48.5,311.5 L505.5,311.5 L505.5,288.5 L48.5,288.5 Z M48.5,348.5 L48.5,371.5 L505.5,371.5 L505.5,348.5 L48.5,348.5 Z M48.5,408.5 L48.5,431.5 L505.5,431.5 L505.5,408.5 L48.5,408.5 Z M48.5,468.5 L48.5,491.5 L505.5,491.5 L505.5,468.5 L48.5,468.5 Z M48.5,528.5 L48.5,551.5 L505.5,551.5 L505.5,528.5 L48.5,528.5 Z M48.5,588.5 L48.5,611.5 L505.5,611.5 L505.5,588.5 L48.5,588.5 Z M48.5,648.5 L48.5,671.5 L505.5,671.5 L505.5,648.5 L48.5,648.5 Z M48.5,708.5 L48.5,731.5 L505.5,731.5 L505.5,708.5 L48.5,708.5 Z M48.5,768.5 L48.5,791.5 L505.5,791.5 L505.5,768.5 L48.5,768.5 Z M48.5,828.5 L48.5,851.5 L505.5,851.5 L505.5,828.5 L48.5,828.5 Z M48.5,888.5 L48.5,911.5 L375.5,911.5 L375.5,888.5 L48.5,888.5 Z"/>
        <path stroke="#FFFFFF" d="M-795.922092 899.922092L56 48M-785.922092 899.922092L66 48M-775.922092 899.922092L76 48M-765.922092 899.922092L86 48M-755.922092 899.922092L96 48M-745.922092 899.922092L106 48M-735.922092 899.922092L116 48M-725.922092 899.922092L126 48M-715.922092 899.922092L136 48M-705.922092 899.922092L146 48M-695.922092 899.922092L156 48M-685.922092 899.922092L166 48M-675.922092 899.922092L176 48M-665.922092 899.922092L186 48M-655.922092 899.922092L196 48M-645.922092 899.922092L206 48M-635.922092 899.922092L216 48M-625.922092 899.922092L226 48M-615.922092 899.922092L236 48M-605.922092 899.922092L246 48M-595.922092 899.922092L256 48M-585.922092 899.922092L266 48M-575.922092 899.922092L276 48M-565.922092 899.922092L286 48M-555.922092 899.922092L296 48M-545.922092 899.922092L306 48M-535.922092 899.922092L316 48M-525.922092 899.922092L326 48M-515.922092 899.922092L336 48M-505.922092 899.922092L346 48M-495.922092 899.922092L356 48M-485.922092 899.922092L366 48M-475.922092 899.922092L376 48M-465.922092 899.922092L386 48M-455.922092 899.922092L396 48M-445.922092 899.922092L406 48M-435.922092 899.922092L416 48M-425.922092 899.922092L426 48M-415.922092 899.922092L436 48M-405.922092 899.922092L446 48M-395.922092 899.922092L456 48M-385.922092 899.922092L466 48M-375.922092 899.922092L476 48M-365.922092 899.922092L486 48M-355.922092 899.922092L496 48M-345.922092 899.922092L506 48M-335.922092 899.922092L516 48M-325.922092 899.922092L526 48M-315.922092 899.922092L536 48M-305.922092 899.922092L546 48M-295.922092 899.922092L556 48M-285.922092 899.922092L566 48M-275.922092 899.922092L576 48M-265.922092 899.922092L586 48M-255.922092 899.922092L596 48M-245.922092 899.922092L606 48M-235.922092 899.922092L616 48M-225.922092 899.922092L626 48M-215.922092 899.922092L636 48M-205.922092 899.922092L646 48M-195.922092 899.922092L656 48M-185.922092 899.922092L666 48M-175.922092 899.922092L676 48M-165.922092 899.922092L686 48M-155.922092 899.922092L696 48M-145.922092 899.922092L706 48M-135.922092 899.922092L716 48M-125.922092 899.922092L726 48M-115.922092 899.922092L736 48M-105.922092 899.922092L746 48M-95.9220915 899.922092L756 48M-85.9220915 899.922092L766 48M-75.9220915 899.922092L776 48M-65.9220915 899.922092L786 48M-55.9220915 899.922092L796 48M-45.9220915 899.922092L806 48M-35.9220915 899.922092L816 48M-25.9220915 899.922092L826 48M-15.9220915 899.922092L836 48M-5.92209151 899.922092L846 48M4.07790849 899.922092L856 48M14.0779085 899.922092L866 48M24.0779085 899.922092L876 48M34.0779085 899.922092L886 48M44.0779085 899.922092L896 48M48.5 905.5L906 48M51.9986979 912.001302L916 48M62.4976838 911.502316L926 48M71.9986979 912.001302L936 48M80.4976892 913.502311L946 48M92.499421 911.500579L956 48M102.497684 911.502316L966 48M111.497687 912.502313L976 48M122.490735 911.509265L986 48M131.998698 912.001302L996 48M142.497684 911.502316L1006 48M149.992927 914.007073L1016 48M162.494789 911.505211L1026 48M171.998698 912.001302L1036 48M182.499421 911.500579L1046 48M192.494789 911.505211L1056 48M201.998698 912.001302L1066 48M212.499421 911.500579L1076 48M222.499421 911.500579L1086 48M232.499421 911.500579L1096 48M242.499421 911.500579L1106 48M252.497684 911.502316L1116 48M261.998698 912.001302L1126 48M272.499421 911.500579L1136 48M282.499421 911.500579L1146 48M291.999855 912.000145L1156 48M302.499421 911.500579L1166 48M312.499421 911.500579L1176 48M321.999855 912.000145L1186 48M332.5 911.5L1196 48M342.5 911.5L1206 48M351.999855 912.000145L1216 48M361.999855 912.000145L1226 48M371.497687 912.502313L1236 48M394.077908 899.922092L1246 48M404.077908 899.922092L1256 48M414.077908 899.922092L1266 48M424.077908 899.922092L1276 48M434.077908 899.922092L1286 48M444.077908 899.922092L1296 48" mask="url(#j)"/>
      </g>
      <mask id="l" fill="white">
        <use xlink:href="#k"/>
      </mask>
      <rect width="1136" height="585" x="2" y="2" stroke="#FFFFFF" stroke-width="4"/>
      <path stroke="#FFFFFF" d="M-577.178757 589.178757L11 1M-557.178757 589.178757L31 1M-537.178757 589.178757L51 1M-517.178757 589.178757L71 1M-497.178757 589.178757L91 1M-477.178757 589.178757L111 1M-457.178757 589.178757L131 1M-437.178757 589.178757L151 1M-417.178757 589.178757L171 1M-397.178757 589.178757L191 1M-377.178757 589.178757L211 1M-357.178757 589.178757L231 1M-337.178757 589.178757L251 1M-317.178757 589.178757L271 1M-297.178757 589.178757L291 1M-277.178757 589.178757L311 1M-257.178757 589.178757L331 1M-237.178757 589.178757L351 1M-217.178757 589.178757L371 1M-197.178757 589.178757L391 1M-177.178757 589.178757L411 1M-157.178757 589.178757L431 1M-137.178757 589.178757L451 1M-117.178757 589.178757L471 1M-97.1787568 589.178757L491 1M-77.1787568 589.178757L511 1M-57.1787568 589.178757L531 1M-37.1787568 589.178757L551 1M-17.1787568 589.178757L571 1M2.82124316 589.178757L591 1M22.8212432 589.178757L611 1M42.8212432 589.178757L631 1M62.8212432 589.178757L651 1M82.8212432 589.178757L671 1M102.821243 589.178757L691 1M122.821243 589.178757L711 1M142.821243 589.178757L731 1M162.821243 589.178757L751 1M182.821243 589.178757L771 1M202.821243 589.178757L791 1M222.821243 589.178757L811 1M242.821243 589.178757L831 1M262.821243 589.178757L851 1M282.821243 589.178757L871 1M302.821243 589.178757L891 1M322.821243 589.178757L911 1M342.821243 589.178757L931 1M362.821243 589.178757L951 1M382.821243 589.178757L971 1M402.821243 589.178757L991 1M422.821243 589.178757L1011 1M442.821243 589.178757L1031 1M462.821243 589.178757L1051 1M482.821243 589.178757L1071 1M502.821243 589.178757L1091 1M522.821243 589.178757L1111 1M542.821243 589.178757L1131 1M562.821243 589.178757L1151 1M582.821243 589.178757L1171 1M602.821243 589.178757L1191 1M622.821243 589.178757L1211 1M642.821243 589.178757L1231 1M662.821243 589.178757L1251 1M682.821243 589.178757L1271 1M702.821243 589.178757L1291 1M722.821243 589.178757L1311 1M742.821243 589.178757L1331 1M762.821243 589.178757L1351 1M782.821243 589.178757L1371 1M802.821243 589.178757L1391 1M822.821243 589.178757L1411 1M842.821243 589.178757L1431 1M862.821243 589.178757L1451 1M882.821243 589.178757L1471 1M902.821243 589.178757L1491 1M922.821243 589.178757L1511 1M942.821243 589.178757L1531 1M962.821243 589.178757L1551 1M982.821243 589.178757L1571 1M1002.82124 589.178757L1591 1M1022.82124 589.178757L1611 1M1042.82124 589.178757L1631 1M1062.82124 589.178757L1651 1M1082.82124 589.178757L1671 1M1102.82124 589.178757L1691 1M1122.82124 589.178757L1711 1" mask="url(#l)"/>
      <g mask="url(#l)">
        <use fill="#0070F0" xlink:href="#m"/>
        <path stroke="#FFFFFF" stroke-width="4" d="M485,255.605551 L402.737034,379 L737.709084,379 L613.348485,212.344172 L530.32888,323.598871 L485,255.605551 Z"/>
      </g>
    </g>
    <g stroke="#FFFFFF" stroke-width="2" opacity=".3" transform="translate(70 48)">
      <rect width="259" height="173" x="1" y="1"/>
      <rect width="259" height="173" x="1" y="622"/>
      <rect width="259" height="173" x="587" y="1"/>
      <rect width="259" height="173" x="587" y="622"/>
      <rect width="259" height="173" x="1" y="208"/>
      <rect width="259" height="173" x="1" y="829"/>
      <rect width="259" height="173" x="1" y="1243"/>
      <rect width="259" height="173" x="587" y="208"/>
      <rect width="259" height="173" x="587" y="829"/>
      <rect width="259" height="173" x="587" y="1243"/>
      <rect width="259" height="173" x="1" y="415"/>
      <rect width="259" height="173" x="1" y="1036"/>
      <rect width="259" height="173" x="1" y="1450"/>
      <rect width="259" height="173" x="587" y="415"/>
      <rect width="259" height="173" x="587" y="1036"/>
      <rect width="259" height="173" x="587" y="1450"/>
      <rect width="259" height="173" x="294" y="1"/>
      <rect width="259" height="173" x="294" y="622"/>
      <rect width="259" height="173" x="880" y="1"/>
      <rect width="259" height="173" x="880" y="622"/>
      <rect width="259" height="173" x="294" y="208"/>
      <rect width="259" height="173" x="294" y="829"/>
      <rect width="259" height="173" x="294" y="1243"/>
      <rect width="259" height="173" x="880" y="208"/>
      <rect width="259" height="173" x="880" y="829"/>
      <rect width="259" height="173" x="880" y="1243"/>
      <rect width="259" height="173" x="294" y="415"/>
      <rect width="259" height="173" x="294" y="1036"/>
      <rect width="259" height="173" x="294" y="1450"/>
      <rect width="259" height="173" x="880" y="415"/>
      <rect width="259" height="173" x="880" y="1036"/>
      <rect width="259" height="173" x="880" y="1450"/>
    </g>
  </g>
</svg>
