<svg xmlns="http://www.w3.org/2000/svg" width="1280" height="1752" viewBox="0 0 1280 1752" xmlns:xlink="http://www.w3.org/1999/xlink" style="background:#0070f0">
  <defs>
    <rect id="a" width="261" height="382"/>
    <path id="c" d="M108.630108,205.262653 L83.1825095,167.091255 L35,239.365019 L107.273764,239.365019 L227,239.365019 L155.091255,143 L108.630108,205.262653 Z"/>
    <rect id="d" width="261" height="382"/>
    <path id="f" d="M108.630108,205.262653 L83.1825095,167.091255 L35,239.365019 L107.273764,239.365019 L227,239.365019 L155.091255,143 L108.630108,205.262653 Z"/>
    <rect id="g" width="261" height="382"/>
    <path id="i" d="M108.630108,205.262653 L83.1825095,167.091255 L35,239.365019 L107.273764,239.365019 L227,239.365019 L155.091255,143 L108.630108,205.262653 Z"/>
    <path id="j" d="M48,48 L213,48 L213,72 L48,72 L48,48 Z M48,108 L213,108 L213,132 L48,132 L48,108 Z M48,168 L213,168 L213,192 L48,192 L48,168 Z M48,228 L213,228 L213,252 L48,252 L48,228 Z M48,288 L213,288 L213,312 L48,312 L48,288 Z M48,348 L213,348 L213,372 L48,372 L48,348 Z M48,408 L213,408 L213,432 L48,432 L48,408 Z M48,468 L166,468 L166,492 L48,492 L48,468 Z"/>
    <rect id="l" width="554" height="382"/>
    <path id="n" d="M246.857909,210.286863 L212,158 L146,257 L245,257 L409,257 L310.5,125 L246.857909,210.286863 Z"/>
    <path id="o" d="M48,48 L506,48 L506,72 L48,72 L48,48 Z M48,108 L506,108 L506,132 L48,132 L48,108 Z M48,168 L506,168 L506,192 L48,192 L48,168 Z M48,228 L506,228 L506,252 L48,252 L48,228 Z M48,288 L376,288 L376,312 L48,312 L48,288 Z"/>
    <path id="q" d="M48,48 L506,48 L506,72 L48,72 L48,48 Z M48,108 L506,108 L506,132 L48,132 L48,108 Z M48,168 L506,168 L506,192 L48,192 L48,168 Z M48,228 L506,228 L506,252 L48,252 L48,228 Z M48,288 L376,288 L376,312 L48,312 L48,288 Z"/>
  </defs>
  <g fill="none" fill-rule="evenodd">
    <g transform="translate(70 48)">
      <g transform="translate(293 621)">
        <mask id="b" fill="white">
          <use xlink:href="#a"/>
        </mask>
        <rect width="257" height="378" x="2" y="2" stroke="#FFFFFF" stroke-width="4"/>
        <path stroke="#FFFFFF" d="M-364 381L16 1M-345 381L35 1M-326 381L54 1M-307 381L73 1M-288 381L92 1M-269 381L111 1M-250 381L130 1M-231 381L149 1M-212 381L168 1M-193 381L187 1M-174 381L206 1M-155 381L225 1M-136 381L244 1M-117 381L263 1M-98 381L282 1M-79 381L301 1M-60 381L320 1M-41 381L339 1M-22 381L358 1M-3 381L377 1M16 381L396 1M35 381L415 1M54 381L434 1M73 381L453 1M92 381L472 1M111 381L491 1M130 381L510 1M149 381L529 1M168 381L548 1M187 381L567 1M206 381L586 1M225 381L605 1M244 381L624 1" mask="url(#b)"/>
        <g mask="url(#b)">
          <use fill="#0070F0" xlink:href="#c"/>
          <path stroke="#FFFFFF" stroke-width="4" d="M83.1825095,170.696806 L38.7370342,237.365019 L223.012114,237.365019 L155.091255,146.344172 L108.538077,208.730157 L83.1825095,170.696806 Z"/>
        </g>
      </g>
      <g transform="translate(586 621)">
        <mask id="e" fill="white">
          <use xlink:href="#d"/>
        </mask>
        <rect width="257" height="378" x="2" y="2" stroke="#FFFFFF" stroke-width="4"/>
        <path stroke="#FFFFFF" d="M-364 381L16 1M-345 381L35 1M-326 381L54 1M-307 381L73 1M-288 381L92 1M-269 381L111 1M-250 381L130 1M-231 381L149 1M-212 381L168 1M-193 381L187 1M-174 381L206 1M-155 381L225 1M-136 381L244 1M-117 381L263 1M-98 381L282 1M-79 381L301 1M-60 381L320 1M-41 381L339 1M-22 381L358 1M-3 381L377 1M16 381L396 1M35 381L415 1M54 381L434 1M73 381L453 1M92 381L472 1M111 381L491 1M130 381L510 1M149 381L529 1M168 381L548 1M187 381L567 1M206 381L586 1M225 381L605 1M244 381L624 1" mask="url(#e)"/>
        <g mask="url(#e)">
          <use fill="#0070F0" xlink:href="#f"/>
          <path stroke="#FFFFFF" stroke-width="4" d="M83.1825095,170.696806 L38.7370342,237.365019 L223.012114,237.365019 L155.091255,146.344172 L108.538077,208.730157 L83.1825095,170.696806 Z"/>
        </g>
      </g>
      <g transform="translate(586 1035)">
        <mask id="h" fill="white">
          <use xlink:href="#g"/>
        </mask>
        <rect width="257" height="378" x="2" y="2" stroke="#FFFFFF" stroke-width="4"/>
        <path stroke="#FFFFFF" d="M-364 381L16 1M-345 381L35 1M-326 381L54 1M-307 381L73 1M-288 381L92 1M-269 381L111 1M-250 381L130 1M-231 381L149 1M-212 381L168 1M-193 381L187 1M-174 381L206 1M-155 381L225 1M-136 381L244 1M-117 381L263 1M-98 381L282 1M-79 381L301 1M-60 381L320 1M-41 381L339 1M-22 381L358 1M-3 381L377 1M16 381L396 1M35 381L415 1M54 381L434 1M73 381L453 1M92 381L472 1M111 381L491 1M130 381L510 1M149 381L529 1M168 381L548 1M187 381L567 1M206 381L586 1M225 381L605 1M244 381L624 1" mask="url(#h)"/>
        <g mask="url(#h)">
          <use fill="#0070F0" xlink:href="#i"/>
          <path stroke="#FFFFFF" stroke-width="4" d="M83.1825095,170.696806 L38.7370342,237.365019 L223.012114,237.365019 L155.091255,146.344172 L108.538077,208.730157 L83.1825095,170.696806 Z"/>
        </g>
      </g>
      <g transform="translate(879 621)">
        <rect width="257" height="585" x="2" y="2" stroke="#FFFFFF" stroke-width="4"/>
        <mask id="k" fill="white">
          <use xlink:href="#j"/>
        </mask>
        <path stroke="#FFFFFF" d="M48.5,48.5 L48.5,71.5 L212.5,71.5 L212.5,48.5 L48.5,48.5 Z M48.5,108.5 L48.5,131.5 L212.5,131.5 L212.5,108.5 L48.5,108.5 Z M48.5,168.5 L48.5,191.5 L212.5,191.5 L212.5,168.5 L48.5,168.5 Z M48.5,228.5 L48.5,251.5 L212.5,251.5 L212.5,228.5 L48.5,228.5 Z M48.5,288.5 L48.5,311.5 L212.5,311.5 L212.5,288.5 L48.5,288.5 Z M48.5,348.5 L48.5,371.5 L212.5,371.5 L212.5,348.5 L48.5,348.5 Z M48.5,408.5 L48.5,431.5 L212.5,431.5 L212.5,408.5 L48.5,408.5 Z M48.5,468.5 L48.5,491.5 L165.5,491.5 L165.5,468.5 L48.5,468.5 Z"/>
        <path stroke="#FFFFFF" d="M-419 492L25 48M-397 492L47 48M-375 492L69 48M-352 492L92 48M-330 492L114 48M-308 492L136 48M-286 492L158 48M-264 492L180 48M-241 492L203 48M-219 492L225 48M-197 492L247 48M-175 492L269 48M-153 492L291 48M-131 492L313 48M-108 492L336 48M-86 492L358 48M-64 492L380 48M-42 492L402 48M-20 492L424 48M3 492L447 48M25 492L469 48M47 492L491 48M69 492L513 48M91 492L535 48M114 492L558 48M136 492L580 48M158 492L602 48M180 492L624 48M202 492L646 48M225 492L669 48M-407 492L37 48M-385 492L59 48M-363 492L81 48M-341 492L103 48M-319 492L125 48M-296 492L148 48M-274 492L170 48M-252 492L192 48M-230 492L214 48M-208 492L236 48M-185 492L259 48M-163 492L281 48M-141 492L303 48M-119 492L325 48M-97 492L347 48M-74 492L370 48M-52 492L392 48M-30 492L414 48M-8 492L436 48M14 492L458 48M36 492L480 48M59 492L503 48M81 492L525 48M103 492L547 48M125 492L569 48M147 492L591 48M170 492L614 48M192 492L636 48M214 492L658 48M236 492L680 48" mask="url(#k)"/>
      </g>
      <g transform="translate(586 207)">
        <mask id="m" fill="white">
          <use xlink:href="#l"/>
        </mask>
        <rect width="550" height="378" x="2" y="2" stroke="#FFFFFF" stroke-width="4"/>
        <path stroke="#FFFFFF" d="M-359 381L21 1M-340 381L40 1M-321 381L59 1M-302 381L78 1M-283 381L97 1M-264 381L116 1M-245 381L135 1M-226 381L154 1M-207 381L173 1M-188 381L192 1M-169 381L211 1M-150 381L230 1M-131 381L249 1M-112 381L268 1M-93 381L287 1M-74 381L306 1M-55 381L325 1M-36 381L344 1M-17 381L363 1M2 381L382 1M21 381L401 1M40 381L420 1M59 381L439 1M78 381L458 1M97 381L477 1M116 381L496 1M135 381L515 1M154 381L534 1M173 381L553 1M192 381L572 1M211 381L591 1M230 381L610 1M249 381L629 1M268 381L648 1M287 381L667 1M306 381L686 1M325 381L705 1M344 381L724 1M363 381L743 1M382 381L762 1M401 381L781 1M420 381L800 1M439 381L819 1M458 381L838 1M477 381L857 1M496 381L876 1M515 381L895 1M534 381L914 1" mask="url(#m)"/>
        <g mask="url(#m)">
          <use fill="#0070F0" xlink:href="#n"/>
          <path stroke="#FFFFFF" stroke-width="4" d="M212,161.605551 L149.737034,255 L405.012114,255 L310.5,128.344172 L246.765877,213.754367 L212,161.605551 Z"/>
        </g>
      </g>
      <g transform="translate(0 207)">
        <rect width="550" height="378" x="2" y="2" stroke="#FFFFFF" stroke-width="4"/>
        <mask id="p" fill="white">
          <use xlink:href="#o"/>
        </mask>
        <path stroke="#FFFFFF" d="M48.5,48.5 L48.5,71.5 L505.5,71.5 L505.5,48.5 L48.5,48.5 Z M48.5,108.5 L48.5,131.5 L505.5,131.5 L505.5,108.5 L48.5,108.5 Z M48.5,168.5 L48.5,191.5 L505.5,191.5 L505.5,168.5 L48.5,168.5 Z M48.5,228.5 L48.5,251.5 L505.5,251.5 L505.5,228.5 L48.5,228.5 Z M48.5,288.5 L48.5,311.5 L375.5,311.5 L375.5,288.5 L48.5,288.5 Z"/>
        <path stroke="#FFFFFF" d="M-343 381L37 1M-324 381L56 1M-305 381L75 1M-286 381L94 1M-267 381L113 1M-248 381L132 1M-229 381L151 1M-210 381L170 1M-191 381L189 1M-172 381L208 1M-153 381L227 1M-134 381L246 1M-115 381L265 1M-96 381L284 1M-77 381L303 1M-58 381L322 1M-39 381L341 1M-20 381L360 1M-1 381L379 1M18 381L398 1M37 381L417 1M56 381L436 1M75 381L455 1M94 381L474 1M113 381L493 1M132 381L512 1M151 381L531 1M170 381L550 1M189 381L569 1M208 381L588 1M227 381L607 1M246 381L626 1M265 381L645 1M284 381L664 1M303 381L683 1M322 381L702 1M341 381L721 1M360 381L740 1M379 381L759 1M398 381L778 1M417 381L797 1M436 381L816 1M455 381L835 1M474 381L854 1M493 381L873 1M512 381L892 1M531 381L911 1M550 381L930 1M-333 381L47 1M-314 381L66 1M-295 381L85 1M-276 381L104 1M-257 381L123 1M-238 381L142 1M-219 381L161 1M-200 381L180 1M-181 381L199 1M-162 381L218 1M-143 381L237 1M-124 381L256 1M-105 381L275 1M-86 381L294 1M-67 381L313 1M-48 381L332 1M-29 381L351 1M-10 381L370 1M9 381L389 1M28 381L408 1M47 381L427 1M66 381L446 1M85 381L465 1M104 381L484 1M123 381L503 1M142 381L522 1M161 381L541 1M180 381L560 1M199 381L579 1M218 381L598 1M237 381L617 1M256 381L636 1M275 381L655 1M294 381L674 1M313 381L693 1M332 381L712 1M351 381L731 1M370 381L750 1M389 381L769 1M408 381L788 1M427 381L807 1M446 381L826 1M465 381L845 1M484 381L864 1M503 381L883 1M522 381L902 1M541 381L921 1M560 381L940 1" mask="url(#p)"/>
      </g>
      <g transform="translate(0 1035)">
        <rect width="550" height="378" x="2" y="2" stroke="#FFFFFF" stroke-width="4"/>
        <mask id="r" fill="white">
          <use xlink:href="#q"/>
        </mask>
        <path stroke="#FFFFFF" d="M48.5,48.5 L48.5,71.5 L505.5,71.5 L505.5,48.5 L48.5,48.5 Z M48.5,108.5 L48.5,131.5 L505.5,131.5 L505.5,108.5 L48.5,108.5 Z M48.5,168.5 L48.5,191.5 L505.5,191.5 L505.5,168.5 L48.5,168.5 Z M48.5,228.5 L48.5,251.5 L505.5,251.5 L505.5,228.5 L48.5,228.5 Z M48.5,288.5 L48.5,311.5 L375.5,311.5 L375.5,288.5 L48.5,288.5 Z"/>
        <path stroke="#FFFFFF" d="M-343 381L37 1M-324 381L56 1M-305 381L75 1M-286 381L94 1M-267 381L113 1M-248 381L132 1M-229 381L151 1M-210 381L170 1M-191 381L189 1M-172 381L208 1M-153 381L227 1M-134 381L246 1M-115 381L265 1M-96 381L284 1M-77 381L303 1M-58 381L322 1M-39 381L341 1M-20 381L360 1M-1 381L379 1M18 381L398 1M37 381L417 1M56 381L436 1M75 381L455 1M94 381L474 1M113 381L493 1M132 381L512 1M151 381L531 1M170 381L550 1M189 381L569 1M208 381L588 1M227 381L607 1M246 381L626 1M265 381L645 1M284 381L664 1M303 381L683 1M322 381L702 1M341 381L721 1M360 381L740 1M379 381L759 1M398 381L778 1M417 381L797 1M436 381L816 1M455 381L835 1M474 381L854 1M493 381L873 1M512 381L892 1M531 381L911 1M550 381L930 1M-333 381L47 1M-314 381L66 1M-295 381L85 1M-276 381L104 1M-257 381L123 1M-238 381L142 1M-219 381L161 1M-200 381L180 1M-181 381L199 1M-162 381L218 1M-143 381L237 1M-124 381L256 1M-105 381L275 1M-86 381L294 1M-67 381L313 1M-48 381L332 1M-29 381L351 1M-10 381L370 1M9 381L389 1M28 381L408 1M47 381L427 1M66 381L446 1M85 381L465 1M104 381L484 1M123 381L503 1M142 381L522 1M161 381L541 1M180 381L560 1M199 381L579 1M218 381L598 1M237 381L617 1M256 381L636 1M275 381L655 1M294 381L674 1M313 381L693 1M332 381L712 1M351 381L731 1M370 381L750 1M389 381L769 1M408 381L788 1M427 381L807 1M446 381L826 1M465 381L845 1M484 381L864 1M503 381L883 1M522 381L902 1M541 381L921 1M560 381L940 1" mask="url(#r)"/>
      </g>
      <rect width="550" height="95" x="2" y="2" stroke="#FFFFFF" stroke-width="4"/>
    </g>
    <g stroke="#FFFFFF" stroke-width="2" opacity=".3" transform="translate(70 48)">
      <rect width="259" height="173" x="1" y="1"/>
      <rect width="259" height="173" x="1" y="622"/>
      <rect width="259" height="173" x="587" y="1"/>
      <rect width="259" height="173" x="587" y="622"/>
      <rect width="259" height="173" x="1" y="208"/>
      <rect width="259" height="173" x="1" y="829"/>
      <rect width="259" height="173" x="1" y="1243"/>
      <rect width="259" height="173" x="587" y="208"/>
      <rect width="259" height="173" x="587" y="829"/>
      <rect width="259" height="173" x="587" y="1243"/>
      <rect width="259" height="173" x="1" y="415"/>
      <rect width="259" height="173" x="1" y="1036"/>
      <rect width="259" height="173" x="1" y="1450"/>
      <rect width="259" height="173" x="587" y="415"/>
      <rect width="259" height="173" x="587" y="1036"/>
      <rect width="259" height="173" x="587" y="1450"/>
      <rect width="259" height="173" x="294" y="1"/>
      <rect width="259" height="173" x="294" y="622"/>
      <rect width="259" height="173" x="880" y="1"/>
      <rect width="259" height="173" x="880" y="622"/>
      <rect width="259" height="173" x="294" y="208"/>
      <rect width="259" height="173" x="294" y="829"/>
      <rect width="259" height="173" x="294" y="1243"/>
      <rect width="259" height="173" x="880" y="208"/>
      <rect width="259" height="173" x="880" y="829"/>
      <rect width="259" height="173" x="880" y="1243"/>
      <rect width="259" height="173" x="294" y="415"/>
      <rect width="259" height="173" x="294" y="1036"/>
      <rect width="259" height="173" x="294" y="1450"/>
      <rect width="259" height="173" x="880" y="415"/>
      <rect width="259" height="173" x="880" y="1036"/>
      <rect width="259" height="173" x="880" y="1450"/>
    </g>
  </g>
</svg>
