<svg xmlns="http://www.w3.org/2000/svg" width="1280" height="1752" viewBox="0 0 1280 1752" xmlns:xlink="http://www.w3.org/1999/xlink" style="background:#0070f0">
  <defs>
    <path id="a" d="M48,108 L506,108 L506,132 L48,132 L48,108 Z M48,48 L506,48 L506,72 L48,72 L48,48 Z"/>
    <path id="c" d="M48,108 L506,108 L506,132 L48,132 L48,108 Z M48,48 L506,48 L506,72 L48,72 L48,48 Z"/>
    <rect id="e" width="261" height="382"/>
    <path id="g" d="M108.630108,205.262653 L83.1825095,167.091255 L35,239.365019 L107.273764,239.365019 L227,239.365019 L155.091255,143 L108.630108,205.262653 Z"/>
    <path id="h" d="M48,228 L506,228 L506,252 L48,252 L48,228 Z M48,168 L506,168 L506,192 L48,192 L48,168 Z M48,108 L506,108 L506,132 L48,132 L48,108 Z M48,48 L506,48 L506,72 L48,72 L48,48 Z M48,288 L506,288 L506,312 L48,312 L48,288 Z M48,348 L506,348 L506,372 L48,372 L48,348 Z M48,408 L506,408 L506,432 L48,432 L48,408 Z M48,468 L376,468 L376,492 L48,492 L48,468 Z"/>
    <rect id="j" width="554" height="1003"/>
    <path id="l" d="M236.420912,527.131367 L191,459 L105,588 L234,588 L447.69697,588 L319.348485,416 L236.420912,527.131367 Z"/>
  </defs>
  <g fill="none" fill-rule="evenodd">
    <g transform="translate(70 48)">
      <rect width="843" height="95" x="2" y="2" stroke="#FFFFFF" stroke-width="4"/>
      <g transform="translate(0 1449)">
        <rect width="550" height="171" x="2" y="2" stroke="#FFFFFF" stroke-width="4"/>
        <mask id="b" fill="white">
          <use xlink:href="#a"/>
        </mask>
        <path stroke="#FFFFFF" d="M48.5,108.5 L48.5,131.5 L505.5,131.5 L505.5,108.5 L48.5,108.5 Z M48.5,48.5 L48.5,71.5 L505.5,71.5 L505.5,48.5 L48.5,48.5 Z"/>
        <path stroke="#FFFFFF" d="M-343 381L37 1M-324 381L56 1M-305 381L75 1M-286 381L94 1M-267 381L113 1M-248 381L132 1M-229 381L151 1M-210 381L170 1M-191 381L189 1M-172 381L208 1M-153 381L227 1M-134 381L246 1M-115 381L265 1M-96 381L284 1M-77 381L303 1M-58 381L322 1M-39 381L341 1M-20 381L360 1M-1 381L379 1M18 381L398 1M37 381L417 1M56 381L436 1M75 381L455 1M94 381L474 1M113 381L493 1M132 381L512 1M151 381L531 1M170 381L550 1M189 381L569 1M208 381L588 1M227 381L607 1M246 381L626 1M265 381L645 1M284 381L664 1M303 381L683 1M322 381L702 1M341 381L721 1M360 381L740 1M379 381L759 1M398 381L778 1M417 381L797 1M436 381L816 1M455 381L835 1M474 381L854 1M493 381L873 1M512 381L892 1M531 381L911 1M550 381L930 1M560 381L940 1M570 381L950 1M580 381L960 1M590 381L970 1M600 381L980 1M610 381L990 1M620 381L1000 1M630 381L1010 1M640 381L1020 1M650 381L1030 1M660 381L1040 1M-333 381L47 1M-314 381L66 1M-295 381L85 1M-276 381L104 1M-257 381L123 1M-238 381L142 1M-219 381L161 1M-200 381L180 1M-181 381L199 1M-162 381L218 1M-143 381L237 1M-124 381L256 1M-105 381L275 1M-86 381L294 1M-67 381L313 1M-48 381L332 1M-29 381L351 1M-10 381L370 1M9 381L389 1M28 381L408 1M47 381L427 1M66 381L446 1M85 381L465 1M104 381L484 1M123 381L503 1M142 381L522 1M161 381L541 1M180 381L560 1M199 381L579 1M218 381L598 1M237 381L617 1M256 381L636 1M275 381L655 1M294 381L674 1M313 381L693 1M332 381L712 1M351 381L731 1M370 381L750 1M389 381L769 1M408 381L788 1M427 381L807 1M446 381L826 1M465 381L845 1M484 381L864 1M503 381L883 1M522 381L902 1M541 381L921 1" mask="url(#b)"/>
      </g>
      <g transform="translate(586 1449)">
        <rect width="550" height="171" x="2" y="2" stroke="#FFFFFF" stroke-width="4"/>
        <mask id="d" fill="white">
          <use xlink:href="#c"/>
        </mask>
        <path stroke="#FFFFFF" d="M48.5,108.5 L48.5,131.5 L505.5,131.5 L505.5,108.5 L48.5,108.5 Z M48.5,48.5 L48.5,71.5 L505.5,71.5 L505.5,48.5 L48.5,48.5 Z"/>
        <path stroke="#FFFFFF" d="M-343 381L37 1M-324 381L56 1M-305 381L75 1M-286 381L94 1M-267 381L113 1M-248 381L132 1M-229 381L151 1M-210 381L170 1M-191 381L189 1M-172 381L208 1M-153 381L227 1M-134 381L246 1M-115 381L265 1M-96 381L284 1M-77 381L303 1M-58 381L322 1M-39 381L341 1M-20 381L360 1M-1 381L379 1M18 381L398 1M37 381L417 1M56 381L436 1M75 381L455 1M94 381L474 1M113 381L493 1M132 381L512 1M151 381L531 1M170 381L550 1M189 381L569 1M208 381L588 1M227 381L607 1M246 381L626 1M265 381L645 1M284 381L664 1M303 381L683 1M322 381L702 1M341 381L721 1M360 381L740 1M379 381L759 1M398 381L778 1M417 381L797 1M436 381L816 1M455 381L835 1M474 381L854 1M493 381L873 1M512 381L892 1M531 381L911 1M550 381L930 1M560 381L940 1M570 381L950 1M580 381L960 1M590 381L970 1M600 381L980 1M610 381L990 1M620 381L1000 1M-333 381L47 1M-314 381L66 1M-295 381L85 1M-276 381L104 1M-257 381L123 1M-238 381L142 1M-219 381L161 1M-200 381L180 1M-181 381L199 1M-162 381L218 1M-143 381L237 1M-124 381L256 1M-105 381L275 1M-86 381L294 1M-67 381L313 1M-48 381L332 1M-29 381L351 1M-10 381L370 1M9 381L389 1M28 381L408 1M47 381L427 1M66 381L446 1M85 381L465 1M104 381L484 1M123 381L503 1M142 381L522 1M161 381L541 1M180 381L560 1M199 381L579 1M218 381L598 1M237 381L617 1M256 381L636 1M275 381L655 1M294 381L674 1M313 381L693 1M332 381L712 1M351 381L731 1M370 381L750 1M389 381L769 1M408 381L788 1M427 381L807 1M446 381L826 1M465 381L845 1M484 381L864 1M503 381L883 1M522 381L902 1M541 381L921 1" mask="url(#d)"/>
      </g>
      <g transform="translate(586 1035)">
        <mask id="f" fill="white">
          <use xlink:href="#e"/>
        </mask>
        <rect width="257" height="378" x="2" y="2" stroke="#FFFFFF" stroke-width="4"/>
        <path stroke="#FFFFFF" d="M-364 381L16 1M-345 381L35 1M-326 381L54 1M-307 381L73 1M-288 381L92 1M-269 381L111 1M-250 381L130 1M-231 381L149 1M-212 381L168 1M-193 381L187 1M-174 381L206 1M-155 381L225 1M-136 381L244 1M-117 381L263 1M-98 381L282 1M-79 381L301 1M-60 381L320 1M-41 381L339 1M-22 381L358 1M-3 381L377 1M16 381L396 1M35 381L415 1M54 381L434 1M73 381L453 1M92 381L472 1M111 381L491 1M130 381L510 1M149 381L529 1M168 381L548 1M187 381L567 1M206 381L586 1M225 381L605 1M244 381L624 1" mask="url(#f)"/>
        <g mask="url(#f)">
          <use fill="#0070F0" xlink:href="#g"/>
          <path stroke="#FFFFFF" stroke-width="4" d="M83.1825095,170.696806 L38.7370342,237.365019 L223.012114,237.365019 L155.091255,146.344172 L108.538077,208.730157 L83.1825095,170.696806 Z"/>
        </g>
      </g>
      <g transform="translate(586 414)">
        <rect width="550" height="585" x="2" y="2" stroke="#FFFFFF" stroke-width="4"/>
        <mask id="i" fill="white">
          <use xlink:href="#h"/>
        </mask>
        <path stroke="#FFFFFF" d="M48.5,228.5 L48.5,251.5 L505.5,251.5 L505.5,228.5 L48.5,228.5 Z M48.5,168.5 L48.5,191.5 L505.5,191.5 L505.5,168.5 L48.5,168.5 Z M48.5,108.5 L48.5,131.5 L505.5,131.5 L505.5,108.5 L48.5,108.5 Z M48.5,48.5 L48.5,71.5 L505.5,71.5 L505.5,48.5 L48.5,48.5 Z M48.5,288.5 L48.5,311.5 L505.5,311.5 L505.5,288.5 L48.5,288.5 Z M48.5,348.5 L48.5,371.5 L505.5,371.5 L505.5,348.5 L48.5,348.5 Z M48.5,408.5 L48.5,431.5 L505.5,431.5 L505.5,408.5 L48.5,408.5 Z M48.5,468.5 L48.5,491.5 L375.5,491.5 L375.5,468.5 L48.5,468.5 Z"/>
        <path stroke="#FFFFFF" d="M-387.753592 491.753592L56 48M-377.753592 491.753592L66 48M-367.753592 491.753592L76 48M-357.753592 491.753592L86 48M-347.753592 491.753592L96 48M-337.753592 491.753592L106 48M-327.753592 491.753592L116 48M-317.753592 491.753592L126 48M-307.753592 491.753592L136 48M-297.753592 491.753592L146 48M-287.753592 491.753592L156 48M-277.753592 491.753592L166 48M-267.753592 491.753592L176 48M-257.753592 491.753592L186 48M-247.753592 491.753592L196 48M-237.753592 491.753592L206 48M-227.753592 491.753592L216 48M-217.753592 491.753592L226 48M-207.753592 491.753592L236 48M-197.753592 491.753592L246 48M-187.753592 491.753592L256 48M-177.753592 491.753592L266 48M-167.753592 491.753592L276 48M-157.753592 491.753592L286 48M-147.753592 491.753592L296 48M-137.753592 491.753592L306 48M-127.753592 491.753592L316 48M-117.753592 491.753592L326 48M-107.753592 491.753592L336 48M-97.7535915 491.753592L346 48M-87.7535915 491.753592L356 48M-77.7535915 491.753592L366 48M-67.7535915 491.753592L376 48M-57.7535915 491.753592L386 48M-47.7535915 491.753592L396 48M-37.7535915 491.753592L406 48M-27.7535915 491.753592L416 48M-17.7535915 491.753592L426 48M-7.75359153 491.753592L436 48M2.24640847 491.753592L446 48M12.2464085 491.753592L456 48M22.2464085 491.753592L466 48M32.2464085 491.753592L476 48M42.2464085 491.753592L486 48M52.2464085 491.753592L496 48M62.2464085 491.753592L506 48M72.2464085 491.753592L516 48M82.2464085 491.753592L526 48M92.2464085 491.753592L536 48M102.246408 491.753592L546 48M112.246408 491.753592L556 48M122.246408 491.753592L566 48M132.246408 491.753592L576 48M142.246408 491.753592L586 48M152.246408 491.753592L596 48M162.246408 491.753592L606 48M172.246408 491.753592L616 48M182.246408 491.753592L626 48M192.246408 491.753592L636 48M202.246408 491.753592L646 48M212.246408 491.753592L656 48M222.246408 491.753592L666 48M232.246408 491.753592L676 48M242.246408 491.753592L686 48M252.246408 491.753592L696 48M262.246408 491.753592L706 48M272.246408 491.753592L716 48M282.246408 491.753592L726 48M292.246408 491.753592L736 48M302.246408 491.753592L746 48M312.246408 491.753592L756 48M322.246408 491.753592L766 48M332.246408 491.753592L776 48M342.246408 491.753592L786 48M352.246408 491.753592L796 48M362.246408 491.753592L806 48M372.246408 491.753592L816 48M382.246408 491.753592L826 48M392.246408 491.753592L836 48M402.246408 491.753592L846 48M412.246408 491.753592L856 48M422.246408 491.753592L866 48M432.246408 491.753592L876 48M442.246408 491.753592L886 48" mask="url(#i)"/>
      </g>
      <g transform="translate(0 414)">
        <mask id="k" fill="white">
          <use xlink:href="#j"/>
        </mask>
        <rect width="550" height="999" x="2" y="2" stroke="#FFFFFF" stroke-width="4"/>
        <path stroke="#FFFFFF" d="M535.213046 1002.78695L1539.00141-1.00141123M515.213046 1002.78695L1519.00141-1.00141123M495.213046 1002.78695L1499.00141-1.00141123M475.213046 1002.78695L1479.00141-1.00141123M455.213046 1002.78695L1459.00141-1.00141123M435.213046 1002.78695L1439.00141-1.00141123M415.213046 1002.78695L1419.00141-1.00141123M395.213046 1002.78695L1399.00141-1.00141123M375.213046 1002.78695L1379.00141-1.00141123M355.213046 1002.78695L1359.00141-1.00141123M335.213046 1002.78695L1339.00141-1.00141123M315.213046 1002.78695L1319.00141-1.00141123M295.213046 1002.78695L1299.00141-1.00141123M275.213046 1002.78695L1279.00141-1.00141123M255.213046 1002.78695L1259.00141-1.00141123M235.213046 1002.78695L1239.00141-1.00141123M215.213046 1002.78695L1219.00141-1.00141123M195.213046 1002.78695L1199.00141-1.00141123M175.213046 1002.78695L1179.00141-1.00141123M155.213046 1002.78695L1159.00141-1.00141123M135.213046 1002.78695L1139.00141-1.00141123M115.213046 1002.78695L1119.00141-1.00141123M95.2130459 1002.78695L1099.00141-1.00141123M75.2130459 1002.78695L1079.00141-1.00141123M55.2130459 1002.78695L1059.00141-1.00141123M35.2130459 1002.78695L1039.00141-1.00141123M15.2130459 1002.78695L1019.00141-1.00141123M-4.78695408 1002.78695L999.001411-1.00141123M-24.7869541 1002.78695L979.001411-1.00141123M-44.7869541 1002.78695L959.001411-1.00141123M-64.7869541 1002.78695L939.001411-1.00141123M-84.7869541 1002.78695L919.001411-1.00141123M-104.786954 1002.78695L899.001411-1.00141123M-124.786954 1002.78695L879.001411-1.00141123M-144.786954 1002.78695L859.001411-1.00141123M-164.786954 1002.78695L839.001411-1.00141123M-184.786954 1002.78695L819.001411-1.00141123M-204.786954 1002.78695L799.001411-1.00141123M-224.786954 1002.78695L779.001411-1.00141123M-244.786954 1002.78695L759.001411-1.00141123M-264.786954 1002.78695L739.001411-1.00141123M-284.786954 1002.78695L719.001411-1.00141123M-304.786954 1002.78695L699.001411-1.00141123M-324.786954 1002.78695L679.001411-1.00141123M-344.786954 1002.78695L659.001411-1.00141123M-364.786954 1002.78695L639.001411-1.00141123M-384.786954 1002.78695L619.001411-1.00141123M-404.786954 1002.78695L599.001411-1.00141123M-424.786954 1002.78695L579.001411-1.00141123M-444.786954 1002.78695L559.001411-1.00141123M-464.786954 1002.78695L539.001411-1.00141123M-484.786954 1002.78695L519.001411-1.00141123M-504.786954 1002.78695L499.001411-1.00141123M-524.786954 1002.78695L479.001411-1.00141123M-544.786954 1002.78695L459.001411-1.00141123M-564.786954 1002.78695L439.001411-1.00141123M-584.786954 1002.78695L419.001411-1.00141123M-604.786954 1002.78695L399.001411-1.00141123M-624.786954 1002.78695L379.001411-1.00141123M-644.786954 1002.78695L359.001411-1.00141123M-664.786954 1002.78695L339.001411-1.00141123M-684.786954 1002.78695L319.001411-1.00141123M-704.786954 1002.78695L299.001411-1.00141123M-724.786954 1002.78695L279.001411-1.00141123M-744.786954 1002.78695L259.001411-1.00141123M-764.786954 1002.78695L239.001411-1.00141123M-784.786954 1002.78695L219.001411-1.00141123M-804.786954 1002.78695L199.001411-1.00141123M-824.786954 1002.78695L179.001411-1.00141123M-844.786954 1002.78695L159.001411-1.00141123M-864.786954 1002.78695L139.001411-1.00141123M-884.786954 1002.78695L119.001411-1.00141123M-904.786954 1002.78695L99.0014112-1.00141123M-924.786954 1002.78695L79.0014112-1.00141123M-944.786954 1002.78695L59.0014112-1.00141123M-964.786954 1002.78695L39.0014112-1.00141123M-984.786954 1002.78695L19.0014112-1.00141123" mask="url(#k)"/>
        <g mask="url(#k)">
          <use fill="#0070F0" xlink:href="#l"/>
          <path stroke="#FFFFFF" stroke-width="4" d="M191,462.605551 L108.737034,586 L443.709084,586 L319.348485,419.344172 L236.32888,530.598871 L191,462.605551 Z"/>
        </g>
      </g>
    </g>
    <g stroke="#FFFFFF" stroke-width="2" opacity=".3" transform="translate(70 48)">
      <rect width="259" height="173" x="1" y="1"/>
      <rect width="259" height="173" x="1" y="622"/>
      <rect width="259" height="173" x="587" y="1"/>
      <rect width="259" height="173" x="587" y="622"/>
      <rect width="259" height="173" x="1" y="208"/>
      <rect width="259" height="173" x="1" y="829"/>
      <rect width="259" height="173" x="1" y="1243"/>
      <rect width="259" height="173" x="587" y="208"/>
      <rect width="259" height="173" x="587" y="829"/>
      <rect width="259" height="173" x="587" y="1243"/>
      <rect width="259" height="173" x="1" y="415"/>
      <rect width="259" height="173" x="1" y="1036"/>
      <rect width="259" height="173" x="1" y="1450"/>
      <rect width="259" height="173" x="587" y="415"/>
      <rect width="259" height="173" x="587" y="1036"/>
      <rect width="259" height="173" x="587" y="1450"/>
      <rect width="259" height="173" x="294" y="1"/>
      <rect width="259" height="173" x="294" y="622"/>
      <rect width="259" height="173" x="880" y="1"/>
      <rect width="259" height="173" x="880" y="622"/>
      <rect width="259" height="173" x="294" y="208"/>
      <rect width="259" height="173" x="294" y="829"/>
      <rect width="259" height="173" x="294" y="1243"/>
      <rect width="259" height="173" x="880" y="208"/>
      <rect width="259" height="173" x="880" y="829"/>
      <rect width="259" height="173" x="880" y="1243"/>
      <rect width="259" height="173" x="294" y="415"/>
      <rect width="259" height="173" x="294" y="1036"/>
      <rect width="259" height="173" x="294" y="1450"/>
      <rect width="259" height="173" x="880" y="415"/>
      <rect width="259" height="173" x="880" y="1036"/>
      <rect width="259" height="173" x="880" y="1450"/>
    </g>
  </g>
</svg>
