<svg xmlns="http://www.w3.org/2000/svg" width="1280" height="1752" viewBox="0 0 1280 1752" xmlns:xlink="http://www.w3.org/1999/xlink" style="background:#0070f0">
  <defs>
    <rect id="a" width="847" height="589"/>
    <path id="c" d="M383.420912,320.131367 L338,252 L252,381 L381,381 L594.69697,381 L466.348485,209 L383.420912,320.131367 Z"/>
    <path id="d" d="M48,48 L213,48 L213,72 L48,72 L48,48 Z M48,108 L213,108 L213,132 L48,132 L48,108 Z M48,168 L213,168 L213,192 L48,192 L48,168 Z M48,228 L213,228 L213,252 L48,252 L48,228 Z M48,288 L213,288 L213,312 L48,312 L48,288 Z M48,348 L213,348 L213,372 L48,372 L48,348 Z M48,408 L213,408 L213,432 L48,432 L48,408 Z M48,468 L213,468 L213,492 L48,492 L48,468 Z M48,528 L213,528 L213,552 L48,552 L48,528 Z M48,588 L213,588 L213,612 L48,612 L48,588 Z M48,648 L213,648 L213,672 L48,672 L48,648 Z M48,708 L213,708 L213,732 L48,732 L48,708 Z M48,768 L213,768 L213,792 L48,792 L48,768 Z M48,828 L213,828 L213,852 L48,852 L48,828 Z M48,888 L166,888 L166,912 L48,912 L48,888 Z"/>
    <path id="f" d="M48,288 L376,288 L376,312 L48,312 L48,288 Z M48,228 L799,228 L799,252 L48,252 L48,228 Z M48,168 L799,168 L799,192 L48,192 L48,168 Z M48,108 L799,108 L799,132 L48,132 L48,108 Z M48,48 L799,48 L799,72 L48,72 L48,48 Z"/>
    <path id="h" d="M48,108 L799,108 L799,132 L48,132 L48,108 Z M48,48 L799,48 L799,72 L48,72 L48,48 Z"/>
  </defs>
  <g fill="none" fill-rule="evenodd">
    <g transform="translate(70 48)">
      <rect width="843" height="95" x="2" y="2" stroke="#FFFFFF" stroke-width="4"/>
      <g transform="translate(0 828)">
        <mask id="b" fill="white">
          <use xlink:href="#a"/>
        </mask>
        <rect width="843" height="585" x="2" y="2" stroke="#FFFFFF" stroke-width="4"/>
        <path stroke="#FFFFFF" d="M-577.178757 589.178757L11 1M-557.178757 589.178757L31 1M-537.178757 589.178757L51 1M-517.178757 589.178757L71 1M-497.178757 589.178757L91 1M-477.178757 589.178757L111 1M-457.178757 589.178757L131 1M-437.178757 589.178757L151 1M-417.178757 589.178757L171 1M-397.178757 589.178757L191 1M-377.178757 589.178757L211 1M-357.178757 589.178757L231 1M-337.178757 589.178757L251 1M-317.178757 589.178757L271 1M-297.178757 589.178757L291 1M-277.178757 589.178757L311 1M-257.178757 589.178757L331 1M-237.178757 589.178757L351 1M-217.178757 589.178757L371 1M-197.178757 589.178757L391 1M-177.178757 589.178757L411 1M-157.178757 589.178757L431 1M-137.178757 589.178757L451 1M-117.178757 589.178757L471 1M-97.1787568 589.178757L491 1M-77.1787568 589.178757L511 1M-57.1787568 589.178757L531 1M-37.1787568 589.178757L551 1M-17.1787568 589.178757L571 1M2.82124316 589.178757L591 1M22.8212432 589.178757L611 1M42.8212432 589.178757L631 1M62.8212432 589.178757L651 1M82.8212432 589.178757L671 1M102.821243 589.178757L691 1M122.821243 589.178757L711 1M142.821243 589.178757L731 1M162.821243 589.178757L751 1M182.821243 589.178757L771 1M202.821243 589.178757L791 1M222.821243 589.178757L811 1M242.821243 589.178757L831 1M262.821243 589.178757L851 1M282.821243 589.178757L871 1M302.821243 589.178757L891 1M322.821243 589.178757L911 1M342.821243 589.178757L931 1M362.821243 589.178757L951 1M382.821243 589.178757L971 1M402.821243 589.178757L991 1M422.821243 589.178757L1011 1M442.821243 589.178757L1031 1M462.821243 589.178757L1051 1M482.821243 589.178757L1071 1M502.821243 589.178757L1091 1M522.821243 589.178757L1111 1M542.821243 589.178757L1131 1M562.821243 589.178757L1151 1M582.821243 589.178757L1171 1M602.821243 589.178757L1191 1M622.821243 589.178757L1211 1M642.821243 589.178757L1231 1M662.821243 589.178757L1251 1M682.821243 589.178757L1271 1M702.821243 589.178757L1291 1M722.821243 589.178757L1311 1M742.821243 589.178757L1331 1M762.821243 589.178757L1351 1M782.821243 589.178757L1371 1M802.821243 589.178757L1391 1M822.821243 589.178757L1411 1" mask="url(#b)"/>
        <g mask="url(#b)">
          <use fill="#0070F0" xlink:href="#c"/>
          <path stroke="#FFFFFF" stroke-width="4" d="M338,255.605551 L255.737034,379 L590.709084,379 L466.348485,212.344172 L383.32888,323.598871 L338,255.605551 Z"/>
        </g>
      </g>
      <g transform="translate(879 414)">
        <rect width="257" height="999" x="2" y="2" stroke="#FFFFFF" stroke-width="4"/>
        <mask id="e" fill="white">
          <use xlink:href="#d"/>
        </mask>
        <path stroke="#FFFFFF" d="M48.5,48.5 L48.5,71.5 L212.5,71.5 L212.5,48.5 L48.5,48.5 Z M48.5,108.5 L48.5,131.5 L212.5,131.5 L212.5,108.5 L48.5,108.5 Z M48.5,168.5 L48.5,191.5 L212.5,191.5 L212.5,168.5 L48.5,168.5 Z M48.5,228.5 L48.5,251.5 L212.5,251.5 L212.5,228.5 L48.5,228.5 Z M48.5,288.5 L48.5,311.5 L212.5,311.5 L212.5,288.5 L48.5,288.5 Z M48.5,348.5 L48.5,371.5 L212.5,371.5 L212.5,348.5 L48.5,348.5 Z M48.5,408.5 L48.5,431.5 L212.5,431.5 L212.5,408.5 L48.5,408.5 Z M48.5,468.5 L48.5,491.5 L212.5,491.5 L212.5,468.5 L48.5,468.5 Z M48.5,528.5 L48.5,551.5 L212.5,551.5 L212.5,528.5 L48.5,528.5 Z M48.5,588.5 L48.5,611.5 L212.5,611.5 L212.5,588.5 L48.5,588.5 Z M48.5,648.5 L48.5,671.5 L212.5,671.5 L212.5,648.5 L48.5,648.5 Z M48.5,708.5 L48.5,731.5 L212.5,731.5 L212.5,708.5 L48.5,708.5 Z M48.5,768.5 L48.5,791.5 L212.5,791.5 L212.5,768.5 L48.5,768.5 Z M48.5,828.5 L48.5,851.5 L212.5,851.5 L212.5,828.5 L48.5,828.5 Z M48.5,888.5 L48.5,911.5 L165.5,911.5 L165.5,888.5 L48.5,888.5 Z"/>
        <path stroke="#FFFFFF" d="M-900.000131 1005.00013L57.0081223 47.9918777M-890.000131 1005.00013L67.0081223 47.9918777M-880.000131 1005.00013L77.0081223 47.9918777M-870.000131 1005.00013L87.0081223 47.9918777M-860.000131 1005.00013L97.0081223 47.9918777M-850.000131 1005.00013L107.008122 47.9918777M-840.000131 1005.00013L117.008122 47.9918777M-830.000131 1005.00013L127.008122 47.9918777M-820.000131 1005.00013L137.008122 47.9918777M-810.000131 1005.00013L147.008122 47.9918777M-800.000131 1005.00013L157.008122 47.9918777M-790.000131 1005.00013L167.008122 47.9918777M-780.000131 1005.00013L177.008122 47.9918777M-770.000131 1005.00013L187.008122 47.9918777M-760.000131 1005.00013L197.008122 47.9918777M-750.000131 1005.00013L207.008122 47.9918777M-740.000131 1005.00013L217.008122 47.9918777M-730.000131 1005.00013L227.008122 47.9918777M-720.000131 1005.00013L237.008122 47.9918777M-710.000131 1005.00013L247.008122 47.9918777M-700.000131 1005.00013L257.008122 47.9918777M-690.000131 1005.00013L267.008122 47.9918777M-680.000131 1005.00013L277.008122 47.9918777M-670.000131 1005.00013L287.008122 47.9918777M-660.000131 1005.00013L297.008122 47.9918777M-650.000131 1005.00013L307.008122 47.9918777M-640.000131 1005.00013L317.008122 47.9918777M-630.000131 1005.00013L327.008122 47.9918777M-620.000131 1005.00013L337.008122 47.9918777M-610.000131 1005.00013L347.008122 47.9918777M-600.000131 1005.00013L357.008122 47.9918777M-590.000131 1005.00013L367.008122 47.9918777M-580.000131 1005.00013L377.008122 47.9918777M-570.000131 1005.00013L387.008122 47.9918777M-560.000131 1005.00013L397.008122 47.9918777M-550.000131 1005.00013L407.008122 47.9918777M-540.000131 1005.00013L417.008122 47.9918777M-530.000131 1005.00013L427.008122 47.9918777M-520.000131 1005.00013L437.008122 47.9918777M-510.000131 1005.00013L447.008122 47.9918777M-500.000131 1005.00013L457.008122 47.9918777M-490.000131 1005.00013L467.008122 47.9918777M-480.000131 1005.00013L477.008122 47.9918777M-470.000131 1005.00013L487.008122 47.9918777M-460.000131 1005.00013L497.008122 47.9918777M-450.000131 1005.00013L507.008122 47.9918777M-440.000131 1005.00013L517.008122 47.9918777M-430.000131 1005.00013L527.008122 47.9918777M-420.000131 1005.00013L537.008122 47.9918777M-410.000131 1005.00013L547.008122 47.9918777M-400.000131 1005.00013L557.008122 47.9918777M-390.000131 1005.00013L567.008122 47.9918777M-380.000131 1005.00013L577.008122 47.9918777M-370.000131 1005.00013L587.008122 47.9918777M-360.000131 1005.00013L597.008122 47.9918777M-350.000131 1005.00013L607.008122 47.9918777M-340.000131 1005.00013L617.008122 47.9918777M-330.000131 1005.00013L627.008122 47.9918777M-320.000131 1005.00013L637.008122 47.9918777M-310.000131 1005.00013L647.008122 47.9918777M-300.000131 1005.00013L657.008122 47.9918777M-290.000131 1005.00013L667.008122 47.9918777M-280.000131 1005.00013L677.008122 47.9918777M-270.000131 1005.00013L687.008122 47.9918777M-260.000131 1005.00013L697.008122 47.9918777M-250.000131 1005.00013L707.008122 47.9918777M-240.000131 1005.00013L717.008122 47.9918777M-230.000131 1005.00013L727.008122 47.9918777M-220.000131 1005.00013L737.008122 47.9918777M-210.000131 1005.00013L747.008122 47.9918777M-200.000131 1005.00013L757.008122 47.9918777M-190.000131 1005.00013L767.008122 47.9918777M-180.000131 1005.00013L777.008122 47.9918777M-170.000131 1005.00013L787.008122 47.9918777M-160.000131 1005.00013L797.008122 47.9918777M-150.000131 1005.00013L807.008122 47.9918777M-140.000131 1005.00013L817.008122 47.9918777M-130.000131 1005.00013L827.008122 47.9918777M-120.000131 1005.00013L837.008122 47.9918777M-110.000131 1005.00013L847.008122 47.9918777M-100.000131 1005.00013L857.008122 47.9918777M-90.0001306 1005.00013L867.008122 47.9918777M-80.0001306 1005.00013L877.008122 47.9918777M-70.0001306 1005.00013L887.008122 47.9918777M-60.0001306 1005.00013L897.008122 47.9918777M-50.0001306 1005.00013L907.008122 47.9918777M-40.0001306 1005.00013L917.008122 47.9918777M-30.0001306 1005.00013L927.008122 47.9918777M-20.0001306 1005.00013L937.008122 47.9918777M-10.0001306 1005.00013L947.008122 47.9918777M-.000130615393 1005.00013L957.008122 47.9918777M9.99986938 1005.00013L967.008122 47.9918777M19.9998694 1005.00013L977.008122 47.9918777M29.9998694 1005.00013L987.008122 47.9918777M39.9998694 1005.00013L997.008122 47.9918777M49.9998694 1005.00013L1007.00812 47.9918777M59.9998694 1005.00013L1017.00812 47.9918777M69.9998694 1005.00013L1027.00812 47.9918777" mask="url(#e)"/>
      </g>
      <g transform="translate(0 414)">
        <rect width="843" height="378" x="2" y="2" stroke="#FFFFFF" stroke-width="4"/>
        <mask id="g" fill="white">
          <use xlink:href="#f"/>
        </mask>
        <path stroke="#FFFFFF" d="M48.5,288.5 L48.5,311.5 L375.5,311.5 L375.5,288.5 L48.5,288.5 Z M48.5,228.5 L48.5,251.5 L798.5,251.5 L798.5,228.5 L48.5,228.5 Z M48.5,168.5 L48.5,191.5 L798.5,191.5 L798.5,168.5 L48.5,168.5 Z M48.5,108.5 L48.5,131.5 L798.5,131.5 L798.5,108.5 L48.5,108.5 Z M48.5,48.5 L48.5,71.5 L798.5,71.5 L798.5,48.5 L48.5,48.5 Z"/>
        <path stroke="#FFFFFF" d="M-343 381L37 1M-324 381L56 1M-305 381L75 1M-286 381L94 1M-267 381L113 1M-248 381L132 1M-229 381L151 1M-210 381L170 1M-191 381L189 1M-172 381L208 1M-153 381L227 1M-134 381L246 1M-115 381L265 1M-96 381L284 1M-77 381L303 1M-58 381L322 1M-39 381L341 1M-20 381L360 1M-1 381L379 1M18 381L398 1M37 381L417 1M56 381L436 1M75 381L455 1M94 381L474 1M113 381L493 1M132 381L512 1M151 381L531 1M170 381L550 1M189 381L569 1M208 381L588 1M227 381L607 1M246 381L626 1M265 381L645 1M284 381L664 1M303 381L683 1M322 381L702 1M341 381L721 1M360 381L740 1M379 381L759 1M398 381L778 1M417 381L797 1M436 381L816 1M455 381L835 1M474 381L854 1M493 381L873 1M512 381L892 1M531 381L911 1M550 381L930 1M560 381L940 1M570 381L950 1M580 381L960 1M590 381L970 1M600 381L980 1M610 381L990 1M620 381L1000 1M630 381L1010 1M640 381L1020 1M650 381L1030 1M660 381L1040 1M-333 381L47 1M-314 381L66 1M-295 381L85 1M-276 381L104 1M-257 381L123 1M-238 381L142 1M-219 381L161 1M-200 381L180 1M-181 381L199 1M-162 381L218 1M-143 381L237 1M-124 381L256 1M-105 381L275 1M-86 381L294 1M-67 381L313 1M-48 381L332 1M-29 381L351 1M-10 381L370 1M9 381L389 1M28 381L408 1M47 381L427 1M66 381L446 1M85 381L465 1M104 381L484 1M123 381L503 1M142 381L522 1M161 381L541 1M180 381L560 1M199 381L579 1M218 381L598 1M237 381L617 1M256 381L636 1M275 381L655 1M294 381L674 1M313 381L693 1M332 381L712 1M351 381L731 1M370 381L750 1M389 381L769 1M408 381L788 1M427 381L807 1M446 381L826 1M465 381L845 1M484 381L864 1M503 381L883 1M522 381L902 1M541 381L921 1" mask="url(#g)"/>
      </g>
      <g transform="translate(0 1449)">
        <rect width="843" height="171" x="2" y="2" stroke="#FFFFFF" stroke-width="4"/>
        <mask id="i" fill="white">
          <use xlink:href="#h"/>
        </mask>
        <path stroke="#FFFFFF" d="M48.5,108.5 L48.5,131.5 L798.5,131.5 L798.5,108.5 L48.5,108.5 Z M48.5,48.5 L48.5,71.5 L798.5,71.5 L798.5,48.5 L48.5,48.5 Z"/>
        <path stroke="#FFFFFF" d="M-343 381L37 1M-324 381L56 1M-305 381L75 1M-286 381L94 1M-267 381L113 1M-248 381L132 1M-229 381L151 1M-210 381L170 1M-191 381L189 1M-172 381L208 1M-153 381L227 1M-134 381L246 1M-115 381L265 1M-96 381L284 1M-77 381L303 1M-58 381L322 1M-39 381L341 1M-20 381L360 1M-1 381L379 1M18 381L398 1M37 381L417 1M56 381L436 1M75 381L455 1M94 381L474 1M113 381L493 1M132 381L512 1M151 381L531 1M170 381L550 1M189 381L569 1M208 381L588 1M227 381L607 1M246 381L626 1M265 381L645 1M284 381L664 1M303 381L683 1M322 381L702 1M341 381L721 1M360 381L740 1M379 381L759 1M398 381L778 1M417 381L797 1M436 381L816 1M455 381L835 1M474 381L854 1M493 381L873 1M512 381L892 1M531 381L911 1M550 381L930 1M560 381L940 1M570 381L950 1M580 381L960 1M590 381L970 1M600 381L980 1M610 381L990 1M620 381L1000 1M630 381L1010 1M640 381L1020 1M650 381L1030 1M660 381L1040 1M-333 381L47 1M-314 381L66 1M-295 381L85 1M-276 381L104 1M-257 381L123 1M-238 381L142 1M-219 381L161 1M-200 381L180 1M-181 381L199 1M-162 381L218 1M-143 381L237 1M-124 381L256 1M-105 381L275 1M-86 381L294 1M-67 381L313 1M-48 381L332 1M-29 381L351 1M-10 381L370 1M9 381L389 1M28 381L408 1M47 381L427 1M66 381L446 1M85 381L465 1M104 381L484 1M123 381L503 1M142 381L522 1M161 381L541 1M180 381L560 1M199 381L579 1M218 381L598 1M237 381L617 1M256 381L636 1M275 381L655 1M294 381L674 1M313 381L693 1M332 381L712 1M351 381L731 1M370 381L750 1M389 381L769 1M408 381L788 1M427 381L807 1M446 381L826 1M465 381L845 1M484 381L864 1M503 381L883 1M522 381L902 1M541 381L921 1" mask="url(#i)"/>
      </g>
    </g>
    <g stroke="#FFFFFF" stroke-width="2" opacity=".3" transform="translate(70 48)">
      <rect width="259" height="173" x="1" y="1"/>
      <rect width="259" height="173" x="1" y="622"/>
      <rect width="259" height="173" x="587" y="1"/>
      <rect width="259" height="173" x="587" y="622"/>
      <rect width="259" height="173" x="1" y="208"/>
      <rect width="259" height="173" x="1" y="829"/>
      <rect width="259" height="173" x="1" y="1243"/>
      <rect width="259" height="173" x="587" y="208"/>
      <rect width="259" height="173" x="587" y="829"/>
      <rect width="259" height="173" x="587" y="1243"/>
      <rect width="259" height="173" x="1" y="415"/>
      <rect width="259" height="173" x="1" y="1036"/>
      <rect width="259" height="173" x="1" y="1450"/>
      <rect width="259" height="173" x="587" y="415"/>
      <rect width="259" height="173" x="587" y="1036"/>
      <rect width="259" height="173" x="587" y="1450"/>
      <rect width="259" height="173" x="294" y="1"/>
      <rect width="259" height="173" x="294" y="622"/>
      <rect width="259" height="173" x="880" y="1"/>
      <rect width="259" height="173" x="880" y="622"/>
      <rect width="259" height="173" x="294" y="208"/>
      <rect width="259" height="173" x="294" y="829"/>
      <rect width="259" height="173" x="294" y="1243"/>
      <rect width="259" height="173" x="880" y="208"/>
      <rect width="259" height="173" x="880" y="829"/>
      <rect width="259" height="173" x="880" y="1243"/>
      <rect width="259" height="173" x="294" y="415"/>
      <rect width="259" height="173" x="294" y="1036"/>
      <rect width="259" height="173" x="294" y="1450"/>
      <rect width="259" height="173" x="880" y="415"/>
      <rect width="259" height="173" x="880" y="1036"/>
      <rect width="259" height="173" x="880" y="1450"/>
    </g>
  </g>
</svg>
