<svg xmlns="http://www.w3.org/2000/svg" width="1280" height="1752" viewBox="0 0 1280 1752" xmlns:xlink="http://www.w3.org/1999/xlink" style="background:#0070f0">
  <defs>
    <rect id="a" width="261" height="382"/>
    <path id="c" d="M108.630108,205.262653 L83.1825095,167.091255 L35,239.365019 L107.273764,239.365019 L227,239.365019 L155.091255,143 L108.630108,205.262653 Z"/>
    <path id="d" d="M48,108 L213,108 L213,132 L48,132 L48,108 Z M48,48 L213,48 L213,72 L48,72 L48,48 Z"/>
    <rect id="f" width="261" height="175"/>
    <path id="h" d="M113.673209,97.9941284 L94.0573511,68.5703422 L56.9166667,124.281369 L112.627693,124.281369 L204.916667,124.281369 L149.487009,50 L113.673209,97.9941284 Z"/>
    <rect id="i" width="261" height="382"/>
    <path id="k" d="M108.630108,205.262653 L83.1825095,167.091255 L35,239.365019 L107.273764,239.365019 L227,239.365019 L155.091255,143 L108.630108,205.262653 Z"/>
    <rect id="l" width="554" height="796"/>
    <path id="n" d="M236.420912,423.131367 L191,355 L105,484 L234,484 L447.69697,484 L319.348485,312 L236.420912,423.131367 Z"/>
    <path id="o" d="M48,48 L213,48 L213,72 L48,72 L48,48 Z M48,108 L213,108 L213,132 L48,132 L48,108 Z M48,168 L213,168 L213,192 L48,192 L48,168 Z M48,228 L213,228 L213,252 L48,252 L48,228 Z M48,288 L213,288 L213,312 L48,312 L48,288 Z M48,348 L213,348 L213,372 L48,372 L48,348 Z M48,408 L213,408 L213,432 L48,432 L48,408 Z M48,468 L213,468 L213,492 L48,492 L48,468 Z M48,528 L213,528 L213,552 L48,552 L48,528 Z M48,588 L213,588 L213,612 L48,612 L48,588 Z M48,648 L213,648 L213,672 L48,672 L48,648 Z M48,708 L166,708 L166,732 L48,732 L48,708 Z"/>
    <path id="q" d="M48,48 L213,48 L213,72 L48,72 L48,48 Z M48,108 L213,108 L213,132 L48,132 L48,108 Z M48,168 L213,168 L213,192 L48,192 L48,168 Z M48,228 L213,228 L213,252 L48,252 L48,228 Z M48,288 L166,288 L166,312 L48,312 L48,288 Z"/>
  </defs>
  <g fill="none" fill-rule="evenodd">
    <g transform="translate(70 48)">
      <rect width="550" height="95" x="295" y="2" stroke="#FFFFFF" stroke-width="4"/>
      <g transform="translate(293 1242)">
        <mask id="b" fill="white">
          <use xlink:href="#a"/>
        </mask>
        <rect width="257" height="378" x="2" y="2" stroke="#FFFFFF" stroke-width="4"/>
        <path stroke="#FFFFFF" d="M-364 381L16 1M-345 381L35 1M-326 381L54 1M-307 381L73 1M-288 381L92 1M-269 381L111 1M-250 381L130 1M-231 381L149 1M-212 381L168 1M-193 381L187 1M-174 381L206 1M-155 381L225 1M-136 381L244 1M-117 381L263 1M-98 381L282 1M-79 381L301 1M-60 381L320 1M-41 381L339 1M-22 381L358 1M-3 381L377 1M16 381L396 1M35 381L415 1M54 381L434 1M73 381L453 1M92 381L472 1M111 381L491 1M130 381L510 1M149 381L529 1M168 381L548 1M187 381L567 1M206 381L586 1M225 381L605 1M244 381L624 1" mask="url(#b)"/>
        <g mask="url(#b)">
          <use fill="#0070F0" xlink:href="#c"/>
          <path stroke="#FFFFFF" stroke-width="4" d="M83.1825095,170.696806 L38.7370342,237.365019 L223.012114,237.365019 L155.091255,146.344172 L108.538077,208.730157 L83.1825095,170.696806 Z"/>
        </g>
      </g>
      <g transform="translate(0 1449)">
        <rect width="257" height="171" x="2" y="2" stroke="#FFFFFF" stroke-width="4"/>
        <mask id="e" fill="white">
          <use xlink:href="#d"/>
        </mask>
        <path stroke="#FFFFFF" d="M48.5,108.5 L48.5,131.5 L212.5,131.5 L212.5,108.5 L48.5,108.5 Z M48.5,48.5 L48.5,71.5 L212.5,71.5 L212.5,48.5 L48.5,48.5 Z"/>
        <path stroke="#FFFFFF" d="M-343 381L37 1M-324 381L56 1M-305 381L75 1M-286 381L94 1M-267 381L113 1M-248 381L132 1M-229 381L151 1M-210 381L170 1M-191 381L189 1M-172 381L208 1M-153 381L227 1M-134 381L246 1M-115 381L265 1M-96 381L284 1M-77 381L303 1M-58 381L322 1M-39 381L341 1M-20 381L360 1M-1 381L379 1M18 381L398 1M37 381L417 1M56 381L436 1M75 381L455 1M94 381L474 1M113 381L493 1M132 381L512 1M151 381L531 1M170 381L550 1M189 381L569 1M208 381L588 1M227 381L607 1M246 381L626 1M265 381L645 1M284 381L664 1M303 381L683 1M322 381L702 1M341 381L721 1M360 381L740 1M379 381L759 1M398 381L778 1M417 381L797 1M436 381L816 1M455 381L835 1M474 381L854 1M493 381L873 1M512 381L892 1M531 381L911 1M550 381L930 1M560 381L940 1M570 381L950 1M580 381L960 1M590 381L970 1M600 381L980 1M610 381L990 1M620 381L1000 1M630 381L1010 1M640 381L1020 1M650 381L1030 1M660 381L1040 1M-333 381L47 1M-314 381L66 1M-295 381L85 1M-276 381L104 1M-257 381L123 1M-238 381L142 1M-219 381L161 1M-200 381L180 1M-181 381L199 1M-162 381L218 1M-143 381L237 1M-124 381L256 1M-105 381L275 1M-86 381L294 1M-67 381L313 1M-48 381L332 1M-29 381L351 1M-10 381L370 1M9 381L389 1M28 381L408 1M47 381L427 1M66 381L446 1M85 381L465 1M104 381L484 1M123 381L503 1M142 381L522 1M161 381L541 1M180 381L560 1M199 381L579 1M218 381L598 1M237 381L617 1M256 381L636 1M275 381L655 1M294 381L674 1M313 381L693 1M332 381L712 1M351 381L731 1M370 381L750 1M389 381L769 1M408 381L788 1M427 381L807 1M446 381L826 1M465 381L845 1M484 381L864 1M503 381L883 1M522 381L902 1M541 381L921 1" mask="url(#e)"/>
      </g>
      <g transform="translate(0 1242)">
        <mask id="g" fill="white">
          <use xlink:href="#f"/>
        </mask>
        <rect width="257" height="171" x="2" y="2" stroke="#FFFFFF" stroke-width="4"/>
        <path stroke="#FFFFFF" d="M-364 381L16 1M-345 381L35 1M-326 381L54 1M-307 381L73 1M-288 381L92 1M-269 381L111 1M-250 381L130 1M-231 381L149 1M-212 381L168 1M-193 381L187 1M-174 381L206 1M-155 381L225 1M-136 381L244 1M-117 381L263 1M-98 381L282 1M-79 381L301 1M-60 381L320 1M-41 381L339 1M-22 381L358 1M-3 381L377 1M16 381L396 1M35 381L415 1M54 381L434 1M73 381L453 1M92 381L472 1M111 381L491 1M130 381L510 1M149 381L529 1M168 381L548 1M187 381L567 1M206 381L586 1M225 381L605 1M244 381L624 1" mask="url(#g)"/>
        <g mask="url(#g)">
          <use fill="#0070F0" xlink:href="#h"/>
          <path stroke="#FFFFFF" stroke-width="4" d="M94.0573511,72.1758935 L60.6537009,122.281369 L200.928781,122.281369 L149.487009,53.3441723 L113.581177,101.461632 L94.0573511,72.1758935 Z"/>
        </g>
      </g>
      <g transform="translate(879 828)">
        <mask id="j" fill="white">
          <use xlink:href="#i"/>
        </mask>
        <rect width="257" height="378" x="2" y="2" stroke="#FFFFFF" stroke-width="4"/>
        <path stroke="#FFFFFF" d="M-364 381L16 1M-345 381L35 1M-326 381L54 1M-307 381L73 1M-288 381L92 1M-269 381L111 1M-250 381L130 1M-231 381L149 1M-212 381L168 1M-193 381L187 1M-174 381L206 1M-155 381L225 1M-136 381L244 1M-117 381L263 1M-98 381L282 1M-79 381L301 1M-60 381L320 1M-41 381L339 1M-22 381L358 1M-3 381L377 1M16 381L396 1M35 381L415 1M54 381L434 1M73 381L453 1M92 381L472 1M111 381L491 1M130 381L510 1M149 381L529 1M168 381L548 1M187 381L567 1M206 381L586 1M225 381L605 1M244 381L624 1" mask="url(#j)"/>
        <g mask="url(#j)">
          <use fill="#0070F0" xlink:href="#k"/>
          <path stroke="#FFFFFF" stroke-width="4" d="M83.1825095,170.696806 L38.7370342,237.365019 L223.012114,237.365019 L155.091255,146.344172 L108.538077,208.730157 L83.1825095,170.696806 Z"/>
        </g>
      </g>
      <g transform="translate(293 414)">
        <mask id="m" fill="white">
          <use xlink:href="#l"/>
        </mask>
        <rect width="550" height="792" x="2" y="2" stroke="#FFFFFF" stroke-width="4"/>
        <path stroke="#FFFFFF" d="M-777.178757 796.178757L20.0014112-1.00141123M-757.178757 796.178757L40.0014112-1.00141123M-737.178757 796.178757L60.0014112-1.00141123M-717.178757 796.178757L80.0014112-1.00141123M-697.178757 796.178757L100.001411-1.00141123M-677.178757 796.178757L120.001411-1.00141123M-657.178757 796.178757L140.001411-1.00141123M-637.178757 796.178757L160.001411-1.00141123M-617.178757 796.178757L180.001411-1.00141123M-597.178757 796.178757L200.001411-1.00141123M-577.178757 796.178757L220.001411-1.00141123M-557.178757 796.178757L240.001411-1.00141123M-537.178757 796.178757L260.001411-1.00141123M-517.178757 796.178757L280.001411-1.00141123M-497.178757 796.178757L300.001411-1.00141123M-477.178757 796.178757L320.001411-1.00141123M-457.178757 796.178757L340.001411-1.00141123M-437.178757 796.178757L360.001411-1.00141123M-417.178757 796.178757L380.001411-1.00141123M-397.178757 796.178757L400.001411-1.00141123M-377.178757 796.178757L420.001411-1.00141123M-357.178757 796.178757L440.001411-1.00141123M-337.178757 796.178757L460.001411-1.00141123M-317.178757 796.178757L480.001411-1.00141123M-297.178757 796.178757L500.001411-1.00141123M-277.178757 796.178757L520.001411-1.00141123M-257.178757 796.178757L540.001411-1.00141123M-237.178757 796.178757L560.001411-1.00141123M-217.178757 796.178757L580.001411-1.00141123M-197.178757 796.178757L600.001411-1.00141123M-177.178757 796.178757L620.001411-1.00141123M-157.178757 796.178757L640.001411-1.00141123M-137.178757 796.178757L660.001411-1.00141123M-117.178757 796.178757L680.001411-1.00141123M-97.1787568 796.178757L700.001411-1.00141123M-77.1787568 796.178757L720.001411-1.00141123M-57.1787568 796.178757L740.001411-1.00141123M-37.1787568 796.178757L760.001411-1.00141123M-17.1787568 796.178757L780.001411-1.00141123M2.82124316 796.178757L800.001411-1.00141123M22.8212432 796.178757L820.001411-1.00141123M42.8212432 796.178757L840.001411-1.00141123M62.8212432 796.178757L860.001411-1.00141123M82.8212432 796.178757L880.001411-1.00141123M102.821243 796.178757L900.001411-1.00141123M122.821243 796.178757L920.001411-1.00141123M142.821243 796.178757L940.001411-1.00141123M162.821243 796.178757L960.001411-1.00141123M182.821243 796.178757L980.001411-1.00141123M202.821243 796.178757L1000.00141-1.00141123M222.821243 796.178757L1020.00141-1.00141123M242.821243 796.178757L1040.00141-1.00141123M262.821243 796.178757L1060.00141-1.00141123M282.821243 796.178757L1080.00141-1.00141123M302.821243 796.178757L1100.00141-1.00141123M322.821243 796.178757L1120.00141-1.00141123M342.821243 796.178757L1140.00141-1.00141123M362.821243 796.178757L1160.00141-1.00141123M382.821243 796.178757L1180.00141-1.00141123M402.821243 796.178757L1200.00141-1.00141123M422.821243 796.178757L1220.00141-1.00141123M442.821243 796.178757L1240.00141-1.00141123M462.821243 796.178757L1260.00141-1.00141123M482.821243 796.178757L1280.00141-1.00141123M502.821243 796.178757L1300.00141-1.00141123M522.821243 796.178757L1320.00141-1.00141123" mask="url(#m)"/>
        <g mask="url(#m)">
          <use fill="#0070F0" xlink:href="#n"/>
          <path stroke="#FFFFFF" stroke-width="4" d="M191,358.605551 L108.737034,482 L443.709084,482 L319.348485,315.344172 L236.32888,426.598871 L191,358.605551 Z"/>
        </g>
      </g>
      <g transform="translate(0 414)">
        <rect width="257" height="792" x="2" y="2" stroke="#FFFFFF" stroke-width="4"/>
        <mask id="p" fill="white">
          <use xlink:href="#o"/>
        </mask>
        <path stroke="#FFFFFF" d="M48.5,48.5 L48.5,71.5 L212.5,71.5 L212.5,48.5 L48.5,48.5 Z M48.5,108.5 L48.5,131.5 L212.5,131.5 L212.5,108.5 L48.5,108.5 Z M48.5,168.5 L48.5,191.5 L212.5,191.5 L212.5,168.5 L48.5,168.5 Z M48.5,228.5 L48.5,251.5 L212.5,251.5 L212.5,228.5 L48.5,228.5 Z M48.5,288.5 L48.5,311.5 L212.5,311.5 L212.5,288.5 L48.5,288.5 Z M48.5,348.5 L48.5,371.5 L212.5,371.5 L212.5,348.5 L48.5,348.5 Z M48.5,408.5 L48.5,431.5 L212.5,431.5 L212.5,408.5 L48.5,408.5 Z M48.5,468.5 L48.5,491.5 L212.5,491.5 L212.5,468.5 L48.5,468.5 Z M48.5,528.5 L48.5,551.5 L212.5,551.5 L212.5,528.5 L48.5,528.5 Z M48.5,588.5 L48.5,611.5 L212.5,611.5 L212.5,588.5 L48.5,588.5 Z M48.5,648.5 L48.5,671.5 L212.5,671.5 L212.5,648.5 L48.5,648.5 Z M48.5,708.5 L48.5,731.5 L165.5,731.5 L165.5,708.5 L48.5,708.5 Z"/>
        <path stroke="#FFFFFF" d="M-900.000131 1005.00013L57.0081223 47.9918777M-890.000131 1005.00013L67.0081223 47.9918777M-880.000131 1005.00013L77.0081223 47.9918777M-870.000131 1005.00013L87.0081223 47.9918777M-860.000131 1005.00013L97.0081223 47.9918777M-850.000131 1005.00013L107.008122 47.9918777M-840.000131 1005.00013L117.008122 47.9918777M-830.000131 1005.00013L127.008122 47.9918777M-820.000131 1005.00013L137.008122 47.9918777M-810.000131 1005.00013L147.008122 47.9918777M-800.000131 1005.00013L157.008122 47.9918777M-790.000131 1005.00013L167.008122 47.9918777M-780.000131 1005.00013L177.008122 47.9918777M-770.000131 1005.00013L187.008122 47.9918777M-760.000131 1005.00013L197.008122 47.9918777M-750.000131 1005.00013L207.008122 47.9918777M-740.000131 1005.00013L217.008122 47.9918777M-730.000131 1005.00013L227.008122 47.9918777M-720.000131 1005.00013L237.008122 47.9918777M-710.000131 1005.00013L247.008122 47.9918777M-700.000131 1005.00013L257.008122 47.9918777M-690.000131 1005.00013L267.008122 47.9918777M-680.000131 1005.00013L277.008122 47.9918777M-670.000131 1005.00013L287.008122 47.9918777M-660.000131 995.000131L297.008122 37.9918777M-650.000131 995.000131L307.008122 37.9918777M-640.000131 995.000131L317.008122 37.9918777M-630.000131 995.000131L327.008122 37.9918777M-620.000131 995.000131L337.008122 37.9918777M-610.000131 995.000131L347.008122 37.9918777M-600.000131 995.000131L357.008122 37.9918777M-590.000131 995.000131L367.008122 37.9918777M-580.000131 995.000131L377.008122 37.9918777M-570.000131 995.000131L387.008122 37.9918777M-560.000131 995.000131L397.008122 37.9918777M-550.000131 995.000131L407.008122 37.9918777M-540.000131 995.000131L417.008122 37.9918777M-530.000131 995.000131L427.008122 37.9918777M-520.000131 995.000131L437.008122 37.9918777M-510.000131 995.000131L447.008122 37.9918777M-500.000131 995.000131L457.008122 37.9918777M-490.000131 995.000131L467.008122 37.9918777M-480.000131 995.000131L477.008122 37.9918777M-470.000131 995.000131L487.008122 37.9918777M-460.000131 995.000131L497.008122 37.9918777M-450.000131 995.000131L507.008122 37.9918777M-440.000131 995.000131L517.008122 37.9918777M-430.000131 995.000131L527.008122 37.9918777M-420.000131 995.000131L537.008122 37.9918777M-410.000131 995.000131L547.008122 37.9918777M-400.000131 995.000131L557.008122 37.9918777M-390.000131 995.000131L567.008122 37.9918777M-380.000131 995.000131L577.008122 37.9918777M-370.000131 995.000131L587.008122 37.9918777M-360.000131 995.000131L597.008122 37.9918777M-350.000131 995.000131L607.008122 37.9918777M-340.000131 995.000131L617.008122 37.9918777M-330.000131 995.000131L627.008122 37.9918777M-320.000131 995.000131L637.008122 37.9918777M-310.000131 995.000131L647.008122 37.9918777M-300.000131 995.000131L657.008122 37.9918777M-290.000131 995.000131L667.008122 37.9918777M-280.000131 995.000131L677.008122 37.9918777M-270.000131 995.000131L687.008122 37.9918777M-260.000131 995.000131L697.008122 37.9918777M-250.000131 995.000131L707.008122 37.9918777M-240.000131 995.000131L717.008122 37.9918777M-230.000131 995.000131L727.008122 37.9918777M-220.000131 995.000131L737.008122 37.9918777M-210.000131 995.000131L747.008122 37.9918777M-200.000131 995.000131L757.008122 37.9918777M-190.000131 995.000131L767.008122 37.9918777M-180.000131 995.000131L777.008122 37.9918777M-170.000131 995.000131L787.008122 37.9918777M-160.000131 995.000131L797.008122 37.9918777M-150.000131 995.000131L807.008122 37.9918777M-140.000131 995.000131L817.008122 37.9918777M-130.000131 995.000131L827.008122 37.9918777M-120.000131 995.000131L837.008122 37.9918777M-110.000131 995.000131L847.008122 37.9918777M-100.000131 995.000131L857.008122 37.9918777M-90.0001306 995.000131L867.008122 37.9918777M-80.0001306 995.000131L877.008122 37.9918777M-70.0001306 995.000131L887.008122 37.9918777M-60.0001306 995.000131L897.008122 37.9918777M-50.0001306 995.000131L907.008122 37.9918777M-40.0001306 995.000131L917.008122 37.9918777M-30.0001306 995.000131L927.008122 37.9918777M-20.0001306 995.000131L937.008122 37.9918777M-10.0001306 995.000131L947.008122 37.9918777M-.000130615393 995.000131L957.008122 37.9918777M9.99986938 995.000131L967.008122 37.9918777M19.9998694 995.000131L977.008122 37.9918777M29.9998694 995.000131L987.008122 37.9918777M39.9998694 995.000131L997.008122 37.9918777M49.9998694 995.000131L1007.00812 37.9918777M59.9998694 995.000131L1017.00812 37.9918777M69.9998694 995.000131L1027.00812 37.9918777" mask="url(#p)"/>
      </g>
      <g transform="translate(586 1242)">
        <rect width="257" height="378" x="2" y="2" stroke="#FFFFFF" stroke-width="4"/>
        <mask id="r" fill="white">
          <use xlink:href="#q"/>
        </mask>
        <path stroke="#FFFFFF" d="M48.5,48.5 L48.5,71.5 L212.5,71.5 L212.5,48.5 L48.5,48.5 Z M48.5,108.5 L48.5,131.5 L212.5,131.5 L212.5,108.5 L48.5,108.5 Z M48.5,168.5 L48.5,191.5 L212.5,191.5 L212.5,168.5 L48.5,168.5 Z M48.5,228.5 L48.5,251.5 L212.5,251.5 L212.5,228.5 L48.5,228.5 Z M48.5,288.5 L48.5,311.5 L165.5,311.5 L165.5,288.5 L48.5,288.5 Z"/>
        <path stroke="#FFFFFF" d="M-900.000131 1005.00013L57.0081223 47.9918777M-890.000131 1005.00013L67.0081223 47.9918777M-880.000131 1005.00013L77.0081223 47.9918777M-870.000131 1005.00013L87.0081223 47.9918777M-860.000131 1005.00013L97.0081223 47.9918777M-850.000131 1005.00013L107.008122 47.9918777M-840.000131 1005.00013L117.008122 47.9918777M-830.000131 1005.00013L127.008122 47.9918777M-820.000131 1005.00013L137.008122 47.9918777M-810.000131 1005.00013L147.008122 47.9918777M-800.000131 1005.00013L157.008122 47.9918777M-790.000131 1005.00013L167.008122 47.9918777M-780.000131 1005.00013L177.008122 47.9918777M-770.000131 1005.00013L187.008122 47.9918777M-760.000131 1005.00013L197.008122 47.9918777M-750.000131 1005.00013L207.008122 47.9918777M-740.000131 1005.00013L217.008122 47.9918777M-730.000131 1005.00013L227.008122 47.9918777M-720.000131 1005.00013L237.008122 47.9918777M-710.000131 1005.00013L247.008122 47.9918777M-700.000131 1005.00013L257.008122 47.9918777M-690.000131 1005.00013L267.008122 47.9918777M-680.000131 1005.00013L277.008122 47.9918777M-670.000131 1005.00013L287.008122 47.9918777M-660.000131 995.000131L297.008122 37.9918777M-650.000131 995.000131L307.008122 37.9918777M-640.000131 995.000131L317.008122 37.9918777M-630.000131 995.000131L327.008122 37.9918777M-620.000131 995.000131L337.008122 37.9918777M-610.000131 995.000131L347.008122 37.9918777M-600.000131 995.000131L357.008122 37.9918777M-590.000131 995.000131L367.008122 37.9918777M-580.000131 995.000131L377.008122 37.9918777M-570.000131 995.000131L387.008122 37.9918777M-560.000131 995.000131L397.008122 37.9918777M-550.000131 995.000131L407.008122 37.9918777M-540.000131 995.000131L417.008122 37.9918777M-530.000131 995.000131L427.008122 37.9918777M-520.000131 995.000131L437.008122 37.9918777M-510.000131 995.000131L447.008122 37.9918777M-500.000131 995.000131L457.008122 37.9918777M-490.000131 995.000131L467.008122 37.9918777M-480.000131 995.000131L477.008122 37.9918777M-470.000131 995.000131L487.008122 37.9918777M-460.000131 995.000131L497.008122 37.9918777M-450.000131 995.000131L507.008122 37.9918777M-440.000131 995.000131L517.008122 37.9918777M-430.000131 995.000131L527.008122 37.9918777M-420.000131 995.000131L537.008122 37.9918777M-410.000131 995.000131L547.008122 37.9918777M-400.000131 995.000131L557.008122 37.9918777M-390.000131 995.000131L567.008122 37.9918777M-380.000131 995.000131L577.008122 37.9918777M-370.000131 995.000131L587.008122 37.9918777M-360.000131 995.000131L597.008122 37.9918777M-350.000131 995.000131L607.008122 37.9918777M-340.000131 995.000131L617.008122 37.9918777M-330.000131 995.000131L627.008122 37.9918777M-320.000131 995.000131L637.008122 37.9918777M-310.000131 995.000131L647.008122 37.9918777M-300.000131 995.000131L657.008122 37.9918777M-290.000131 995.000131L667.008122 37.9918777M-280.000131 995.000131L677.008122 37.9918777M-270.000131 995.000131L687.008122 37.9918777M-260.000131 995.000131L697.008122 37.9918777M-250.000131 995.000131L707.008122 37.9918777M-240.000131 995.000131L717.008122 37.9918777M-230.000131 995.000131L727.008122 37.9918777M-220.000131 995.000131L737.008122 37.9918777M-210.000131 995.000131L747.008122 37.9918777M-200.000131 995.000131L757.008122 37.9918777M-190.000131 995.000131L767.008122 37.9918777M-180.000131 995.000131L777.008122 37.9918777M-170.000131 995.000131L787.008122 37.9918777M-160.000131 995.000131L797.008122 37.9918777M-150.000131 995.000131L807.008122 37.9918777M-140.000131 995.000131L817.008122 37.9918777M-130.000131 995.000131L827.008122 37.9918777M-120.000131 995.000131L837.008122 37.9918777M-110.000131 995.000131L847.008122 37.9918777M-100.000131 995.000131L857.008122 37.9918777M-90.0001306 995.000131L867.008122 37.9918777M-80.0001306 995.000131L877.008122 37.9918777M-70.0001306 995.000131L887.008122 37.9918777M-60.0001306 995.000131L897.008122 37.9918777M-50.0001306 995.000131L907.008122 37.9918777M-40.0001306 995.000131L917.008122 37.9918777M-30.0001306 995.000131L927.008122 37.9918777M-20.0001306 995.000131L937.008122 37.9918777M-10.0001306 995.000131L947.008122 37.9918777M-.000130615393 995.000131L957.008122 37.9918777M9.99986938 995.000131L967.008122 37.9918777M19.9998694 995.000131L977.008122 37.9918777M29.9998694 995.000131L987.008122 37.9918777M39.9998694 995.000131L997.008122 37.9918777M49.9998694 995.000131L1007.00812 37.9918777M59.9998694 995.000131L1017.00812 37.9918777M69.9998694 995.000131L1027.00812 37.9918777" mask="url(#r)"/>
      </g>
    </g>
    <g stroke="#FFFFFF" stroke-width="2" opacity=".3" transform="translate(70 48)">
      <rect width="259" height="173" x="1" y="1"/>
      <rect width="259" height="173" x="1" y="622"/>
      <rect width="259" height="173" x="587" y="1"/>
      <rect width="259" height="173" x="587" y="622"/>
      <rect width="259" height="173" x="1" y="208"/>
      <rect width="259" height="173" x="1" y="829"/>
      <rect width="259" height="173" x="1" y="1243"/>
      <rect width="259" height="173" x="587" y="208"/>
      <rect width="259" height="173" x="587" y="829"/>
      <rect width="259" height="173" x="587" y="1243"/>
      <rect width="259" height="173" x="1" y="415"/>
      <rect width="259" height="173" x="1" y="1036"/>
      <rect width="259" height="173" x="1" y="1450"/>
      <rect width="259" height="173" x="587" y="415"/>
      <rect width="259" height="173" x="587" y="1036"/>
      <rect width="259" height="173" x="587" y="1450"/>
      <rect width="259" height="173" x="294" y="1"/>
      <rect width="259" height="173" x="294" y="622"/>
      <rect width="259" height="173" x="880" y="1"/>
      <rect width="259" height="173" x="880" y="622"/>
      <rect width="259" height="173" x="294" y="208"/>
      <rect width="259" height="173" x="294" y="829"/>
      <rect width="259" height="173" x="294" y="1243"/>
      <rect width="259" height="173" x="880" y="208"/>
      <rect width="259" height="173" x="880" y="829"/>
      <rect width="259" height="173" x="880" y="1243"/>
      <rect width="259" height="173" x="294" y="415"/>
      <rect width="259" height="173" x="294" y="1036"/>
      <rect width="259" height="173" x="294" y="1450"/>
      <rect width="259" height="173" x="880" y="415"/>
      <rect width="259" height="173" x="880" y="1036"/>
      <rect width="259" height="173" x="880" y="1450"/>
    </g>
  </g>
</svg>
