<svg xmlns="http://www.w3.org/2000/svg" width="76" height="38" viewBox="0 0 76 38">
  <defs>
    <filter id="a" width="120.6%" height="146.7%" x="-10.3%" y="-16.7%" filterUnits="objectBoundingBox">
      <feOffset dy="2" in="SourceAlpha" result="shadowOffsetOuter1"/>
      <feGaussianBlur stdDeviation="2" in="shadowOffsetOuter1" result="shadowBlurOuter1"/>
      <feColorMatrix values="0 0 0 0 0 0 0 0 0 0 0 0 0 0 0 0 0 0 0.092504529 0" in="shadowBlurOuter1" result="shadowMatrixOuter1"/>
      <feMerge>
        <feMergeNode in="shadowMatrixOuter1"/>
        <feMergeNode in="SourceGraphic"/>
      </feMerge>
    </filter>
  </defs>
  <g fill="#FFFFFF" filter="url(#a)" transform="translate(4 2)">
    <path d="M24.2717021,5.91340426 C23.8178723,5.61297872 23.146383,5.25425532 22.9732979,5.18829787 C22.2424468,4.90957447 21.7115957,4.99712766 21.2073404,5.34680851 C20.9169149,5.52712766 20.628617,5.83595745 20.2839362,6.23648936 L20.2828723,6.23755319 L12.4318085,14.8909574 L13.2392553,11.8567021 L14.6775532,7.80180851 C14.6775532,7.80117021 14.678617,7.80074468 14.678617,7.80074468 L14.6669149,7.79882979 L14.6732979,7.77861702 L14.6732979,7.77755319 C15.0956383,6.45414894 14.7807447,6.19776596 13.5615957,5.36797872 L13.4339362,5.28074468 C12.6243617,4.73180851 12.2296809,5.03180851 11.9498936,5.85414894 L11.2978723,7.23404255 L4.43829787,13.1952128 L6.4287234,7.54680851 C6.62808511,6.92382979 6.5906383,6.59819149 6.00234043,6.18851064 L6.00202128,6.18851064 L4.62968085,5.25574468 C4.12117021,4.91106383 3.69351064,4.97095745 3.1243617,5.28797872 L1.44457447,6.24925532 C0.925425532,6.53946809 0.799893617,6.83542553 1.22648936,7.12585106 L1.22755319,7.12659574 L2.86585106,8.24042553 L0.146702128,16.1731915 C-0.0543617021,16.8008511 -0.0575531915,17.2470213 0.388191489,17.5506383 L1.93712766,18.6044681 L1.93712766,18.605 C2.56691489,19.0335106 2.76797872,18.8447872 3.11904255,18.5167021 L3.11904255,18.5161702 L9.63393617,12.4691489 L8.62329787,15.0925532 L8.62223404,15.0948936 C8.0062766,17.0135106 8.11053191,17.2151064 9.42223404,18.1104255 C9.59031915,18.2257447 10.3264894,18.7542553 10.5020213,18.8029787 C11.1381915,18.9792553 11.5381915,18.6396809 12.0871277,17.9695745 L12.0881915,17.9685106 L21.2979787,7.53978723 L21.2384043,15.683617 L19.8532979,15.0851064 C19.3415957,14.8592553 18.7380851,14.6143617 18.7171277,15.4375532 L18.7171277,16.8279787 C18.7171277,17.445 19.0511702,18.1737234 19.7362766,18.4571277 L20.6639362,18.8435106 C21.3873404,19.1552128 21.7245745,19.2424468 22.4564894,18.8424468 C22.502234,18.8169149 24.0096809,17.9647872 24.0394681,17.947766 C24.7398936,17.5520213 24.9043617,17.2073404 24.947234,16.6307447 L24.966383,15.9201064 L24.966383,15.9190426 L25.047234,7.76478723 C25.0493617,6.68180851 24.7706383,6.24244681 24.2695745,5.91159574"/>
    <path d="M66.3678723,5.81574468 C65.9838298,5.36521277 65.6878723,5.20829787 65.0417021,5.20829787 C64.3119149,5.20829787 63.8131915,5.55329787 63.8131915,5.55329787 L62.5490426,6.30968085 C62.0309574,6.60010638 61.9054255,6.89585106 62.3320213,7.18734043 L62.3330851,7.18840426 L63.971383,8.30223404 C64.1256383,8.42670213 64.052234,10.1692553 63.4958511,11.6692553 C62.9181915,13.2267021 62.5160638,13.9447872 61.6064894,15.0118085 C60.8001064,15.958617 59.5064894,16.8671277 58.5969149,16.3767021 C57.6235106,15.852234 57.6607447,14.3139362 58.8075532,11.652234 C59.2979787,10.515 60.115,9.20861702 60.6043617,8.36819149 C61.0947872,7.52882979 60.8394681,6.79585106 60.0405319,6.1862766 L58.9139362,5.34053191 C58.1341489,4.83095745 57.0830851,4.88308511 56.2001064,5.76074468 L48.858617,13.4745745 L50.0958511,9.46180851 L50.4288298,8.61819149 C50.4288298,8.61819149 50.4298936,8.61819149 50.4298936,8.61712766 C50.8532979,7.2937234 50.3979787,7.03734043 49.1788298,6.20755319 L49.0511702,6.12031915 C48.2415957,5.57138298 47.8479787,5.87138298 47.5681915,6.6937234 L47.552234,6.72670213 L40.6596809,13.1681915 L42.4511702,7.7043617 C42.452234,7.7043617 42.452234,7.70329787 42.452234,7.70329787 C42.7969149,6.62989362 41.9064894,6.04691489 40.8862766,5.35329787 C39.8660638,4.65968085 39.358617,5.10329787 38.515,6.08414894 L38.515,6.08521277 L30.665,14.8788298 L33.7160638,5.3756383 C34.0245745,4.41180851 33.8256383,4.06925532 33.2735106,3.66925532 L32.0873404,3.02882979 L51.6276596,3.02882979 C52.0723404,3.02670213 52.1258511,2.76287234 51.8946809,2.30542553 L51.156383,0.808510638 C50.9021277,0.307446809 50.6251064,0.0514893617 50.0968085,0.0531914894 L12.8574468,0.0531914894 C12.4121277,0.0553191489 12.3587234,0.326595745 12.5898936,0.784042553 L13.3260638,2.28031915 C13.5803191,2.78106383 13.8569149,3.02989362 14.3856383,3.02819149 L30.712766,3.02819149 L26.8535106,15.0787234 L26.852766,15.081383 C26.2368085,16.9994681 26.3412766,17.2015957 27.652234,18.0962766 C28.9639362,18.9920213 29.3001064,19.1973404 30.3181915,17.9547872 L30.3192553,17.9537234 L39.208617,7.67606383 L36.377766,16.0984043 C36.102234,17.0090426 36.177766,17.3409574 36.602234,17.6292553 C37.0735106,17.9505319 37.3735106,18.1547872 37.9362766,18.5367021 C38.4958511,18.9175532 38.7437234,18.9973404 39.4618085,18.3207447 L46.4894681,11.6345745 L44.6809574,16.0937234 C44.3176596,17.2330851 44.471383,17.3788298 45.4988298,18.077766 C45.5005319,18.0788298 45.5020213,18.0798936 45.5038298,18.0820213 L46.1453191,18.5181915 C46.7610638,18.9128723 47.1697872,19.0128723 47.7704255,18.327766 L56.8704255,8.53202128 C56.3388298,9.55542553 55.7092553,10.5692553 55.3443617,11.6655319 C54.497766,14.2096809 54.2170213,18.1853191 57.6367021,18.887234 C58.1,18.9823404 58.6306383,19.0542553 59.0190426,19.043617 C63.9005319,18.8723404 66.5432979,13.9517021 67.1012766,10.0457447 C67.4555319,7.56382979 66.9310638,6.47606383 66.367234,5.81510638 L66.3678723,5.81574468 Z M9.44255319,27.2042553 C9.44255319,26.7825532 9.4887234,26.4003191 9.5812766,26.0574468 C9.67425532,25.7148936 9.81574468,25.4220213 10.0062766,25.1795745 C10.1956383,24.9370213 10.4371277,24.7497872 10.7275532,24.6175532 C11.0179787,24.4856383 11.3615957,24.4196809 11.7573404,24.4196809 C12.0392553,24.4196809 12.297766,24.4582979 12.5339362,24.5356383 C12.7701064,24.6132979 12.9743617,24.7260638 13.1488298,24.8747872 C13.322234,25.0237234 13.4626596,25.2035106 13.5690426,25.4141489 C13.6754255,25.6247872 13.7360638,25.8598936 13.7520213,26.1194681 L12.7381915,26.1194681 C12.6796809,25.5588298 12.3275532,25.2779787 11.6828723,25.2779787 C11.3403191,25.2779787 11.0615957,25.3769149 10.8488298,25.5758511 C10.635,25.7747872 10.528617,26.0396809 10.528617,26.3726596 L10.528617,27.9960638 C10.528617,28.1567021 10.5584043,28.3045745 10.6179787,28.4396809 C10.6775532,28.5758511 10.7594681,28.6928723 10.8637234,28.7907447 C10.9669149,28.888617 11.0903191,28.9652128 11.2307447,29.0194681 C11.3711702,29.0745745 11.5254255,29.101383 11.6935106,29.101383 C12.0360638,29.101383 12.3094681,29.0160638 12.5137234,28.8439362 C12.7179787,28.6726596 12.8201064,28.4035106 12.8201064,28.0352128 L12.8201064,27.8064894 L11.7340426,27.8064894 L11.7340426,26.9490426 L13.8404255,26.9490426 L13.8404255,29.8447872 L12.8957447,29.8447872 L12.872766,29.3612766 C12.6007447,29.7623404 12.1770213,29.9634043 11.6004255,29.9634043 C11.2421277,29.9634043 10.9280851,29.8940426 10.6574468,29.7556383 C10.3869149,29.6173404 10.1617021,29.4261702 9.9812766,29.182234 C9.80085106,28.938617 9.66574468,28.6481915 9.57553191,28.3120213 C9.48542553,27.9758511 9.44042553,27.6082979 9.44042553,27.2098936 L9.44255319,27.2042553 Z M21.0747872,27.8567021 L22.3641489,27.8567021 L21.7497872,25.7652128 L21.7152128,25.7652128 L21.0743617,27.8567021 L21.0747872,27.8567021 Z M19.3784043,29.845 L21.1852128,24.538617 L22.265,24.538617 L24.0639362,29.845 L22.9745745,29.845 L22.6235106,28.7130851 L20.8118085,28.7130851 L20.4692553,29.845 L19.3798936,29.845 L19.3784043,29.845 Z M30.1879787,29.845 L30.1879787,24.538617 L31.8401064,24.538617 L32.8725532,28.7067021 L32.9038298,28.7067021 L33.9170213,24.5391489 L35.5779787,24.5391489 L35.5779787,29.8455319 L34.6029787,29.8455319 L34.6029787,25.6382979 L34.5114894,25.6234043 L33.4225532,29.843617 L32.2789362,29.843617 L31.1914894,25.6361702 L31.1638298,25.6361702 L31.1638298,29.8404255 L30.1879787,29.845 Z M42.1943617,29.8404255 L42.1943617,24.5340426 L45.8438298,24.5340426 L45.8438298,25.3948936 L43.2085106,25.3948936 L43.2085106,26.697766 L45.4864894,26.697766 L45.4864894,27.5541489 L43.2085106,27.5541489 L43.2085106,28.9828723 L45.8446809,28.9828723 L45.8446809,29.8392553 L42.1943617,29.8404255 Z M51.9226596,28.2541489 L52.9360638,28.2541489 C52.9764894,28.5669149 53.0956383,28.7892553 53.2935106,28.922234 C53.491383,29.0552128 53.7467021,29.122234 54.0594681,29.122234 C54.3562766,29.122234 54.6062766,29.0605319 54.8094681,28.9371277 C55.0126596,28.8137234 55.1137234,28.6360638 55.1137234,28.4020213 C55.1137234,28.2137234 55.0552128,28.0647872 54.9381915,27.9520213 C54.8211702,27.8403191 54.6424468,27.7541489 54.4009574,27.6924468 L53.3647872,27.4179787 C52.9275532,27.3030851 52.6041489,27.1158511 52.3935106,26.8554255 C52.1828723,26.595 52.0775532,26.2705319 52.0775532,25.8820213 C52.0775532,25.668617 52.1232979,25.4719149 52.2147872,25.2915957 C52.3062766,25.1111702 52.435,24.9564894 52.6009574,24.8267021 C52.7669149,24.697234 52.9701064,24.5962766 53.2084043,24.5239362 C53.4467021,24.4515957 53.7147872,24.4154255 54.0126596,24.4154255 C54.2818085,24.4154255 54.5318085,24.4470213 54.7647872,24.5090426 C54.9967021,24.571383 55.1988298,24.6675532 55.3701064,24.7968085 C55.541383,24.9265957 55.6818085,25.0925532 55.7903191,25.2957447 C55.8988298,25.4989362 55.9669149,25.7379787 55.9924468,26.0123404 L54.978617,26.0123404 C54.9626596,25.8676596 54.9254255,25.7458511 54.8658511,25.646383 C54.8062766,25.5474468 54.7318085,25.4682979 54.6435106,25.4080851 C54.5541489,25.3485106 54.4541489,25.307766 54.3424468,25.2846809 C54.2307447,25.2619149 54.1147872,25.2506383 53.9956383,25.2506383 C53.7137234,25.2506383 53.4924468,25.3062766 53.3307447,25.4179787 C53.1690426,25.5296809 53.0881915,25.681383 53.0881915,25.8743617 C53.0881915,26.0764894 53.1509574,26.2307447 53.2775532,26.3360638 C53.4030851,26.441383 53.5935106,26.5275532 53.847766,26.5959574 L54.7509574,26.8310638 C55.2020213,26.9509574 55.5445745,27.1317021 55.7764894,27.3734043 C56.0084043,27.6155319 56.1243617,27.9553191 56.1243617,28.3931915 C56.1243617,28.6368085 56.0754255,28.8548936 55.9764894,29.0478723 C55.8775532,29.2414894 55.7371277,29.4051064 55.5556383,29.5393617 C55.3741489,29.6742553 55.1567021,29.7765957 54.9042553,29.8478723 C54.6521277,29.9191489 54.3744681,29.9548936 54.0723404,29.9548936 C53.775,29.9548936 53.5010638,29.9240426 53.2494681,29.8617021 C52.9973404,29.7989362 52.7771277,29.7 52.5856383,29.5641489 C52.3952128,29.4279787 52.2420213,29.2524468 52.125,29.0364894 C52.0079787,28.8205319 51.9398936,28.5590426 51.9193617,28.2515957 L51.9226596,28.2541489 Z"/>
  </g>
</svg>
