<svg xmlns="http://www.w3.org/2000/svg" width="800" height="600" viewBox="0 0 800 600" style="background:#000">
  <g fill="none" transform="translate(-51)">
    <rect width="969.86" height="579.31" x=".56" y=".05" fill="#000000"/>
    <path fill="#362C3B" d="M3.38,71.2 C-5.35,45.65 9.26,8.36 41.16,15.2 C51.03,17.31 57.81,25.25 68.47,25.42 C74.83,25.52 81.47,22.6 84.52,17 C87.57,11.4 85.52,3.24 79.67,0.77 C86.67,3.19 90.5,11.52 89.12,18.77 C87.74,26.02 82.05,31.96 75.36,35.11 C68.49,38.34 60.03,38.8 53.36,35.43 C56.7738908,42.5051667 60.6004828,49.3736655 64.82,56 C77.18,74.54 94.18,79.76 114.08,87.19 C125.85,91.59 135.98,97.96 137.86,111.36 C138.736245,116.816343 137.510482,122.40196 134.43,126.99 C136.122209,120.939958 134.297513,114.451292 129.7,110.17 C125.7,106.3 120.4,104.09 115.05,102.57 C102.05,98.87 88.34,98.73 75.05,96.57 C58.8271634,94.096063 43.8572914,86.3881416 32.42,74.62 C23.6602861,65.3390309 18.0085771,53.5602683 16.25,40.92 C15.2539788,41.9188709 14.4654968,43.1049925 13.93,44.41 C5.89835122,61.8871356 11.9630994,82.6104909 28.15,93 C20.4378024,91.8924378 13.4682316,87.8026175 8.74,81.61 C6.41443757,78.4450558 4.60531797,74.9314485 3.38,71.2 Z" opacity=".5" transform="translate(73 360)"/>
    <path fill="#FFFFFF" d="M1.56,53.1 C7.56,17.5 48.46,-17.06 81.63,11.26 C91.89,20.02 94.81,33.67 107.24,40.65 C114.65,44.81 124.38,45.65 131.47,40.96 C138.56,36.27 141.41,25.42 136.1,18.79 C142.77,26.08 142,38.32 135.76,45.99 C129.52,53.66 119.06,56.99 109.19,56.45 C99.06,55.88 88.82,51.04 83.12,42.82 C82.85,53.32 82.54,63.82 83.51,74.27 C85.22,92.85 91.61,112.06 106.98,124.92 C119.58,135.46 137.38,141.05 147.51,153.48 L151.74,157.76 C128.17,148.62 102.13,144.24 80.21,132.34 C57.01,119.74 39.84,98.85 33.51,75.54 C29.1171666,59.0546833 29.9664776,41.6106033 35.94,25.63 C34.1326568,26.1715331 32.4503433,27.0653683 30.99,28.26 C10.3683477,43.7118691 4.31077273,72.0104347 16.8,94.55 C8.43320045,88.339744 2.83861415,79.0932358 1.22,68.8 C0.500436249,63.5817273 0.615202451,58.2822292 1.56,53.1 Z" opacity=".3" transform="translate(88 316)"/>
    <path fill="#362C3B" d="M135.24,71.2 C143.97,45.65 129.36,8.36 97.46,15.2 C87.59,17.31 80.81,25.25 70.15,25.42 C63.79,25.52 57.15,22.6 54.1,17 C51.05,11.4 53.1,3.24 58.95,0.77 C51.95,3.19 48.12,11.52 49.5,18.77 C50.88,26.02 56.57,31.96 63.26,35.11 C70.13,38.34 78.59,38.8 85.26,35.43 C81.8493549,42.5049269 78.0261048,49.3734208 73.81,56 C61.45,74.54 44.45,79.76 24.55,87.19 C12.78,91.59 2.65,97.96 0.77,111.36 C-0.106244731,116.816343 1.11951753,122.40196 4.2,126.99 C2.50779064,120.939958 4.33248684,114.451292 8.93,110.17 C12.93,106.3 18.23,104.09 23.58,102.57 C36.58,98.87 50.29,98.73 63.58,96.57 C79.8028366,94.096063 94.7727086,86.3881416 106.21,74.62 C114.969714,65.3390309 120.621423,53.5602683 122.38,40.92 C123.376021,41.9188709 124.164503,43.1049925 124.7,44.41 C132.729769,61.8895556 126.660561,82.6135766 110.47,93 C118.182198,91.8924378 125.151768,87.8026175 129.88,81.61 C132.205562,78.4450558 134.014682,74.9314485 135.24,71.2 L135.24,71.2 Z" opacity=".5" transform="translate(691 375)"/>
    <path fill="#FFFFFF" d="M151.06,53.1 C145.06,17.5 104.16,-17.06 70.99,11.26 C60.73,20.02 57.81,33.67 45.38,40.65 C37.97,44.81 28.24,45.65 21.15,40.96 C14.06,36.27 11.21,25.42 16.52,18.79 C9.85,26.08 10.62,38.32 16.86,45.99 C23.1,53.66 33.56,56.99 43.43,56.45 C53.56,55.88 63.8,51.04 69.5,42.82 C69.77,53.32 70.08,63.82 69.11,74.27 C67.4,92.85 61.01,112.06 45.64,124.92 C33.04,135.46 15.24,141.05 5.11,153.48 L0.88,157.76 C24.45,148.62 50.49,144.24 72.41,132.34 C95.61,119.74 112.78,98.85 119.11,75.54 C123.502833,59.0546833 122.653522,41.6106033 116.68,25.63 C118.487343,26.1715331 120.169657,27.0653683 121.63,28.26 C142.251652,43.7118691 148.309227,72.0104347 135.82,94.55 C144.18082,88.3403059 149.77142,79.0980419 151.39,68.81 C152.113932,63.5889758 152.00254,58.2860187 151.06,53.1 L151.06,53.1 Z" opacity=".3" transform="translate(662 322)"/>
    <path fill="#6D1F0F" d="M690.39,459.63 C684.02,462.75 677.66,465.99 672.08,470.36 C662.72,477.68 658.48,486.27 657.81,497.98 C660.3,491.47 666.55,487.15 672.98,484.47 C682.28,480.59 692.31,478.47 701.5,474.4"/>
    <path fill="#766D7C" d="M514.71 504.08C540.6 497 565.59 484 582.57 463.22 599.55 442.44 607.37 413.17 598.48 387.84 587.84 357.51 552.48 338.2 521.23 345.63L525.23 340.55C554.76 333.18 585.86 349.87 605.43 373.16 615.3 384.91 623.26 398.84 625.11 414.07 628.66 443.28 608.67 471.29 583.3 486.2 557.93 501.11 528 505.61 498.85 509.84M418.15 509.49L379.85 498.2C367.43 494.54 354.92 490.84 343.46 484.81 330.770871 478.12752 319.693098 468.756121 311 457.35 295 436.24 288.59 405.15 303.65 383.35 311.65 371.71 324.7 364.24 338.3 360.35 346.2 358.07 354.92 356.59 360.69 350.73 370.76 340.51 364.15 320.36 350.29 316.64 336.43 312.92 321.29 324.9 319.98 339.19 317.74 322.27 335.37 307.27 352.41 308.19 369.45 309.11 383.92 322.19 391.35 337.6 398.78 353.01 400.46 370.39 401.83 387.4"/>
    <path fill="#362C3B" d="M389.14,355.81 C381.697221,346.225493 376.521153,335.080195 374,323.21 C372.26,314.98 371.84,306.33 374,298.21 C376.66,288.21 383.13,279.43 391,272.66 C402.63,262.66 416.41,256.66 431,252.6 C453.34,246.44 476.88,244.08 498,234.6 C503.24,232.26 508.49,229.33 511.76,224.6 C515.03,219.87 515.76,212.95 511.97,208.6 C509.15,205.32 504.59,204.2 500.3,203.6 C472.67,199.96 443,211.71 417.49,200.47 C406.17,195.47 406.17,185.75 414.35,177.35 C425.35,166.04 441.65,161.07 452.72,149.8 C454.305562,148.389842 455.471623,146.569818 456.09,144.54 C457.09,140.29 453.2,135.97 448.87,135.48 C444.54,134.99 440.3,137.6 437.75,141.14 C440.592816,137.229627 444.590396,134.309261 449.18,132.79 C453.82375,131.306871 458.89176,132.044573 462.92,134.79 C469.81,139.79 470.35,150.1 467.75,158.23 C466.75,161.34 465.41,164.35 464.82,167.56 C464.23,170.77 464.52,174.33 466.52,176.91 C469.98,181.36 481.52,179.45 486.72,179.81 C494.72,180.37 502.78,180.81 510.72,182.09 C530.26,185.35 551.57,198.58 551.33,218.39 C551.15,233.39 538.48,245.28 525.24,252.28 C512,259.28 497.09,263.48 485.46,272.93 C480.53,276.93 476.02,283.57 478.89,289.24 C480.28,292 483.09,293.7 485.76,295.24 L514.68,312.16"/>
    <path fill="#992816" d="M561.11,350.62 C561.634061,361.102394 557.872586,371.347178 550.69,379 C555.752933,345.779344 553.528157,311.854915 544.17,279.58 C549.1,296.58 545.98,322.11 541.17,338.73 C533.26,294.09 521.92,250.36 500.17,210.03 C492.680466,196.093365 484.195102,182.715297 474.78,170 C468.66,161.75 459.37,153.63 451.37,147.15 C478.212146,191.83557 473.796822,248.620644 440.37,288.62 C445.8,272.86 447.68,254.19 441.84,238.41 C436.76,224.69 429.49,210.01 417.12,201.41 C429.51,223.8 426.64,248.41 417.12,271.35 C408.52,292.23 394.94,310.67 385.12,331.02 C375.21,351.65 366.76,377.37 367.87,400.55 C359.82,385.36 358.32,366.71 359.36,349.84 C360.23,335.67 361.58,311.06 369.73,298.98 C359.16,314.65 353.94,333.22 348.89,351.42 C344.17,368.42 339.42,385.62 338.96,403.25 C338.352514,435.222451 351.748001,465.863669 375.63,487.13 C395.32,504.42 427.08,515.77 458.79,517.68 L459.3,517.68 L459.91,517.68 C461.07,517.75 462.23,517.8 463.4,517.84 L463.4,517.84 C508.96,519.28 547.75,494.48 563.85,450.84 C575.21,420.42 569.91,381.26 561.11,350.62 Z"/>
    <path fill="#49140F" d="M535.08,423.84 C531.02,431.3 527.03,438.84 522.9,446.23 C523.74,436.68 526.01,427.99 524.85,418.23 C523.67,408.3 519.02,400.95 516,391.82 C521.3,407.82 514.72,427.04 500.7,436.44 C509.18,414.09 506.07,383.51 497.27,361.69 C493.39,352.08 487.27,343.62 483.27,334.24 C489.242363,348.604783 486.262473,365.13496 475.65,376.51 C477.53,363.98 475.71,351.12 472.1,338.97 C469.672085,331.102048 466.746179,323.396492 463.34,315.9 C460.47,309.39 456.29,302.9 457.41,295.47 C457.73,293.34 458.11,290.04 459.67,288.41 C455.03,293.24 454.94,299.7 454.54,305.94 C454,314.45 454.41,322.82 453.16,331.31 C449.24,358.03 439.3,386.31 426.76,410.12 C423.08,404.57 422.19,397.67 421.76,391.02 C421.24566,383.457155 421.182214,375.870389 421.57,368.3 C420.57,374.95 417.09,380.91 414.21,386.99 C406.69,402.87 400.91,424.34 403.41,441.8 C395.66,438.17 390.41,431.62 386.96,423.92 C385.3,420.2 379.05,405.52 381.14,401.75 C375.43,412.03 373.3,422.67 373.01,434.24 C372.56993,457.586567 382.35218,479.960085 399.79,495.49 C414.16,508.12 437.36,516.4 460.51,517.8 L460.88,517.8 L461.32,517.8 C462.17,517.8 463.02,517.89 463.87,517.92 L463.87,517.92 C485.82,518.61 507.63,510.46 522.39,493.92 C528.45,487.12 531.47,477.46 533.39,468.22 C533.91,465.76 534.39,463.33 534.75,461 C535.872089,454.456284 536.437447,447.829224 536.44,441.19 C536.38,437.61 533.57,426.61 535.08,423.84 Z"/>
    <path fill="#FFFFFF" d="M346.78 469.62C344.482443 465.83472 342.668309 461.776434 341.38 457.54 334.573151 435.685739 336.324684 412.061492 346.28 391.45 354.249988 375.209409 366.628201 361.538622 382 352 398.61 341.62 414.76 331.39 433.09 323.84 459.45 312.98 488.09 305.84 511.86 289.62 531.8 276.03 548.73 253.11 547.19 227.91 545.65 202.51 524.14 183.91 500.58 178.2 499.75 178 498.92 177.82 498.09 177.65L496.81 177.39C496.64 177.39 496.47 177.29 496.3 177.26 496.108828 177.253387 495.918359 177.233337 495.73 177.2 494.878834 176.984667 494.01326 176.830936 493.14 176.74 492.22 176.6 491.3 176.476667 490.38 176.37 488.533333 176.156667 486.68 176.006667 484.82 175.92 482.96 175.833333 481.103333 175.793333 479.25 175.8 478.276667 175.8 477.303333 175.82 476.33 175.86 470.313696 176.058958 464.322132 176.727659 458.41 177.86 446.93 180.06 440.15 182.36 431.5 190.86 427.88 194.43 424.5 200.15 427.58 204.19 429 206.06 431.4 206.86 433.69 207.4 443.43 209.72 452.28 208.93 461.6 205.75 467.826954 203.744994 473.769307 200.945232 479.28 197.42 488.82 191.07 495.98 181.13 496.8 169.42 497.265397 164.128081 495.979477 158.829808 493.14 154.34 490 149.57 485.14 146.34 480.03 144.02 474.34 141.44 468.57 139.02 462.92 136.29 456.646651 133.21827 451.492287 128.259731 448.18 122.11 447.350844 120.6331 446.731554 119.047853 446.34 117.4 445.970393 115.484613 445.923076 113.520966 446.2 111.59 447.045856 105.215857 450.108087 99.342745 454.85 95 460.07 90.26 467.31 89.12 473.95 87.31 461.95 90.58 448.32 94.63 442.52 106.77 440.072363 111.608231 439.8641 117.275159 441.95 122.28 444 126.97 447.95 130.54 452.22 133.2 462.46 139.57 475.04 140.56 485.22 147.03 490.693137 150.298349 494.648416 155.602018 496.22 161.78 497.445316 167.70103 496.849162 173.85431 494.51 179.43 489.41 192.32 477.51 199.95 465.03 204.67 458.673231 206.971215 452.20117 208.940537 445.64 210.57 438.32 212.5 429.28 214.13 423.55 207.8 411.76 194.8 439.3 183.26 448.26 180.52 479.57 170.93 516.26 175.6 533.38 206.9 547.16 232.11 539.91 261.79 520.38 281.45 497.12 304.86 462.67 311.72 433.1 323.9 419.1 329.65 405.43 336.05 392.1 343.13 380.17 349.47 368.52 356.47 358.01 364.99 337.92 381.26 321.77 404.46 321.01 431.1 320.655838 443.963721 325.438004 456.439095 334.3 465.77 336.993268 468.621297 339.945995 471.215813 343.12 473.52 344.78 474.733333 346.49 475.876667 348.25 476.95 349.95 477.95 351.9 479.52 353.97 479.51 354.51 479.51 352.71 477.69 352.68 477.66 351.877376 476.873745 351.135266 476.028008 350.46 475.13 349.11 473.33 347.95 471.47 346.78 469.62zM412.81 508.49L413.81 509.2C415.05344 510.107622 416.485688 510.722907 418 511 402.88 509.92 388.06 499.21 382.88 484.86 381.323751 480.599674 380.742828 476.044551 381.18 471.53 382.67 457 392.48 445 404 436.64 414.93 428.64 427.52 422.91 440.16 418.26 452.79384 413.76461 465.695501 410.060768 478.79 407.17 491.9 404.17 505.1 401.52 518.23 398.57 531.279843 395.777904 544.166021 392.269258 556.83 388.06 569.363704 383.912031 581.37135 378.317635 592.61 371.39 603.06 364.77 613.19 355.53 615.03 342.66 615.973467 337.039749 614.911591 331.266684 612.03 326.35 608.69 321.03 603.03 317.88 597.14 316.02 584.33422 312.079465 570.562051 312.669196 558.14 317.69 555.029411 318.823769 552.088754 320.378213 549.4 322.31 558.77 321.06 567.91 319.75 577 323.37 585.51 326.76 592.65 334.68 593 343.83 593.27 351.09 589.42 357.83 584.92 363.58 560.92 394.04 519.36 400.37 484.35 411.21 452.35 421.12 413.29 435.34 399.22 468.62 396.95 473.98 395.53 479.85 396.22 485.62 397.32 495.38 405.1 503.08 412.81 508.49z"/>
    <path fill="#6D1F0F" d="M679.77,439.5 C678.117967,442.445523 676.023578,445.120001 673.56,447.43 C670.99,449.78 667.75,452 664.15,452.13 C660.74,452.26 657.15,449.88 656.74,446.49 C656.918352,450.987001 659.463401,455.053754 663.43,457.18 C667.417435,459.219779 672.11985,459.319282 676.19,457.45 C680.217975,455.536868 683.34982,452.139854 684.93,447.97 C685.892438,445.459986 686.30836,442.773539 686.15,440.09 C685.91471,437.752326 685.445699,435.444122 684.75,433.2 C682.4,434.46 681.17,437.05 679.85,439.36 L679.77,439.5 Z"/>
    <path fill="#B76F4B" d="M680.33,413.53 C675.65,411.65 670.08,415.19 669.13,420 C668.932444,421.129418 668.902119,422.281755 669.04,423.42 C669.26,425.63 670.2,427.59 670.57,429.73 C671.001728,429.570938 671.419778,429.376963 671.82,429.15 C673.279126,431.424438 675.787841,432.808557 678.49,432.83 C681.191337,432.790475 683.675478,431.341708 685.04,429.01 C686.194852,426.631194 686.460871,423.917799 685.79,421.36 C685.13,418.11 683.41,414.77 680.33,413.53 Z"/>
    <path fill="#FFFFFF" d="M669.51,419.77 C670.63,419.6 671.76,419.42 672.89,419.27 C676.848515,418.716752 680.834605,418.382908 684.83,418.27 C685.118575,418.918167 685.35922,419.586627 685.55,420.27 L670.1,422.2 C669.729663,422.258019 669.354034,422.274789 668.98,422.25 C668.947915,421.486408 669.001584,420.721627 669.14,419.97 L669.14,419.81 L669.51,419.77 Z"/>
    <path fill="#49140F" d="M677,424.35 C675.773333,424.396667 674.55,424.49 673.33,424.63 C672.863932,424.648265 672.408542,424.774953 672,425 C672,425.13 672.15,425.19 672.28,425.19 L677.87,425.1"/>
    <path fill="#000000" d="M706.61,415.65 C706.5772,416.236125 706.387219,416.802613 706.06,417.29 C705.464616,418.029435 704.587198,418.486272 703.64,418.55 C703.95,418.55 702.69,420.97 702.51,421.16 C701.734098,421.962165 700.606208,422.31933 699.51,422.11 C699.42,422.11 697.93,423.36 697.64,423.48 C696.799899,423.844141 695.881947,423.991976 694.97,423.91 C694.43,423.86 693.97,423.67 693.5,423.91 C693.03,424.15 692.45,424.91 691.74,425.16 C690.83,425.53 689.87,425.38 688.97,425.76 C687.939074,426.193951 686.862161,426.509308 685.76,426.7 C683.454524,427.07279 681.095216,426.932802 678.85,426.29 C675.61391,425.336618 672.712668,423.489112 670.48,420.96 C668.67,418.96 668.15,416.28 670.61,414.54 C673.186867,412.735513 676.27525,411.806544 679.42,411.89 C682.42,411.97 684.76,413.95 686.49,416.27 C687.951222,418.384341 689.1721,420.65504 690.13,423.04 C690.839006,422.236472 692.0284,422.070806 692.93,422.65 C694.058931,420.676331 696.522125,419.912042 698.57,420.9 C699.220461,419.543941 700.517167,418.612876 702.01,418.43 C702.237428,418.431345 702.460148,418.365225 702.65,418.24 C702.800905,418.068376 702.898244,417.856315 702.93,417.63 C703.249111,416.524477 704.028852,415.609921 705.07,415.12 C705.401206,415.015603 705.702837,414.833939 705.95,414.59 C706.174601,414.18534 706.255663,413.716586 706.18,413.26 C706.166984,412.091266 706.535638,410.950196 707.23,410.01 C706.68,409.14 706.02,408.01 706.37,407.01 C706.51,406.62 706.8,406.25 706.76,405.83 C706.721999,405.62505 706.647482,405.428595 706.54,405.25 C705.93606,404.037886 705.719604,402.66933 705.92,401.33 C706.02607,401.98922 706.301759,402.609522 706.72,403.13 C707.111118,403.530485 707.447384,403.981081 707.72,404.47 C707.982351,404.972647 707.927657,405.582097 707.58,406.03 C707.974349,407.023835 708.141757,408.093197 708.07,409.16 C708.07,409.6 707.81,409.87 707.86,410.27 C707.93,410.87 708.51,411.27 708.47,412.03 C708.43804,412.781136 708.071063,413.478392 707.47,413.93 C706.941543,414.346692 706.626279,414.977219 706.61,415.65 L706.61,415.65 Z"/>
    <path fill="#B76F4B" d="M679.89,475.49 C679.966527,475.241893 680.056664,474.998191 680.16,474.76 C681.53,471.65 684.38,469.16 686.08,466.23 C686.737522,465.10141 687.137079,463.841269 687.25,462.54 C687.329991,459.74186 686.51361,456.99139 684.92,454.69 C684.75,454.41 684.62,453.95 684.24,453.9 C684.096935,453.887601 683.953065,453.887601 683.81,453.9 C683.605528,453.90311 683.401236,453.886365 683.2,453.85 C682.69034,453.78032 682.185889,453.676757 681.69,453.54 C681.11114,453.371712 680.57325,453.085746 680.11,452.7 L678.99,451.76 C678.99,451.76 678.41,451.23 678.39,451.24 C680.74,449.54 681.27,446.24 681.28,443.39 C681.29,440.54 681.03,437.39 682.43,434.88 C682.824947,434.100608 683.435952,433.451415 684.19,433.01 C684.840789,432.706553 685.536489,432.510676 686.25,432.43 C689.19,431.94 692.1,431.7 695.08,431.49 C697.841774,431.257308 700.618226,431.257308 703.38,431.49 C708.21,431.95 713.07,433.49 716.74,436.67 C718.770871,438.329165 720.220874,440.591729 720.88,443.13 C721.511672,445.71008 720.779763,448.43399 718.94,450.35 C719.975056,446.273258 717.676475,442.09124 713.68,440.78 C708.88,439.37 704.23,442.73 699.36,444.19 C701.748922,446.482595 703.968098,448.945748 706,451.56 C708.73,455.08 711.21,459.18 711,463.63 C710.77,469.48 706,474.21 700.83,476.97 C696.28,479.4 691.75,481.5 691.94,487.36 C692.114932,489.936112 692.574395,492.484956 693.31,494.96 C693.74,496.62 695.57,500.96 694.65,502.49 C693.89767,500.0681 692.573758,497.862723 690.79,496.06 C688.376667,493.393333 686.07,490.626667 683.87,487.76 C682.345897,485.928899 681.099238,483.883704 680.17,481.69 C679.397982,479.710234 679.299578,477.531295 679.89,475.49 Z"/>
    <path fill="#49140F" d="M677.56,425.39 L673.22,425.65 C673.127561,425.64235 673.036351,425.675186 672.97,425.74 C672.922242,425.840153 672.95654,425.960195 673.05,426.02 C673.144368,426.073792 673.251387,426.10141 673.36,426.1 C675.183167,426.252388 677.018387,426.168357 678.82,425.85 C679.11,425.8 679.48,425.77 679.65,426.02"/>
    <path fill="#6D1F0F" d="M679.38,450.35 C679.648418,450.939496 679.704939,451.603622 679.54,452.23 L679.22,451.96 C679.297814,451.523768 679.256354,451.074617 679.1,450.66 L679.38,450.35 Z"/>
    <path fill="#B76F4B" d="M682.74,433.16 C682.767614,433.16 682.79,433.137614 682.79,433.11 C682.79,433.082386 682.767614,433.06 682.74,433.06 C682.712386,433.06 682.69,433.082386 682.69,433.11 C682.69,433.137614 682.712386,433.16 682.74,433.16 L682.74,433.16 Z"/>
    <path fill="#000000" d="M701.55 412.09C701.5172 412.676125 701.327219 413.242613 701 413.73 700.404616 414.469435 699.527198 414.926272 698.58 414.99 698.89 414.99 697.63 417.41 697.45 417.6 696.674098 418.402165 695.546208 418.75933 694.45 418.55 694.36 418.55 692.87 419.8 692.58 419.92 691.739899 420.284141 690.821947 420.431976 689.91 420.35 689.37 420.3 688.91 420.11 688.44 420.35 687.56 420.78 685.88 422.78 684.85 421.35 684.622293 420.992836 684.567217 420.552225 684.7 420.15 684.835298 419.518559 685.328559 419.025298 685.96 418.89 686.11 418.89 688.03 418.8 687.86 419.11 688.988931 417.136331 691.452125 416.372042 693.5 417.36 694.150461 416.003941 695.447167 415.072876 696.94 414.89 697.167428 414.891345 697.390148 414.825225 697.58 414.7 697.730905 414.528376 697.828244 414.316315 697.86 414.09 698.179111 412.984477 698.958852 412.069921 700 411.58 700.331206 411.475603 700.632837 411.293939 700.88 411.05 701.104601 410.64534 701.185663 410.176586 701.11 409.72 701.096984 408.551266 701.465638 407.410196 702.16 406.47 701.61 405.6 700.95 404.47 701.3 403.47 701.44 403.08 701.73 402.71 701.69 402.29 701.651999 402.08505 701.577482 401.888595 701.47 401.71 700.86606 400.497886 700.649604 399.12933 700.85 397.79 700.95607 398.44922 701.231759 399.069522 701.65 399.59 702.041118 399.990485 702.377384 400.441081 702.65 400.93 702.912351 401.432647 702.857657 402.042097 702.51 402.49 702.904349 403.483835 703.071757 404.553197 703 405.62 703 406.06 702.74 406.33 702.79 406.73 702.86 407.33 703.44 407.73 703.4 408.49 703.36804 409.241136 703.001063 409.938392 702.4 410.39 701.880573 410.80419 701.569696 411.425945 701.55 412.09L701.55 412.09zM690.19 431.88L690.27 431.88C690.39 431.88 690.49 432.23 690.55 432.34L690.81 432.85C690.983333 433.196667 691.15 433.55 691.31 433.91 691.63 434.623333 691.916667 435.353333 692.17 436.1 692.680959 437.608111 693.062342 439.157059 693.31 440.73 693.806687 443.838795 693.826919 447.005112 693.37 450.12 693.045925 452.765438 692.163072 455.311737 690.78 457.59 690.083827 458.688306 689.204408 459.65905 688.18 460.46 687.07 461.31 685.62 462.14 684.18 461.65 683.088021 461.176932 682.245828 460.265766 681.86 459.14 681.612704 458.537212 681.415373 457.915118 681.27 457.28 681.063333 456.433333 680.9 455.58 680.78 454.72 680.668418 454.218088 680.638032 453.701532 680.69 453.19 680.826995 453.233678 680.960673 453.28715 681.09 453.35 681.33 453.46 681.29 454.21 681.32 454.45 681.373333 454.856667 681.436667 455.26 681.51 455.66 681.649172 456.463764 681.836171 457.258509 682.07 458.04 682.319332 459.134492 682.924159 460.115578 683.79 460.83 684.272081 461.160937 684.861728 461.296735 685.44 461.21 686.165675 461.069291 686.849691 460.764903 687.44 460.32 688.455219 459.611822 689.335724 458.72793 690.04 457.71 691.442089 455.602716 692.363837 453.212998 692.74 450.71 693.236639 447.761357 693.293927 444.755425 692.91 441.79 692.536201 438.736315 691.639792 435.769708 690.26 433.02 690.126667 432.76 689.99 432.506667 689.85 432.26 689.77 432.11 689.7 432.06 689.85 431.98 689.955968 431.92541 690.071351 431.891474 690.19 431.88L690.19 431.88z"/>
    <path fill="#000000" d="M686.44,432.44 C688.691662,436.353978 689.890633,440.784655 689.92,445.3 C689.942328,447.523649 689.683612,449.74121 689.15,451.9 C688.873437,453.023198 688.519253,454.125848 688.09,455.2 C687.797211,456.233279 687.258522,457.180273 686.52,457.96 C686.018343,458.483935 685.206701,458.556555 684.62,458.13 C684.049325,457.586907 683.64374,456.8936 683.45,456.13 C683.324932,455.733298 683.224738,455.32918 683.15,454.92 C683.15,454.79 682.93,453.92 683.06,453.92 C683.19,453.92 683.22,454.12 683.23,454.21 C683.24,454.3 683.23,454.53 683.28,454.69 C683.322042,455.027029 683.385503,455.361038 683.47,455.69 C683.631716,456.326242 683.884314,456.935845 684.22,457.5 C684.497294,458.113019 685.186171,458.425367 685.83,458.23 C686.401387,457.999921 686.862988,457.559789 687.12,457 C688.061773,455.17628 688.735384,453.226175 689.12,451.21 C689.988695,447.179433 689.903083,443.001596 688.87,439.01 C688.290896,436.777239 687.409408,434.634081 686.25,432.64 C686.21,432.43 686.37,432.34 686.44,432.44 Z"/>
    <path fill="#FFFFFF" d="M677.52,418.18 C678.736992,417.64854 679.888055,416.977366 680.95,416.18 C681.097268,416.093992 681.210309,415.959757 681.27,415.8 C681.289115,415.636606 681.253977,415.47146 681.17,415.33 L680.46,413.8 L681.85,415.19 L680.92,413.5 C681.357617,414.024241 681.865785,414.485294 682.43,414.87 C683.112712,414.233627 683.744637,413.544863 684.32,412.81 C684.857207,412.294875 685.084939,411.535769 684.92,410.81 C684.7,410.33 684.14,410.02 684.05,409.49 L685.77,410.79 C686.879724,408.861571 687.615916,406.741204 687.94,404.54 L687.88,404.44 C682.936629,407.945557 678.795068,412.462074 675.73,417.69"/>
    <path fill="#6D1F0F" d="M684.92,411.84 C683.79127,411.270807 682.816915,410.437116 682.08,409.41 C683.865538,407.571542 685.813449,405.898079 687.9,404.41 L687.96,404.51 C687.635916,406.711204 686.899724,408.831571 685.79,410.76 L684.07,409.46 C684.16,409.98 684.72,410.29 684.94,410.78 C685.076999,411.121491 685.069783,411.50392 684.92,411.84 L684.92,411.84 Z"/>
    <path fill="#FFFFFF" d="M679.19,419.29 C679.970134,419.390127 680.759866,419.390127 681.54,419.29 C681.9,419.29 682.36,419.04 682.28,418.69 C682.2,418.34 681.91,418.2 682.07,418 C682.360308,418.368357 682.826521,418.551786 683.29,418.48 C683.744856,418.402527 684.181914,418.243289 684.58,418.01 C684.773892,417.9333 684.940857,417.80112 685.06,417.63 C685.26,417.27 684.99,416.84 684.73,416.52 C684.999526,416.838381 685.421425,416.984128 685.83,416.9 C686.229538,416.809814 686.60915,416.647123 686.95,416.42 L688.72,415.42 L688.72,415.32 C685.046371,415.277189 681.451537,416.385712 678.44,418.49"/>
    <path fill="#6D1F0F" d="M688.72,415.28 L688.72,415.38 L686.95,416.38 C686.60915,416.607123 686.229538,416.769814 685.83,416.86 C685.421425,416.944128 684.999526,416.798381 684.73,416.48 C684.99,416.8 685.26,417.23 685.06,417.59 C684.940857,417.76112 684.773892,417.8933 684.58,417.97 L684.58,417.97 C684.35932,417.837717 684.157499,417.67626 683.98,417.49 C683.615373,417.080782 683.391123,416.565709 683.34,416.02 C685.083831,415.494564 686.899067,415.244885 688.72,415.28 Z"/>
    <path fill="#000000" d="M652.22,452.08 C652.49111,453.410122 652.415347,454.787633 652,456.08 C651.878308,456.422229 651.734677,456.756255 651.57,457.08 C651.24,457.75 651.33,457.6 650.33,457.62 C649.33,457.64 649.25,457.62 649.09,456.62 C649.038988,456.238364 649.038988,455.851636 649.09,455.47 C649.09,455.15 648.62,455.15 648.59,455.47 C648.47,456.75 649.32,460.08 651.21,458.47 C652.93,457.03 653.09,453.86 652.72,451.86 C652.66,451.54 652.18,451.68 652.24,451.99 L652.22,452.08 Z"/>
    <path fill="#FFFFFF" d="M40.8,7.12 C41.4032192,17.3919482 37.9486233,27.4899979 31.18,35.24 L31.06,35.11 C29.9140865,33.8212392 28.6918911,32.6023832 27.4,31.46 C33.0932674,22.2589603 34.7564292,11.1230074 32,0.66 C33.1142667,10.649192 29.9418328,20.6425407 23.27,28.16 C23.06,27.6 23.27,26.84 23.94,25.25 L23.84,25.1 C23.26,25.4466667 22.7,25.8233333 22.16,26.23 L21.88,26.46 C21.44,26.8 21.01,27.15 20.6,27.52 L20.43,27.69 C18.9795891,27.034839 17.4600154,26.5450868 15.9,26.23 C15.9,25.74 15.96,25.23 15.96,24.75 C15.9903659,23.9059649 15.8579564,23.0639763 15.57,22.27 L15.57,22.27 C15.512372,22.1323356 15.4455547,21.998701 15.37,21.87 L15.28,21.75 C15.2222546,21.6561947 15.1588018,21.5660249 15.09,21.48 C14.9849382,21.3553021 14.8676901,21.241404 14.74,21.14 C14.3436766,20.8707217 13.9132167,20.6554917 13.46,20.5 C13.2669922,20.4237918 13.0798249,20.3335504 12.9,20.23 C12.7003189,20.1135056 12.5212437,19.9648394 12.37,19.79 L15.79,20.46 C15.5391637,18.5069877 15.1311735,16.5773951 14.57,14.69 C14.29,13.7366667 13.9566667,12.79 13.57,11.85 C13.1833333,10.91 12.7966667,9.96 12.41,9 L12.29,8.92 L12.29,8.92 C11.97,9.99 11.68,11.09 11.42,12.19 C11.32,12.59 11.24,12.99 11.15,13.39 C10.99,14.09 10.84,14.8 10.71,15.51 C10.62,16.01 10.53,16.51 10.45,17.02 C10.37,17.53 10.25,18.27 10.16,18.9 C10.07,19.53 10.01,19.99 9.95,20.54 C9.95,20.76 9.89,20.99 9.88,21.22 C9.68,23.09 9.54,24.97 9.48,26.88 C9.28,26.97 9.09,27.07 8.9,27.18 C4.79515552,29.643194 1.78126583,33.5759089 0.47,38.18 C-0.53,41.63 0.97,44.55 3.55,46.54 C3.66,46.86 3.77,47.18 3.9,47.54 L4.01,47.82 C4.18,48.23 4.38,48.63 4.58,49.02 L4.82,49.48 L5.18,50.11 C5.78804119,51.1703516 6.4557819,52.1953336 7.18,53.18 C9.61,56.44 12.7,58.75 15.25,61.77 C15.640513,61.1754633 15.9752687,60.5461227 16.25,59.89 C20.25,62.26 24.87,62.46 28.17,60.36 C31.0322636,58.337413 32.7388003,55.0547518 32.75,51.55 C32.82,49.65 32.08,47.98 31.98,46.14 C32.0287947,44.7442465 32.1791927,43.3539012 32.43,41.98 C36.3432295,38.5785193 39.2659837,34.1840235 40.89,29.26 C43.1243443,22.0443775 43.0929331,14.3172189 40.8,7.12 Z" opacity=".3" transform="translate(719 262)"/>
    <path fill="#000000" d="M653.13,452.2 C653.81,452.25 654.03,454.6 654.07,455.01 C654.147865,455.853403 654.120993,456.703202 653.99,457.54 C653.99,457.83 653.89,458.11 653.82,458.39 C653.64,459.13 653.73,459.19 652.91,459.39 C652.09,459.59 651.99,459.33 651.61,458.65 C651.33259,458.131238 651.156136,457.564548 651.09,456.98 C651.09,456.67 650.55,456.66 650.59,456.98 C650.687899,458.218277 651.269972,459.368051 652.21,460.18 C653.02,460.77 653.64,460.39 654,459.53 C654.60242,457.936254 654.781576,456.213601 654.52,454.53 C654.41,453.66 654.28,451.77 653.13,451.68 C652.81,451.68 652.81,452.16 653.13,452.18 L653.13,452.2 Z"/>
    <path fill="#362C3B" d="M0.75,1.21 C0.888071187,1.21 1,1.09807119 1,0.96 C1,0.821928813 0.888071187,0.71 0.75,0.71 C0.611928813,0.71 0.5,0.821928813 0.5,0.96 C0.5,1.09807119 0.611928813,1.21 0.75,1.21 Z" opacity=".3" transform="translate(781 475)"/>
    <path fill="#362C3B" d="M0.37,2.49 L0.37,1 C0.37,0.972385763 0.347614237,0.95 0.32,0.95 C0.292385763,0.95 0.27,0.972385763 0.27,1 L0.27,2.48 C0.27,2.50761424 0.292385763,2.53 0.32,2.53 C0.347614237,2.53 0.37,2.50761424 0.37,2.48 L0.37,2.49 Z" opacity=".5" transform="translate(796 358)"/>
    <path fill="#6D1F0F" d="M241.48 437.49C242.469881 441.035322 243.997641 444.40786 246.01 447.49 248.12 450.65 251.01 453.83 254.75 454.9 258.33 455.9 262.75 454.32 264.05 450.84 262.700448 455.554095 258.957257 459.202185 254.21 460.43 249.462776 461.563096 244.458094 460.457497 240.63 457.43 236.858533 454.366092 234.418292 449.962193 233.82 445.14 233.447957 442.233557 233.700238 439.281185 234.56 436.48 235.412465 434.066909 236.504587 431.745312 237.82 429.55 239.98 431.49 240.62 434.55 241.42 437.34L241.48 437.49zM220.27 462.42C217.15 461.24 213.68 462.69 210.78 464.34 207.88 465.99 204.87 467.95 201.54 467.82 197.93 467.67 194.85 465.05 192.86 462.03 191.416614 460.080493 190.689109 457.693148 190.8 455.27 188.66 458.73 188.95 463.21 190.28 467.05 192.684365 474.056633 198.316244 479.476339 205.41 481.61 212.589717 483.589308 220.273881 481.398242 225.33 475.93"/>
    <path fill="#B76F4B" d="M250.85 472.66C250.709794 472.415083 250.556228 472.178058 250.39 471.95 246.82 467.08 239.94 464.82 238.86 458.26 238.675613 456.834259 238.638751 455.393304 238.75 453.96L239.31 441.23C239.45 438.02 240.86 432.63 238.62 430.08 238.014769 429.347862 237.213503 428.803279 236.31 428.51 235.545497 428.340783 234.758582 428.296878 233.98 428.38 230.74 428.55 227.58 428.98 224.36 429.44 221.364415 429.834243 218.407316 430.479854 215.52 431.37 210.52 432.99 205.68 435.77 202.52 440.01 200.746767 442.252968 199.734457 445.002667 199.63 447.86 199.559436 450.753152 200.974385 453.481173 203.38 455.09 201.342523 450.992649 202.801986 446.017404 206.73 443.67 211.51 441.05 217.24 443.53 222.73 443.95 220.725037 446.946604 218.940343 450.084858 217.39 453.34 215.31 457.72 213.63 462.67 214.86 467.34 216.47 473.51 222.66 477.42 228.81 479.15 234.21 480.67 239.53 481.84 240.7 488.15 241.116665 490.932937 241.223985 493.753447 241.02 496.56 240.95 498.43 240.02 503.48 241.35 504.89 241.583623 502.138869 242.475355 499.48425 243.95 497.15 245.896667 493.743333 247.703333 490.26 249.37 486.7 250.563933 484.396572 251.412998 481.93024 251.89 479.38 252.295279 477.086618 251.929571 474.723584 250.85 472.66zM237.89 428.28C237.917614 428.28 237.94 428.257614 237.94 428.23 237.94 428.202386 237.917614 428.18 237.89 428.18 237.862386 428.18 237.84 428.202386 237.84 428.23 237.84 428.257614 237.862386 428.28 237.89 428.28L237.89 428.28zM226.28 409.43C229.53 405.33 236.28 405.74 239.52 409.65 240.259447 410.584988 240.85905 411.622503 241.3 412.73 242.2 414.87 242.3 417.14 243.07 419.28 242.603883 419.355864 242.132243 419.392659 241.66 419.39 241.495349 422.190665 239.941758 424.723694 237.52 426.14 235.086701 427.479929 232.122366 427.415072 229.75 425.97 227.46 424.54 226.08 421.97 225.27 419.35 224.26 416.05 224.14 412.12 226.28 409.43z"/>
    <path fill="#6D1F0F" d="M233.89 417.62C235.036667 417.04 236.203333 416.5 237.39 416 237.807125 415.793237 238.264562 415.680585 238.73 415.67 238.83 415.77 238.73 415.92 238.57 415.98L233.41 418.75M233.89 418.86L237.99 416.86C238.078707 416.818441 238.181293 416.818441 238.27 416.86 238.366747 416.927298 238.396972 417.056835 238.34 417.16 238.281654 417.256467 238.198861 417.33581 238.1 417.39 236.510321 418.457033 234.7894 419.314132 232.98 419.94 232.68 420.04 232.33 420.2 232.31 420.52"/>
    <path fill="#000000" d="M239.11,409.11 L241.2,411.5 C240.766172,410.402645 240.147183,409.387908 239.37,408.5 C240.791456,409.489794 242.081736,410.655751 243.21,411.97 C241.735417,408.829882 239.106181,406.379749 235.87,405.13 C232.342131,403.952498 228.470037,404.445712 225.35,406.47 C220.73,409.2 217.16,414.76 213.7,418.79 C213.506133,418.969109 213.379143,419.208978 213.34,419.47 C213.34,419.85 213.68,420.13 214,420.34 L214.41,420.61 C218.883627,423.571893 223.620254,426.115947 228.56,428.21 L238.56,411.36 C239.2,410.28 239.85,409 239.37,407.84 C239.018873,407.180535 238.492999,406.630443 237.85,406.25 C237.182508,405.767365 236.456774,405.370899 235.69,405.07"/>
    <path fill="#FFFFFF" d="M229.48,411.59 L229.7,412.29 C228.825322,412.123215 227.963256,411.896003 227.12,411.61 C226.32,411.21 225.74,410.12 226.3,409.43 C226.03,409.99 225.2,409.86 224.62,409.64 L223,409 C222.633674,408.897668 222.304123,408.692999 222.05,408.41 C221.92897,408.264018 221.872345,408.07518 221.893079,407.886689 C221.913813,407.698197 222.010132,407.526183 222.16,407.41 C221.71,408.01 220.76,407.73 220.09,407.41 L215.58,405.11 L215.58,405.11 C219.19,404.63 222.75,406.23 225.86,408.11 C226.24,408.34 226.62,408.57 226.97,408.84 C228.102737,409.675503 229.015573,410.773652 229.63,412.04"/>
    <path fill="#6D1F0F" d="M215.61,405.09 L215.61,405.09 L220.12,407.39 C220.79,407.73 221.74,408.02 222.19,407.39 C222.040132,407.506183 221.943813,407.678197 221.923079,407.866689 C221.902345,408.05518 221.95897,408.244018 222.08,408.39 C222.334123,408.672999 222.663674,408.877668 223.03,408.98 L223.39,409.12 C223.568579,408.769938 223.72554,408.409262 223.86,408.04 C223.98,407.73 224.09,407.41 224.2,407.04 C221.5,405.71 218.58,404.69 215.61,405.09 Z"/>
    <path fill="#FFFFFF" d="M41.22,19.09 C39.22,12.09 35.5,6.18 31.09,3.48 C26.18,0.48 20.99,2.22 16.58,6.53 C16.22,6.88 15.86,7.26 15.51,7.65 C11.31,3.52 6.57,0.12 1.75,1.18 L1.75,1.18 L7.97,6.44 C8.89,7.22 10.2,7.88 10.82,6.5 C10.3845325,7.18104108 10.327933,8.03757998 10.67,8.77 C10.9557858,9.34267347 11.4139431,9.81132295 11.98,10.11 L13.04,10.79 C8.32,17.53 4.38,27.19 0.53,34.6 C0.244731311,35.0735431 0.0767340483,35.6083915 0.04,36.16 C0.0703114383,36.9199712 0.396956326,37.637872 0.95,38.16 L1.51,38.78 C7.35107665,45.2750188 13.8868091,51.1098954 21,56.18 L23.09,50.33 C25.9312696,52.1304166 29.6470825,51.6831816 31.98,49.26 C35.26,46.26 37.48,40.17 37.69,33.85 C38.3450207,33.8551798 38.9976922,33.7710726 39.63,33.6 C38.63,28.7 38.44,23.52 37.19,18.6 C36.8104695,17.0907254 36.353193,15.6020734 35.82,14.14 C35.87,13.89 35.92,13.65 35.96,13.4 L38.44,18.09 C37.9222102,15.8262526 37.1401802,13.6311985 36.11,11.55 C36.11,11.49 36.11,11.44 36.11,11.38 C38.1009221,13.7473632 39.8153349,16.33408 41.22,19.09 Z" opacity=".3" transform="translate(128 260)"/>
  </g>
</svg>
