<svg xmlns="http://www.w3.org/2000/svg" width="800" height="600" viewBox="0 0 800 600">
  <g fill="none" fill-rule="evenodd" transform="translate(103 89)">
    <path fill="#766D7C" fill-rule="nonzero" d="M398.06,254.63 L398.06,254.63 C397.34,254.21 396.606667,253.806667 395.86,253.42 L395.86,253.42 C395.12,253.04 394.373333,252.676667 393.62,252.33 L393.62,252.33 C392.866667,251.99 392.106667,251.656667 391.34,251.33 L391.34,251.33 L390.27,250.93 C390.62,249.41 389.91,248.38 386.86,247.61 C383.482634,246.921246 380.046753,246.559574 376.6,246.53 C370.33,246.19 363.41,246.07 358.46,241.64 C354.85,238.41 353.14,233.47 352.84,228.64 C352.54,223.81 353.49,218.99 354.44,214.23 C356.17,205.55 359.82,195.48 359.44,186.23 C360.333333,183.89 361.236667,181.556667 362.15,179.23 L362.15,179.23 C365.98,169.4 369.74,159.58 371.51,149.61 C374.9,130.52 372.86,104.37 356.37,91.36 C361.18,103.98 363.16,116.03 359.37,129.66 C356.76,139.05 352.27,147.76 347.37,156.14 C346.91,156.93 346.43,157.68 345.95,158.41 C345.85,158.17 345.74,157.94 345.64,157.69 L345.23,157.61 C332.277208,177.969299 310.051869,190.55866 285.93,191.2 C286.08,189.92 286.23,188.64 286.4,187.36 C286.606667,185.786667 286.823333,184.216667 287.05,182.65 C287.41,182.75 287.77,182.82 288.13,182.91 L288.22,182.91 C288.626667,183.003333 289.036667,183.083333 289.45,183.15 L289.67,183.15 C290.445225,183.271185 291.226315,183.351297 292.01,183.39 L292.2,183.39 C292.56,183.39 292.92,183.39 293.27,183.39 L293.79,183.39 C295.29495,183.348056 296.790672,183.14013 298.25,182.77 C303.226712,181.501264 307.483261,178.282721 310.06,173.84 C311.71007,170.675381 312.64219,167.185907 312.79,163.62 C313.03,160.33 311.73,157.5 315.5,156.36 C316.58,156.03 316.25,155.72 315.75,154.93 C315.25,154.14 314.92,153.58 314.52,152.93 C313.71,151.51 312.97,150.07 312.22,148.62 C310.820867,145.741707 309.146391,143.005614 307.22,140.45 C306.72,139.823333 306.203333,139.206667 305.67,138.6 L305.6,138.52 C305.1,137.96 304.6,137.41 304.05,136.88 C303.86,136.69 303.66,136.53 303.47,136.35 C303.09,135.99 302.71,135.63 302.31,135.29 C301.91,134.95 301.21,134.42 300.64,134.01 L300.44,133.86 L300.26,133.75 C299.99,133.57 299.73,133.4 299.46,133.23 L299.12,133.03 C299.041657,132.904919 298.939772,132.796241 298.82,132.71 C298.16,132.21 297.5,131.71 296.82,131.27 L296.82,131.27 C296.91,129.35 289.16,127.27 287.62,126.7 C284.036398,125.431242 280.383898,124.366208 276.68,123.51 C269.345463,121.839921 261.881659,120.799471 254.37,120.4 C239.93,119.56 225.46,120.6 211.04,121.64 L197.42,122.64 C205.280245,127.243958 213.94991,130.299047 222.96,131.64 C227.39,132.29 231.87,132.52 236.34,132.75 L266.53,134.31 L268.25,134.37 C267.385515,135.051669 266.576323,135.800673 265.83,136.61 C247.280082,136.500032 228.738322,137.418106 210.29,139.36 C209.461991,139.354006 208.640507,139.506761 207.87,139.81 C207.939167,139.960801 208.070604,140.073982 208.23,140.12 C214.34758,142.238201 220.662695,143.735738 227.08,144.59 C235.94,145.69 244.91,145.23 253.83,144.78 C256.19,144.66 258.56,144.58 260.93,144.5 C260.57,145.4 260.26,146.33 259.98,147.26 L251.19,148.1 C247.09,148.56 242.97,148.86 238.85,149.2 C236.53,149.4 234.2,149.61 231.85,149.88 C227.57,150.38 222.66,150.44 218.56,151.72 C218.66,152.58 219.37,152.72 220.09,153.18 C221.337857,153.991627 222.626188,154.73926 223.95,155.42 C226.57,156.78 229.3,157.93 232.02,159.08 C233.414651,159.725562 234.872434,160.224894 236.37,160.57 C238.179553,160.845779 240.020447,160.845779 241.83,160.57 C247.549234,159.791228 253.168181,158.399901 258.59,156.42 C258.543333,158 258.57,159.583333 258.67,161.17 C250.523333,164.983333 242.386667,168.82 234.26,172.68 C236.785502,173.678396 239.405499,174.41883 242.08,174.89 C243.72314,175.241986 245.414886,175.306272 247.08,175.08 C249.026471,174.65859 250.860631,173.82674 252.46,172.64 C254.889244,170.927345 257.170572,169.013973 259.28,166.92 C259.446667,168.126667 259.63,169.33 259.83,170.53 C259.709603,171.624438 259.784088,172.731552 260.05,173.8 C260.05,174.11 260.14,174.42 260.18,174.73 L261.18,181.5 C261.347185,182.845419 261.587541,184.180731 261.9,185.5 C262.03,186.02 262.05,186.68 262.61,186.72 L262.85,188.15 C261.91,187.87 260.973333,187.57 260.04,187.25 C253.04,184.84 246.49,181.39 239.96,177.95 C229.71,172.56 219.35,167.09 210.76,159.32 C206.96,155.88 203.55,152.02 199.76,148.54 L199.08,148.38 C199.08,149.13 199.08,149.88 199.08,150.63 C190.84,140.96 184.77,129.33 187.08,116.98 C182.29,121.56 182.74,134.98 183.27,141.27 C184.075931,150.067469 186.632711,158.615005 190.79,166.41 C188.61,173.41 186.25,180.3 183.53,187.09 C180.7,194.14 177.53,201.04 174.59,208.09 C160.923808,240.993083 153.925217,276.281751 154,311.91 C153.899352,313.085887 154.127875,314.266586 154.66,315.32 C155.426772,316.309438 156.471328,317.04759 157.66,317.44 C160.426444,318.688 163.366823,319.507395 166.38,319.87 C166.56,322.22 166.79,324.54 167.08,326.87 L167.08,326.87 C168.29,336.32 192.39,336.35 199.99,337.1 C211.7,338.25 223.44,339.39 235.21,339.41 C242.802607,339.43434 250.388715,338.963339 257.92,338 C257.71,338.53 257.5,339.06 257.28,339.58 L257.22,339.72 C256.91,340.45 256.59,341.18 256.22,341.9 C255.85,342.62 255.55,343.3 255.22,343.99 C245.59,361.99 232.29,377.11 226.95,397.25 C235.22,386.07 248.95,380.58 260.34,372.67 C275.34,362.28 286.66,347.52 297.94,333.14 L297.94,333.14 L299.06,331.72 L299.62,331.01 L300.9,329.39 L301.71,328.39 L302.77,327.07 L303.7,325.93 C325.89,316.93 348.39,303.29 365.9,285.58 C366.53,285.58 367.15,285.49 367.79,285.47 L368.13,285.47 C369.02,285.47 369.92,285.47 370.84,285.47 L371,285.47 C372,285.47 372.93,285.47 373.9,285.57 C374.87,285.67 375.76,285.69 376.7,285.79 C383.28,286.45 390.05,287.79 395.34,291.79 C401.1,296.13 404.34,303.06 406.08,310.07 C409.840964,326.048768 406.488467,342.87327 396.89,356.19 C409.4,350.04 415.71,335.91 419.46,322.47 C420.929292,317.465938 421.979583,312.348276 422.6,307.17 C424.13,292.72 420.39,277.56 411.35,266.17 C407.66816,261.538015 403.162617,257.625753 398.06,254.63 Z"/>
    <path fill="#766D7C" fill-rule="nonzero" d="M330.81 90.18L347.47 95.72C349.324316 88.9790145 351.846819 82.4399378 355 76.2L355 75.77C347.767009 70.8160957 338.938266 68.7570072 330.26 70L330.16 70.64C331.273884 77.0924839 331.492611 83.6677555 330.81 90.18zM418.77 116.91C418.3 118.38 417.87 119.91 417.46 121.35L397.85 115.63 399.96 116.24 386.33 112.24 417.46 121.32C415.971438 126.653069 414.815876 132.073524 414 137.55L405.72 151.78 409.15 152.84 405.88 154.95C405.364416 155.169584 405.043679 155.690782 405.08 156.25L404.87 158.98C404.87 159.05 404.87 159.11 404.87 159.18L404.87 159.18C404.87 159.32 404.87 159.46 404.87 159.6 404.87 159.74 404.87 159.73 404.87 159.8 404.87 159.87 404.87 159.99 404.87 160.09 404.87 160.19 404.87 160.28 404.87 160.37 404.87 160.46 404.87 160.51 404.87 160.57 404.910761 160.730182 404.971222 160.884694 405.05 161.03L405.05 161.03C405.318846 161.487471 405.809381 161.768863 406.34 161.77 406.421889 161.764235 406.502621 161.747416 406.58 161.72 406.658799 161.690956 406.732919 161.650527 406.8 161.6 406.047536 163.105499 405.412319 164.666797 404.9 166.27 404.59 167.27 404.31 168.2 404.09 169.19L404.09 169.19C405.382483 169.034396 406.61608 168.5602 407.68 167.81 407.893333 167.663333 408.103333 167.506667 408.31 167.34 409.343817 166.48083 410.240766 165.469234 410.97 164.34 411.716216 163.197358 412.342851 161.980949 412.84 160.71 413.026667 160.243333 413.2 159.776667 413.36 159.31L413.42 159.12C413.56 158.71 413.69 158.3 413.81 157.88L413.81 157.81C414.02 157.08 414.2 156.35 414.37 155.61L414.44 155.87 414.44 156.02 414.44 156.02C414.499935 156.254059 414.573391 156.484446 414.66 156.71L414.66 156.77C414.742884 156.98271 414.857519 157.181634 415 157.36 415.150121 157.548339 415.363173 157.67617 415.6 157.72 415.694787 157.746961 415.795213 157.746961 415.89 157.72 415.981747 157.675781 416.055781 157.601747 416.1 157.51 416.1 158.01 416.1 158.513333 416.1 159.02 416.1 160.02 416.1 161.02 416.25 162.09 416.296667 162.603333 416.36 163.116667 416.44 163.63 416.719064 163.492394 416.978107 163.317456 417.21 163.11 418.61 161.86 419.21 159.44 419.27 157 419.27 156.59 419.27 156.18 419.27 155.78L419.27 155.78C419.27 155.026667 419.226667 154.27 419.14 153.51 419.14 153.39 419.14 153.27 419.14 153.16 419.07 152.52 419 151.88 418.9 151.23L418.9 151.23C418.113701 146.680221 416.700238 142.261466 414.7 138.1L414.64 138.1C414.64 137.86 414.57 137.62 414.53 137.39L414.24 137.18 413.97 137.65 417.71 121.53 429.77 125.05 417.71 121.53 418.77 116.91zM415.16 150.91C415.16 150.77 415.16 150.64 415.16 150.5L415.36 150.5 415.16 150.91zM393.2 233.85C394.15 243.25 385.83 251.85 376.54 253.51 366.74 255.29 356.66 251.23 348.32 246.39 340.284923 241.615589 333.030427 235.635941 326.81 228.66L326.51 228.33C321.57 222.86 316.69 216.61 309.6 214.59 309.6 214.7 309.6 214.81 309.6 214.93 309.166488 214.730004 308.71856 214.562867 308.26 214.43 306.334744 213.998905 304.352153 213.88407 302.39 214.09 302.340871 214.0101 302.253796 213.961421 302.16 213.961421 302.066204 213.961421 301.979129 214.0101 301.93 214.09 298.81 214.26 295.72 214.52 292.63 214.85 292.545438 214.807578 292.454022 214.780492 292.36 214.77 292.042962 214.727869 291.720863 214.744821 291.41 214.82 291.339365 214.829896 291.27139 214.853687 291.21 214.89 291.165393 214.925937 291.128058 214.97006 291.1 215.02 286.71 215.52 282.33 216.12 277.91 216.76 272.581823 217.486322 267.294765 218.487659 262.07 219.76 261.966981 219.119054 261.826744 218.484648 261.65 217.86 261.542118 218.575769 261.38847 219.283887 261.19 219.98 259.27 220.48 257.36 220.98 255.47 221.63 247.521413 224.097533 240.036687 227.865239 233.32 232.78 226.67 230.33 220.6 225.42 215.61 220.73L185.95 192.85C185.055884 192.013501 184.103488 191.241559 183.1 190.54 182.358545 189.761407 181.544901 189.054909 180.67 188.43 180.35 188.2 180.01 188.02 179.67 187.82 178.642299 186.633282 177.336801 185.719433 175.87 185.16 175.835994 185.135467 175.799038 185.115308 175.76 185.1L174.6 184.75C174.51157 184.726227 174.41843 184.726227 174.33 184.75 164.55 182.64 154.58 187.45 144.83 188.09 134.52 188.77 121.45 187.51 113.69 179.91 113.479544 179.701555 113.140456 179.701555 112.93 179.91L113.69 179.29C114.371173 178.858178 114.866805 178.187827 115.08 177.41 115.0739 176.476303 114.620132 175.602242 113.86 175.06 110.599817 172.140395 106.133835 170.968075 101.86 171.91L101 171.91 101.81 171.98 100.99 172.45C104.302113 173.421588 106.942121 175.931272 108.08 179.19 108.226668 179.96967 108.636073 180.67554 109.24 181.19 110.24 181.81 111.54 181.02 112.48 180.26L112.93 179.89C112.805739 180.016449 112.763204 180.202059 112.82 180.37 114.480465 185.530216 117.065896 190.345285 120.45 194.58 108.926394 197.36902 97.760255 201.469087 87.17 206.8 75.52 212.86 64.26 220.8 61.41 234.57 59.65 243.05 62.63 252.84 69.99 257.4 66.13 251.63 66.07 243.73 69.25 237.56 71.2440343 233.816691 74.2029324 230.674804 77.82 228.46 87.36 222.46 100.87 222.78 111.71 221.3 121.13 220.01 117.17 232.88 114.97 237.76 103.14 263.97 84.43 290.76 57.41 302.76 48.96 306.52 38.6 310.76 29.33 311.14 23 311.42 5.39 308.88 3.48 300.75 5.76 310.44 13.63 318.14 22.72 322.18 52.72 335.53 82.87 318.81 112.21 312.18 117.34 311.02 124.21 308.91 129.46 309.54 129.679036 309.570507 129.89608 309.613915 130.11 309.67L131.03 309.67C131.86 309.67 132.67 309.67 133.48 309.67L130.42 309.8C131.29214 310.040236 132.057094 310.569006 132.59 311.3 133.68 312.89 133.15 315.04 132.59 316.88L130.75 322.88C130.388372 323.837144 130.225066 324.857806 130.27 325.88 130.327803 326.915392 131.002208 327.814599 131.98 328.16 133.29 328.5 134.51 327.4 135.39 326.36 138.590933 322.596881 141.280857 318.427499 143.39 313.96 143.871996 312.869664 144.416226 311.807915 145.02 310.78 160.21 313.58 173.2 321.26 186.96 329.41 187.96 330 188.96 330.63 189.96 331.26 190.626667 332.373333 191.293333 333.453333 191.96 334.5 197.9423 343.231336 206.125023 350.227358 215.68 354.78 222.61 364.36 226.9 375.4 226.03 387.4 232.68 379.95 233.33 369.87 231.46 359.63 250.032759 362.421677 268.628777 354.727834 279.8 339.63 282.874008 340.978808 286.038354 342.111556 289.27 343.02 297.85 345.43 307.34 347.02 313.5 353.43 323.84 364.26 318.97 386.68 318.25 400.15 318.09 403.15 318.25 406.79 321.25 408.35 320.53 401.04 324.25 394.76 327.72 388.66 332.66 379.993333 337.243333 371.143333 341.47 362.11 344.26 356.11 346.92 350.03 347.86 343.52 348.7 337.73 348.04 331.52 345.14 326.52 344.783561 325.895623 344.392968 325.291372 343.97 324.71 338.42 317.13 329.24 312.09 322.9 305.18 320.452665 302.526119 318.622322 299.363996 317.54 295.92 317.147644 294.641569 316.856742 293.334181 316.67 292.01 319.54 293.01 322.67 293.3 325.33 291.68 328.18 289.96 329.52 286.68 330.11 283.51 330.417144 281.732848 330.577685 279.933456 330.59 278.13 330.643333 275.723333 330.58 273.32 330.4 270.92 330.379578 269.621909 330.194773 268.331635 329.85 267.08 334.990657 270.91546 340.88749 273.615051 347.15 275 359.08 277.54 372.22 274.64 381.47 266.7 390.72 258.76 395.63 245.8 393.2 233.85zM114.49 182.1C121.61 187.9 132 189.35 140.87 189.35 142.800686 189.345055 144.729861 189.241587 146.65 189.04 138.24 190.66 129.83 192.34 121.55 194.43 118.545993 190.728407 116.161751 186.564426 114.49 182.1zM220.93 328.8L220.71 328.27C213.71 311.38 204.05 295.62 198.57 278.1 195.36 267.82 194.44 257.82 193.68 247.25 193.41 243.55 193.1 239.85 192.77 236.16 199.922459 239.432586 207.36473 242.030518 215 243.92 217.07 244.46 219.16 244.92 221.27 245.37 217.63 250.78 215.15 257.07 215.14 263.57 215.14 270.77 218.5 278.18 224.66 281.92 219.32 272.09 223.37 258.3 233.17 252.92 245.32 246.26 259.86 252.57 273.89 253.63 268.801985 261.241534 264.27341 269.212495 260.34 277.48 256.22 286.16 252.73 295.72 252.87 305.17 248.28 307.25 244.09 310.79 240.47 314.39 234.63 320.16 228.76 326.67 220.93 328.8zM328.83 270.56C328.923333 271.686667 328.996667 272.813333 329.05 273.94 329.147687 276.193517 329.110955 278.450854 328.94 280.7 328.71 283.7 328.04 287.02 325.94 289.25 324.83664 290.426026 323.328874 291.140607 321.72 291.25 319.932858 291.312748 318.152988 290.992235 316.5 290.31 316.321657 287.89109 316.408843 285.459921 316.76 283.06L316.85 283.11C318.66 284.02 320.72 284.11 322.09 282.45 323.46 280.79 323.85 278.35 324.09 276.25 324.19538 275.099876 324.228779 273.94429 324.19 272.79 324.19 272.43 324.19 270.06 323.82 269.99 323.27 269.89 323.51 270.61 323.54 270.88 323.6 271.32 323.65 271.763333 323.69 272.21 323.76404 273.101305 323.784076 273.996274 323.75 274.89 323.674754 276.705516 323.337951 278.500677 322.75 280.22 322.13 282.04 320.89 283.35 318.83 283.16 318.123173 283.088513 317.440546 282.863246 316.83 282.5 317.3336 279.383913 318.123615 276.320932 319.19 273.35 319.49 272.49 319.56 271.18 320.55 270.82 320.932899 270.71295 321.324369 270.63934 321.72 270.6 322.271856 270.48231 322.811033 270.311515 323.33 270.09 324.666672 269.603706 325.969543 269.029107 327.23 268.37 328.022616 267.934168 328.763906 267.410904 329.44 266.81L329.56 266.9C329.29 267.07 329.03 267.25 328.78 267.44 328.21 267.87 328.77 269.89 328.82 270.56L328.83 270.56zM130.41 309.89L130.09 309.81"/>
    <path fill="#766D7C" fill-rule="nonzero" d="M82.13 323.47L84.13 320.73C83.6976599 320.904599 83.30612 321.166761 82.98 321.5 82.5433408 322.079324 82.2518686 322.754853 82.13 323.47L82.13 323.47zM134.35 149.34C137.55 149.77 141.04 148.55 143.83 147.09L144 147.09C141.82 148.89 139.626667 150.676667 137.42 152.45 136.42 153.27 135.07 153.74 134.98 155.08 134.89 156.42 136.27 158.29 136.98 159.42 141.77 166.65 146.98 173.54 152.36 180.3 153.22 181.37 154.36 182.56 155.72 182.3 156.361404 182.120928 156.944304 181.776018 157.41 181.3L164.24 175.14C163.241427 176.513087 162.316781 177.938444 161.47 179.41 160.491668 181.072025 159.636057 182.803299 158.91 184.59 160.906079 183.022121 162.600321 181.104239 163.91 178.93L166.1 175.73 166.27 175.95 166.35 176.05C166.636667 176.423333 166.936667 176.786667 167.25 177.14L167.3 177.2C167.626667 177.573333 167.96 177.933333 168.3 178.28L168.3 178.28C168.666667 178.646667 169.043333 179 169.43 179.34L169.43 179.34C172.870713 182.458414 177.144397 184.508392 181.73 185.24 187.759805 186.050351 193.834128 184.103923 198.27 179.94 201.07354 177.034757 203.051511 173.434365 204 169.51 204.554925 167.542466 204.966009 165.537176 205.23 163.51 205.32 162.87 205.23 161.57 205.62 161.05 206.01 160.53 207.85 160.44 208.62 160.05 208.740279 160.003811 208.842132 159.919519 208.91 159.81 208.962384 159.625605 208.929356 159.427438 208.82 159.27 207.42 156.44 206.11 153.37 204.64 150.37L204.64 150.37C203.88 148.83 203.08 147.32 202.21 145.86L202.21 145.8C200.846903 143.445989 199.16424 141.29218 197.21 139.4 197.713828 138.939631 198.241204 138.505715 198.79 138.1 194.240426 133.435905 188.299019 130.375712 181.86 129.38 176.99 128.76 172.27 129.95 167.74 131.6 165.83 132.3 163.99 133 162.19 133.8 156.887797 129.715982 151.3002 126.016538 145.47 122.73L145.2 122.9 153.45 138.98C148.39 142.49 143.35 146.22 137.27 147.58L136.82 147.68C135.069343 148.140682 133.219519 148.053426 131.52 147.43 131.77 148.58 133.13 149.17 134.35 149.34zM229.28 155.37C228.801897 158.293023 228.982975 161.28594 229.81 164.13 230.09 165.3 230.93 165.89 231.04 166.99 231.2 168.65 229.89 170.13 230.43 172.1 231.009372 174.130381 232.481548 175.786579 234.43 176.6 236.14 177.31 236.76 178.99 237.43 180.75 237.863683 182.317063 238.713792 183.737368 239.89 184.86 241.931132 186.513584 244.570548 187.238698 247.17 186.86 246.32 186.99 251.17 192.86 251.78 193.23 254.391809 194.969165 257.71155 195.252097 260.58 193.98 260.8 193.88 265.58 196.41 266.44 196.57 268.926043 197.055429 271.49404 196.911044 273.91 196.15 275.33 195.7 276.41 194.91 277.91 195.27 279.8 195.74 281.33 197.27 283.41 197.6 286.09 198.05 288.59 197.1 291.26 197.6 294.119223 198.120001 297.025205 198.337866 299.93 198.25 300.867463 200.381235 302.129055 202.354581 303.67 204.1 308.745931 209.605573 316.335267 212.049339 323.67 210.54 330.955883 208.878133 336.910087 203.649868 339.5 196.64 340.719257 197.010908 341.966722 197.281805 343.23 197.45 342.97 191.45 344.35 185.59 343.62 179.45 343.312917 176.298215 342.544725 173.208598 341.34 170.28 341.07 169.66 340.76 169.05 340.43 168.46 341.51 163.46 339.94 158.77 334.24 156.36 326.206169 153.011594 317.309415 152.331543 308.86 154.42 300.86 156.42 295.66 163.16 292.35 170.47 291.240456 172.958854 290.304877 175.521671 289.55 178.14 285.4 174.27 278.39 173.84 274.04 177.55 271.475128 174.269259 267.416099 172.520522 263.27 172.91 262.655051 173.054023 262.01119 173.012259 261.42 172.79 260.906216 172.41829 260.513215 171.903564 260.29 171.31 258.776144 168.499317 256.115883 166.484963 253 165.79 252.048204 165.705487 251.129884 165.397095 250.32 164.89 249.32 164.08 249.18 162.68 248.92 161.44 248.260502 158.268173 246.581858 155.399026 244.14 153.27 245.14 150.58 246.21 147.17 244.69 144.74 244.08 143.74 243.08 142.94 242.95 141.79 242.930622 141.212921 243.015306 140.637068 243.2 140.09 244.121244 136.443883 243.894238 132.602248 242.55 129.09 242.658199 130.937785 242.282495 132.781833 241.46 134.44 240.672168 135.754331 240.060274 137.166394 239.64 138.64 239.228707 140.154449 239.740986 141.769499 240.95 142.77 240.471897 145.693023 240.652975 148.68594 241.48 151.53 241.76 152.7 242.6 153.29 242.71 154.39 242.87 156.05 241.56 157.53 242.1 159.5 242.679372 161.530381 244.151548 163.186579 246.1 164 247.81 164.71 248.43 166.39 249.1 168.15 249.533683 169.717063 250.383792 171.137368 251.56 172.26 253.601132 173.913584 256.240548 174.638698 258.84 174.26 257.99 174.39 262.84 180.26 263.45 180.63 266.061809 182.369165 269.38155 182.652097 272.25 181.38 272.47 181.28 277.25 183.81 278.11 183.97 280.596043 184.455429 283.16404 184.311044 285.58 183.55 286.493319 183.152651 287.44045 182.838057 288.41 182.61 287.74 185.37 287.16 188.17 286.59 190.95 284.201041 189.2003 280.892841 189.455104 278.8 191.55 274.8 186.96 267.16 186.22 262.53 190.17 259.965128 186.889259 255.906099 185.140522 251.76 185.53 251.145051 185.674023 250.50119 185.632259 249.91 185.41 249.396216 185.03829 249.003215 184.523564 248.78 183.93 247.266144 181.119317 244.605883 179.104963 241.49 178.41 240.538204 178.325487 239.619884 178.017095 238.81 177.51 237.81 176.7 237.67 175.3 237.41 174.06 236.750502 170.888173 235.071858 168.019026 232.63 165.89 233.63 163.2 234.7 159.79 233.18 157.36 232.57 156.36 231.57 155.56 231.44 154.41 231.420622 153.832921 231.505306 153.257068 231.69 152.71 232.611244 149.063883 232.384238 145.222248 231.04 141.71 231.091449 143.550932 230.664184 145.373697 229.8 147 229.012168 148.314331 228.400274 149.726394 227.98 151.2 227.54917 152.724793 228.058999 154.360166 229.28 155.37z"/>
    <path fill="#872910" fill-rule="nonzero" d="M503,0.8 C503.138071,0.8 503.25,0.688071187 503.25,0.55 C503.25,0.411928813 503.138071,0.3 503,0.3 C502.861929,0.3 502.75,0.411928813 502.75,0.55 C502.75,0.688071187 502.861929,0.8 503,0.8 Z"/>
    <path fill="#362C3B" fill-rule="nonzero" d="M245.06 278.63L245.06 278.63C244.34 278.21 243.606667 277.806667 242.86 277.42L242.86 277.42C242.12 277.04 241.373333 276.676667 240.62 276.33L240.62 276.33C239.866667 275.99 239.106667 275.656667 238.34 275.33L238.34 275.33 237.27 274.93C237.62 273.41 236.91 272.38 233.86 271.61 230.482634 270.921246 227.046753 270.559574 223.6 270.53 217.33 270.19 210.41 270.07 205.46 265.64 201.85 262.41 200.14 257.47 199.84 252.64 199.54 247.81 200.49 242.99 201.44 238.23 203.17 229.55 206.82 219.48 206.44 210.23 207.333333 207.89 208.236667 205.556667 209.15 203.23L209.15 203.23C212.98 193.4 216.74 183.58 218.51 173.61 221.9 154.52 219.86 128.37 203.37 115.36 208.18 127.98 210.16 140.03 206.37 153.66 203.76 163.05 199.27 171.76 194.37 180.14 193.91 180.93 193.43 181.68 192.95 182.41 192.85 182.17 192.74 181.94 192.64 181.69L192.23 181.61C179.277208 201.969299 157.051869 214.55866 132.93 215.2 133.08 213.92 133.23 212.64 133.4 211.36 133.606667 209.786667 133.823333 208.216667 134.05 206.65 134.41 206.75 134.77 206.82 135.13 206.91L135.22 206.91C135.626667 207.003333 136.036667 207.083333 136.45 207.15L136.67 207.15C137.445225 207.271185 138.226315 207.351297 139.01 207.39L139.2 207.39C139.56 207.39 139.92 207.39 140.27 207.39L140.79 207.39C142.29495 207.348056 143.790672 207.14013 145.25 206.77 150.226712 205.501264 154.483261 202.282721 157.06 197.84 158.71007 194.675381 159.64219 191.185907 159.79 187.62 160.03 184.33 158.73 181.5 162.5 180.36 163.58 180.03 163.25 179.72 162.75 178.93 162.25 178.14 161.92 177.58 161.52 176.93 160.71 175.51 159.97 174.07 159.22 172.62 157.820867 169.741707 156.146391 167.005614 154.22 164.45 153.72 163.823333 153.203333 163.206667 152.67 162.6L152.6 162.52C152.1 161.96 151.6 161.41 151.05 160.88 150.86 160.69 150.66 160.53 150.47 160.35 150.09 159.99 149.71 159.63 149.31 159.29 148.91 158.95 148.21 158.42 147.64 158.01L147.44 157.86 147.26 157.75C146.99 157.57 146.73 157.4 146.46 157.23L146.12 157.03C146.041657 156.904919 145.939772 156.796241 145.82 156.71 145.16 156.21 144.5 155.71 143.82 155.27L143.82 155.27C143.91 153.35 136.16 151.27 134.62 150.7 131.036398 149.431242 127.383898 148.366208 123.68 147.51 116.345463 145.839921 108.881659 144.799471 101.37 144.4 86.93 143.56 72.46 144.6 58.04 145.64L44.42 146.64C52.2802451 151.243958 60.9499097 154.299047 69.96 155.64 74.39 156.29 78.87 156.52 83.34 156.75L113.53 158.31 115.25 158.37C114.385515 159.051669 113.576323 159.800673 112.83 160.61 94.2800821 160.500032 75.7383224 161.418106 57.29 163.36 56.4619913 163.354006 55.6405066 163.506761 54.87 163.81 54.9391667 163.960801 55.0706036 164.073982 55.23 164.12 61.3475804 166.238201 67.6626951 167.735738 74.08 168.59 82.94 169.69 91.91 169.23 100.83 168.78 103.19 168.66 105.56 168.58 107.93 168.5 107.57 169.4 107.26 170.33 106.98 171.26L98.19 172.1C94.09 172.56 89.97 172.86 85.85 173.2 83.53 173.4 81.2 173.61 78.85 173.88 74.57 174.38 69.66 174.44 65.56 175.72 65.66 176.58 66.37 176.72 67.09 177.18 68.3378569 177.991627 69.6261879 178.73926 70.95 179.42 73.57 180.78 76.3 181.93 79.02 183.08 80.4146515 183.725562 81.8724337 184.224894 83.37 184.57 85.179553 184.845779 87.020447 184.845779 88.83 184.57 94.5492343 183.791228 100.168181 182.399901 105.59 180.42 105.543333 182 105.57 183.583333 105.67 185.17 97.5233333 188.983333 89.3866667 192.82 81.26 196.68 83.7855025 197.678396 86.4054988 198.41883 89.08 198.89 90.7231404 199.241986 92.4148858 199.306272 94.08 199.08 96.0264706 198.65859 97.8606309 197.82674 99.46 196.64 101.889244 194.927345 104.170572 193.013973 106.28 190.92 106.446667 192.126667 106.63 193.33 106.83 194.53 106.709603 195.624438 106.784088 196.731552 107.05 197.8 107.05 198.11 107.14 198.42 107.18 198.73L108.18 205.5C108.347185 206.845419 108.587541 208.180731 108.9 209.5 109.03 210.02 109.05 210.68 109.61 210.72L109.85 212.15C108.91 211.87 107.973333 211.57 107.04 211.25 100.04 208.84 93.49 205.39 86.96 201.95 76.71 196.56 66.35 191.09 57.76 183.32 53.96 179.88 50.55 176.02 46.76 172.54L46.08 172.38C46.08 173.13 46.08 173.88 46.08 174.63 37.84 164.96 31.77 153.33 34.08 140.98 29.29 145.56 29.74 158.98 30.27 165.27 31.0759306 174.067469 33.6327114 182.615005 37.79 190.41 35.61 197.41 33.25 204.3 30.53 211.09 27.7 218.14 24.53 225.04 21.59 232.09 7.92380807 264.993083.925217461 300.281751 1 335.91.89935245 337.085887 1.12787485 338.266586 1.66 339.32 2.42677226 340.309438 3.47132763 341.04759 4.66 341.44 7.42644402 342.688 10.3668231 343.507395 13.38 343.87 13.56 346.22 13.79 348.54 14.08 350.87L14.08 350.87C15.29 360.32 39.39 360.35 46.99 361.1 58.7 362.25 70.44 363.39 82.21 363.41 89.802607 363.43434 97.3887152 362.963339 104.92 362 104.71 362.53 104.5 363.06 104.28 363.58L104.22 363.72C103.91 364.45 103.59 365.18 103.22 365.9 102.85 366.62 102.55 367.3 102.22 367.99 92.59 385.99 79.29 401.11 73.95 421.25 82.22 410.07 95.95 404.58 107.34 396.67 122.34 386.28 133.66 371.52 144.94 357.14L144.94 357.14 146.06 355.72 146.62 355.01 147.9 353.39 148.71 352.39 149.77 351.07 150.7 349.93C172.89 340.93 195.39 327.29 212.9 309.58 213.53 309.58 214.15 309.49 214.79 309.47L215.13 309.47C216.02 309.47 216.92 309.47 217.84 309.47L218 309.47C219 309.47 219.93 309.47 220.9 309.57 221.87 309.67 222.76 309.69 223.7 309.79 230.28 310.45 237.05 311.79 242.34 315.79 248.1 320.13 251.34 327.06 253.08 334.07 256.840964 350.048768 253.488467 366.87327 243.89 380.19 256.4 374.04 262.71 359.91 266.46 346.47 267.929292 341.465938 268.979583 336.348276 269.6 331.17 271.13 316.72 267.39 301.56 258.35 290.17 254.66816 285.538015 250.162617 281.625753 245.06 278.63zM265.77 140.91C265.3 142.38 264.87 143.91 264.46 145.35L244.85 139.63 246.96 140.24 233.33 136.24 264.46 145.32C262.971438 150.653069 261.815876 156.073524 261 161.55L252.72 175.78 256.15 176.84 252.88 178.95C252.364416 179.169584 252.043679 179.690782 252.08 180.25L251.87 182.98C251.87 183.05 251.87 183.11 251.87 183.18L251.87 183.18C251.87 183.32 251.87 183.46 251.87 183.6 251.87 183.74 251.87 183.73 251.87 183.8 251.87 183.87 251.87 183.99 251.87 184.09 251.87 184.19 251.87 184.28 251.87 184.37 251.87 184.46 251.87 184.51 251.87 184.57 251.910761 184.730182 251.971222 184.884694 252.05 185.03L252.05 185.03C252.318846 185.487471 252.809381 185.768863 253.34 185.77 253.421889 185.764235 253.502621 185.747416 253.58 185.72 253.658799 185.690956 253.732919 185.650527 253.8 185.6 253.047536 187.105499 252.412319 188.666797 251.9 190.27 251.59 191.27 251.31 192.2 251.09 193.19L251.09 193.19C252.382483 193.034396 253.61608 192.5602 254.68 191.81 254.893333 191.663333 255.103333 191.506667 255.31 191.34 256.343817 190.48083 257.240766 189.469234 257.97 188.34 258.716216 187.197358 259.342851 185.980949 259.84 184.71 260.026667 184.243333 260.2 183.776667 260.36 183.31L260.42 183.12C260.56 182.71 260.69 182.3 260.81 181.88L260.81 181.81C261.02 181.08 261.2 180.35 261.37 179.61L261.44 179.87 261.44 180.02 261.44 180.02C261.499935 180.254059 261.573391 180.484446 261.66 180.71L261.66 180.77C261.742884 180.98271 261.857519 181.181634 262 181.36 262.150121 181.548339 262.363173 181.67617 262.6 181.72 262.694787 181.746961 262.795213 181.746961 262.89 181.72 262.981747 181.675781 263.055781 181.601747 263.1 181.51 263.1 182.01 263.1 182.513333 263.1 183.02 263.1 184.02 263.1 185.02 263.25 186.09 263.296667 186.603333 263.36 187.116667 263.44 187.63 263.719064 187.492394 263.978107 187.317456 264.21 187.11 265.61 185.86 266.21 183.44 266.27 181 266.27 180.59 266.27 180.18 266.27 179.78L266.27 179.78C266.27 179.026667 266.226667 178.27 266.14 177.51 266.14 177.39 266.14 177.27 266.14 177.16 266.07 176.52 266 175.88 265.9 175.23L265.9 175.23C265.113701 170.680221 263.700238 166.261466 261.7 162.1L261.64 162.1C261.64 161.86 261.57 161.62 261.53 161.39L261.24 161.18 260.97 161.65 264.71 145.53 276.77 149.05 264.71 145.53 265.77 140.91zM262.16 174.91C262.16 174.77 262.16 174.64 262.16 174.5L262.36 174.5 262.16 174.91z"/>
    <path fill="#362C3B" fill-rule="nonzero" d="M503.24 289.62C503.221585 288.382962 503.046866 287.153214 502.72 285.96L503.24 289.62zM498.4 309.45L517.33 342.72 498.4 309.45zM297 204.74C303.8 210.28 313.72 211.67 322.2 211.66 324.043905 211.653962 325.886301 211.553832 327.72 211.36 319.72 212.91 311.66 214.52 303.72 216.51 300.859619 212.974944 298.590274 209.000214 297 204.74L297 204.74zM393 263.74C385.721881 261.9334 378.627895 259.452681 371.81 256.33 372.12 259.86 372.43 263.39 372.68 266.93 373.41 277.03 374.29 286.57 377.35 296.39 382.58 313.13 391.81 328.18 398.49 344.31L398.7 344.81C398.7 344.81 398.95 344.74 399 344.81 399.042395 344.896379 399.075901 344.986844 399.1 345.08L399.25 345.42 399.82 346.71C400.193333 347.57 400.553333 348.433333 400.9 349.3 401.566667 351.02 402.21 352.76 402.83 354.52 403.45 356.28 404.01 358.04 404.51 359.8 405.036667 361.573333 405.533333 363.353333 406 365.14 406.466667 366.926667 406.92 368.733333 407.36 370.56 407.726667 372.086667 408.086667 373.613333 408.44 375.14 409.621176 379.618358 409.869646 384.291642 409.17 388.87 408.783456 391.235205 408.066445 393.534354 407.04 395.7 406.43 396.96 403.65 399.7 403.56 400.9 404.56 387.76 398.84 377.83 391.56 367.67 384.79119 358.217408 375.881827 350.50053 365.56 345.15 358.89 341.7 352.66 337.5 345.83 334.3 343.94 333.41 327.24 325.91 326.12 327.72 325.543507 328.689595 325.022665 329.691215 324.56 330.72 322.574274 334.998784 320.032309 338.996663 317 342.61 316.16 343.61 315 344.61 313.74 344.33 312.807509 343.997517 312.165181 343.138453 312.11 342.15 312.070984 341.182043 312.227431 340.21615 312.57 339.31L314.33 333.55C314.87 331.79 315.33 329.74 314.33 328.22 313.821828 327.522694 313.092017 327.018525 312.26 326.79L315.18 326.67C314.4 326.67 313.63 326.67 312.84 326.67L311.96 326.67C311.756072 326.614504 311.549045 326.571095 311.34 326.54 306.34 325.94 299.77 327.95 294.87 329.06 266.87 335.4 238.09 351.38 209.4 338.62 200.72 334.76 193.2 327.4 191.02 318.15 192.85 325.92 209.66 328.34 215.71 328.08 224.56 327.69 234.45 323.67 242.53 320.08 268.34 308.6 286.21 283.01 297.53 257.98 299.63 253.32 303.41 240.98 294.42 242.26 284.07 243.67 271.17 243.38 262.05 249.1 258.597369 251.215608 255.773181 254.215876 253.87 257.79 250.87 263.68 250.87 271.23 254.57 276.79 247.57 272.44 244.7 263.08 246.38 254.98 249.1 241.85 259.85 234.24 270.98 228.46 281.096167 223.368594 291.762394 219.453058 302.77 216.79 299.537069 212.746257 297.066844 208.148045 295.48 203.22 295.426634 203.058207 295.469213 202.880148 295.59 202.76L295.16 203.11C294.27 203.83 293.05 204.59 292.07 204 291.451774 203.496071 291.036299 202.785856 290.9 202 289.81419 198.887011 287.293322 196.489021 284.13 195.56L284.91 195.11 284.13 195.04 285 195.04C289.070609 194.150485 293.320929 195.266055 296.43 198.04 297.155514 198.560234 297.587041 199.397249 297.59 200.29 297.384932 201.031418 296.910688 201.669686 296.26 202.08L295.53 202.67C295.73119 202.476978 296.04881 202.476978 296.25 202.67 303.66 209.94 316.14 211.13 325.99 210.49 335.31 209.88 344.82 205.28 354.17 207.3 354.25515 207.277072 354.34485 207.277072 354.43 207.3L355.53 207.63 355.63 207.68C357.031165 208.213953 358.278287 209.086595 359.26 210.22 359.58 210.41 359.9 210.59 360.26 210.81 361.098018 211.401674 361.878162 212.071326 362.59 212.81 363.547851 213.481334 364.456805 214.219859 365.31 215.02L393.64 241.64C396.279257 244.179565 399.103712 246.51935 402.09 248.64 403.610471 249.703049 405.197006 250.66833 406.84 251.53 408.412945 252.202594 409.566484 253.590562 409.94 255.26 410.013787 255.991229 409.907352 256.729401 409.63 257.41 408.504502 260.219343 406.159284 262.36207 403.26 263.23 402.52 263.47 401.76 263.63 401.02 263.87 400.28 264.11 399.56 264.82 398.87 265.03 398.18 265.24 396.87 264.7 396.16 264.54 395.093333 264.313333 394.04 264.063333 393 263.79L393 263.74zM492.56 291.86C492.85 291.04 492.92 289.79 493.86 289.44 494.223273 289.338212 494.59465 289.267952 494.97 289.23 495.497605 289.120014 496.013339 288.959266 496.51 288.75 497.784918 288.286237 499.027649 287.738366 500.23 287.11 500.986789 286.693719 501.694539 286.193933 502.34 285.62L502.45 285.7C502.19 285.86 501.94 286.04 501.7 286.22 501.15 286.63 501.7 288.55 501.7 289.22 501.793333 290.293333 501.863333 291.37 501.91 292.45 502.00473 294.600079 501.971338 296.753891 501.81 298.9 501.59 301.72 500.95 304.9 498.95 307.07L492.56 291.86zM497.15 294.68C497.248605 293.582942 497.278664 292.480801 497.24 291.38 497.24 291.04 497.24 288.77 496.89 288.7 496.54 288.63 496.59 289.3 496.63 289.55 496.69 289.97 496.736667 290.393333 496.77 290.82 496.841614 291.671342 496.86165 292.526238 496.83 293.38L497.15 294.68zM312.25 326.79L311.95 326.72"/>
    <path fill="#362C3B" fill-rule="nonzero" d="M266.13 339.76L268.06 337.14C267.646111 337.307955 267.271556 337.559929 266.96 337.88 266.536815 338.431182 266.252168 339.075922 266.13 339.76L266.13 339.76zM316 173.45C319.05 173.86 322.39 172.7 325.06 171.3L325.18 171.3C323.1 173.02 321.006667 174.726667 318.9 176.42 317.9 177.2 316.65 177.65 316.57 178.93 316.49 180.21 317.8 182 318.51 183.07 323.08 190 328 196.55 333.2 203 334.02 204 335.12 205.16 336.41 204.9 337.025952 204.715563 337.581665 204.3704 338.02 203.9L344.55 198.02C343.598137 199.33213 342.716887 200.694062 341.91 202.1 340.975014 203.704502 340.159475 205.375689 339.47 207.1 341.373791 205.603605 342.990012 203.77392 344.24 201.7L346.33 198.64 346.5 198.85 346.58 198.95C346.853333 199.303333 347.14 199.636667 347.44 199.95L347.49 200.01C347.803333 200.363333 348.136667 200.696667 348.49 201.01L348.49 201.01C348.836667 201.356667 349.196667 201.69 349.57 202.01L349.57 202.01C352.856396 204.990357 356.939024 206.950019 361.32 207.65 367.079649 208.425574 372.882446 206.56721 377.12 202.59 379.793907 199.827702 381.685194 196.404059 382.6 192.67 383.133195 190.781326 383.527579 188.856194 383.78 186.91 383.86 186.3 383.78 185.05 384.16 184.56 384.54 184.07 386.29 183.97 387.02 183.62 387.136244 183.576483 387.234735 183.495579 387.3 183.39 387.353295 183.213484 387.323887 183.022334 387.22 182.87 385.88 180.17 384.63 177.23 383.22 174.37L383.22 174.37C382.5 172.9 381.73 171.45 380.9 170.06L380.9 170C379.591212 167.747505 377.975763 165.687808 376.1 163.88 376.581313 163.437426 377.085328 163.020196 377.61 162.63 373.265304 158.174151 367.590377 155.250704 361.44 154.3 356.79 153.71 352.29 154.84 347.95 156.42 346.13 157.09 344.37 157.75 342.65 158.52 337.576254 154.615647 332.229225 151.079924 326.65 147.94L326.39 148.1 334.27 163.46C329.44 166.82 324.62 170.37 318.81 171.67L318.38 171.76C316.708479 172.199349 314.942433 172.115584 313.32 171.52 313.54 172.73 314.84 173.29 316 173.45z"/>
    <path fill="#992816" fill-rule="nonzero" d="M376.09,224 C376.340565,226.258701 376.854042,228.480415 377.62,230.62 C384.62,250.87 405.48,259.4 424.68,264.42 C436.76,267.58 449.79,269.15 460.57,261.27 C464.458856,258.42976 467.350007,254.432552 468.83,249.85 C469.563686,247.65573 469.852649,245.337229 469.68,243.03 C469.33,239.58 467.93,243.86 467.43,244.85 C466.683828,246.297689 465.752699,247.64228 464.66,248.85 C462.551254,251.205932 459.906927,253.020263 456.95,254.14 C444.95,258.62 433.57,250.14 425.3,242.41 L397.08,215.89 C390.99,210.17 380.66,206.44 376.83,217.11 C376.074558,219.323177 375.821766,221.676878 376.09,224 L376.09,224 Z"/>
    <path fill="#020101" fill-rule="nonzero" d="M83.46,187.28 C80.4511704,198.298006 76.8730329,209.15258 72.74,219.8 C70.05,226.51 67,233.07 64.24,239.75 C51.3050596,271.059384 44.7110713,304.624144 44.84,338.5 C44.7456403,339.617517 44.9637584,340.739267 45.47,341.74 C46.2067758,342.676937 47.2059152,343.373201 48.34,343.74 C53.84,346.11 61.04,347.74 65.19,343.45 C67.12,341.45 67.84,338.58 68.37,335.84 C70.02,327.19 70.44,318.36 71.51,309.62 C75.95,273.17 91.59,238.15 90.77,201.44 C90.69,198.06 90.35,194.36 87.99,191.93 C85.63,189.5 80.62,189.67 79.62,192.93 L83.46,187.28 Z"/>
    <path fill="#B76F4B" fill-rule="nonzero" d="M398,345.84 C417.22,357.24 436.93,377.16 435.2,401.01 C448.56,386.01 436.46,359.93 430.14,344.67 C423.48,328.6 414.29,313.61 409.08,296.94 C406.03,287.16 405.15,277.65 404.43,267.6 C403.67,257.02 402.54,246.45 401.6,235.88 C401.36425,231.401901 400.643365,226.962595 399.45,222.64 C398.1,218.37 395.71,214.29 392.04,211.71 C387.96,208.84 382.64,208.1 377.71,208.87 L377.36,208.94 C377.450523,208.838608 377.563544,208.759836 377.69,208.71 C352.44,213.94 326.24,217.22 303.1,229.25 C292.02,235.01 281.31,242.59 278.6,255.67 C276.93,263.74 279.76,273.05 286.76,277.39 C283.09,271.9 283.03,264.39 286.06,258.51 C287.957107,254.951776 290.770897,251.96536 294.21,249.86 C303.35,244.13 316.21,244.71 326.64,244.76 C328.554815,244.663418 330.470861,244.924543 332.29,245.53 C334.130907,246.166339 335.50677,247.716554 335.92,249.62 C336.17,251.36 335.3,253.05 334.45,254.62 C320.36,279.99 302.3,308.36 274.8,320.62 C266.8,324.2 256.9,328.2 248.09,328.62 C242.09,328.89 225.32,326.47 223.5,318.73 C225.67,327.94 233.16,335.27 241.81,339.12 C270.38,351.82 299.03,335.91 326.94,329.59 C331.40767,328.424427 335.947595,327.555861 340.53,326.99 C344.77,326.6 362.36,325.39 362.42,331.51 C362.296621,333.067614 361.879262,334.587751 361.19,335.99 C360.615595,337.4739 360.151011,338.998004 359.8,340.55 C359.449502,341.574354 359.503152,342.693857 359.95,343.68 C360.53524,344.524401 361.525982,344.993099 362.55,344.91 C363.553492,344.821596 364.51754,344.477293 365.35,343.91 C367.659139,342.294707 369.643674,340.259286 371.2,337.91 C372.68,335.91 373.41,332.85 376.1,334.05 C379.1,335.41 382.1,336.92 385.02,338.5 C387.94,340.08 390.94,341.81 393.87,343.5 L398,345.84 Z"/>
    <path fill="#5E302B" fill-rule="nonzero" d="M277,284 C271.491905,280.734915 265.326189,278.736609 258.95,278.15 C256.011143,278.114422 253.091362,278.626486 250.34,279.66 C249.158094,279.253378 248.016522,278.737829 246.93,278.12 C244.08,277.8 241.76,276.71 239.15,273.73 C234.91416,269.141185 232.389072,263.232832 232,257 C231.23,244.37 235.1,232.16 239.69,220 C240.69,217.41 241.69,214.82 242.69,212.23 C239.69,206.16 234.46,201.11 231.98,194.74 L231.59,194.66 C214.375954,221.704664 180.866634,233.423002 150.55,223 C148.35,222.24 146.2,221.37 144.08,220.43 C128.73,215.55 113.49,208.3 101.26,198.34 C98.39,196 95.38,193.34 92.48,190.47 C92.0531176,198.358248 90.888025,206.189143 89,213.86 C98,224.5 109.41,233.34 119.36,242.71 C133.65,256.16 147.75,269.81 154.12,288.93 C158.87,303.18 157.92,318.61 154.97,333.13 C153.71,339.31 151.71,343.86 149.07,349.4 C146.34,355.11 144.77,361.24 142.07,367 C155.569489,365.778651 168.879867,362.983002 181.73,358.67 L182.79,357.32 C201.22,333.89 222.43,311.53 254.03,313.39 C262.746379,304.469783 270.44984,294.613243 277,284 Z"/>
    <path fill="#B76F4B" fill-rule="nonzero" d="M239.71,220.06 C235.12,232.18 231.25,244.39 232.02,257.06 C232.40806,263.283316 234.925652,269.183592 239.15,273.77 C243.49,278.77 247.02,278.47 253.53,278.11 C267.33,277.34 281.09,284.17 289.68,294.99 C298.27,305.81 301.84,320.23 300.38,333.99 C299.785405,338.914832 298.781941,343.781631 297.38,348.54 C293.81,361.32 287.82,374.76 275.91,380.61 C285.039042,367.942423 288.227323,351.939003 284.65,336.74 C283.03,330.07 279.91,323.48 274.43,319.35 C269.43,315.57 262.96,314.26 256.7,313.63 C223.61,310.31 201.7,333.28 182.79,357.35 C171.7,371.45 160.71,386.1 145.96,396.35 C135.08,403.88 122.06,409.09 114.2,419.73 C119.28,400.56 131.93,386.23 141.09,369.06 C144.46,362.75 146.09,355.85 149.09,349.48 C151.73,343.94 153.73,339.39 154.99,333.21 C157.99,318.69 158.9,303.27 154.14,289.01 C147.76,269.89 133.67,256.24 119.38,242.79 C105.91,230.11 89.82,218.42 80.52,201.91 C76.0364471,194.046365 73.2882054,185.314049 72.46,176.3 C71.95,170.3 71.52,157.56 76.08,153.2 C72.75,171.35 88.33,187.87 101.24,198.38 C116.32,210.67 135.99,218.83 154.78,223.5 C171.15,227.58 189.32,224.77 203.33,215.22 C206.615589,212.91278 209.758039,210.408171 212.74,207.72 C219.11,202.13 224.34,197.72 228.63,190.39 C233.3,182.39 237.57,174.14 240.05,165.2 C243.66,152.2 241.77,140.77 237.2,128.77 C252.89,141.15 254.83,166.02 251.6,184.18 C249.47,196.22 244.24,208.09 239.71,220.06 Z"/>
    <path fill="#992816" fill-rule="nonzero" d="M122.11,364.67 C143.276915,364.622795 164.255076,360.687483 184,353.06 C216.89,340.46 251.16,316.83 267.48,284.66 C269.48,280.66 271.27,278.66 266.19,277.32 C262.976364,276.673785 259.70791,276.338903 256.43,276.32 C250.43,275.99 243.89,275.89 239.17,271.66 C235.73,268.59 234.11,263.89 233.82,259.29 C233.53,254.69 234.44,250.11 235.34,245.59 C237.34,235.41 242.16,223.24 239.16,213.02 C236.85,205.17 229.94,199.45 226.97,191.82 L226.58,191.74 C209.343474,218.750146 175.845187,230.432999 145.55,220 C138.91,217.71 132.66,214.43 126.44,211.16 C116.69,206.03 106.83,200.83 98.67,193.44 C95.05,190.17 91.81,186.5 88.23,183.18 L87.59,183.03 C87.59,210.4 75.82,236.16 68.09,262.42 C59.87,290.32 53.55,323.56 57.3,352.74 L57.3,352.74 C58.45,361.74 81.37,361.74 88.61,362.47 C99.75,363.56 110.92,364.65 122.11,364.67 Z"/>
    <path fill="#B76F4B" fill-rule="nonzero" d="M151,177.55 C156.36,165.41 173.37,161.85 184,169.15 C186.444824,170.909703 188.618005,173.018867 190.45,175.41 C192.283698,177.840319 193.8778,180.442457 195.21,183.18 C195.93,184.55 196.63,185.93 197.4,187.28 C197.77,187.94 198.16,188.58 198.57,189.22 C198.98,189.86 199.36,190.27 198.33,190.58 C194.74,191.67 195.98,194.36 195.75,197.49 C195.608061,200.881683 194.720338,204.200399 193.15,207.21 C190.700799,211.437132 186.653359,214.500643 181.92,215.71 C177.188544,216.87158 172.200419,216.35191 167.81,214.24 C155.56,208.44 145.16,190.81 151,177.55 Z"/>
    <path fill="#824B33" fill-rule="nonzero" d="M163.43,211.61 L179.43,183.5 C171.59,190.5 164.72,198.5 158.04,206.62 C159.652876,208.471468 161.459901,210.144391 163.43,211.61 L163.43,211.61 Z"/>
    <path fill="#992816" fill-rule="nonzero" d="M178.69,216.25 C180.77,207.77 182.753333,199.263333 184.64,190.73 C182.03,192.81 180.24,195.73 178.5,198.57 L168.71,214.57 C171.853497,215.923276 175.276693,216.499526 178.69,216.25 L178.69,216.25 Z"/>
    <path fill="#000000" fill-rule="nonzero" d="M166.27,294.34 L166.08,301.11 C155.83,269.52 151.08,237.21 145.47,204.66 C144.35,198.2 143.6,191.57 144.74,185.12 C145.88,178.67 149.11,172.34 154.56,168.71 C158.994163,165.825032 164.190795,164.334309 169.48,164.43 C172.72,164.43 176.81,164.43 179.66,166.1 C180.629221,166.714938 181.56396,167.382609 182.46,168.1 C182.614864,168.161553 182.735035,168.287795 182.788887,168.445502 C182.842738,168.60321 182.824875,168.776585 182.74,168.92 C176.4,185.24 172.92,202.74 170.65,220.06 C168.34,237.67 167.42,255.42 166.87,273.16 C166.783333,275.966667 166.703333,278.773333 166.63,281.58 C166.49,286.846667 166.41,292.116667 166.39,297.39"/>
    <path fill="#992816" fill-rule="nonzero" d="M531.08,249.91 C536.997199,256.54372 543.897539,262.229924 551.54,266.77 C559.47,271.37 569.06,275.23 578.38,273.54 C587.22,271.94 595.13,263.78 594.23,254.84 C596.55,266.21 591.89,278.55 583.08,286.1 C574.27,293.65 561.78,296.42 550.43,294 C539.08,291.58 529.02,284.24 522.6,274.58 C518.702409,268.668411 516.111366,261.993065 515,255 C514,248.73 514.48,242.75 514.7,236.51 C521.44,238.43 526.09,244.38 530.79,249.58 L531.08,249.91 Z"/>
    <path d="M318.32,337.09 C318.442943,336.4092 318.727592,335.767883 319.15,335.22 C319.458449,334.900846 319.829549,334.648907 320.24,334.48"/>
    <path fill="#992816" fill-rule="nonzero" d="M369 240.2C368.195682 240.062298 367.377298 240.349876 366.835921 240.96045 366.294545 241.571025 366.107004 242.41795 366.34 243.2 366.743055 243.924439 367.491443 244.389573 368.319459 244.430261 369.147474 244.47095 369.93786 244.081432 370.41 243.4 370.747279 242.640394 370.674711 241.761347 370.217431 241.067334 369.760152 240.373321 368.981056 239.959799 368.15 239.97M400.85 245.15C400.0271 245.003048 399.187223 245.296708 398.635176 245.924406 398.083129 246.552103 397.899147 247.422609 398.15 248.22 398.558651 248.9528 399.316429 249.422942 400.154484 249.463624 400.99254 249.504306 401.792292 249.109773 402.27 248.42 402.586963 247.659308 402.503676 246.790646 402.047946 246.104039 401.592216 245.417432 400.82408 245.003334 400 245"/>
    <path fill="#000000" fill-rule="nonzero" d="M387.38,208.53 C377.64,205.72 367.69,210.75 357.96,211.38 C348.23,212.01 335.72,210.83 328.34,203.6 C328.180134,203.432894 327.92653,203.397225 327.726771,203.513751 C327.527013,203.630277 327.433231,203.868588 327.5,204.09 C331.5,216.91 342.11,227.37 354.5,232.38 C366.63,237.31 385.78,237.99 392.4,224.07 C395.25,218.07 393.4,209.97 386.32,208.21 C386.043858,208.135442 385.759558,208.298858 385.685,208.575 C385.610442,208.851142 385.773858,209.135442 386.05,209.21 L387.15,209.54 C387.426142,209.614558 387.710441,209.451142 387.785,209.175 C387.859558,208.898858 387.696142,208.614558 387.42,208.54 L386.32,208.21 L386.05,209.21 C390.65,210.35 393.19,214.87 392.71,219.43 C392.2,224.24 388.93,228.29 384.98,230.85 C377.73,235.54 368.43,235.45 360.33,233.32 C345.91,229.53 333.04,218.23 328.51,203.87 L327.67,204.36 C334.42,210.98 345.17,212.57 354.24,212.56 C359.418993,212.474082 364.571689,211.803158 369.6,210.56 C375.4,209.23 381.28,207.85 387.15,209.56 C387.434427,209.623513 387.716487,209.444427 387.78,209.16 C387.843513,208.875573 387.664427,208.593513 387.38,208.53 L387.38,208.53 Z"/>
    <path fill="#B76F4B" fill-rule="nonzero" d="M418.69,184.62 C418.806244,184.576483 418.904735,184.495579 418.97,184.39 C419.020127,184.216538 418.990832,184.029782 418.89,183.88 C415.47,176.95 412.6,168.5 406.25,163.66 C401.223238,159.893427 394.738213,158.660645 388.68,160.32 C388.26,160.44 387.846667,160.573333 387.44,160.72 C381.24,162.94 376.6,168.36 374.37,174.44 C371.75,181.59 372.83,189.34 376.12,196.12 C379.501641,202.718992 385.806259,207.32878 393.12,208.55 C398.848241,209.331271 404.624169,207.495311 408.85,203.55 C411.513987,200.799157 413.3984,197.389268 414.31,193.67 C414.83942,191.78775 415.230464,189.869299 415.48,187.93 C415.56,187.32 415.48,186.08 415.85,185.59 C416.22,185.1 418,185 418.69,184.62 Z"/>
    <path fill="#992816" fill-rule="nonzero" d="M390.4,178 L377.52,198.56 C378.622371,200.184604 379.926079,201.663036 381.4,202.96 L381.48,202.96 C381.708576,202.932066 381.920507,202.8261 382.08,202.66 L398.33,189.16 C403.856667,184.573333 409.383333,179.986667 414.91,175.4 C413.538822,172.4505 411.827181,169.6716 409.81,167.12 C403.363333,170.793333 396.893333,174.42 390.4,178 Z"/>
    <path fill="#FFFFFF" fill-rule="nonzero" d="M409.84,176.62 C409.93,176.72 409.66,177.02 409.59,177.1 C409.045698,177.693322 408.275131,178.027719 407.47,178.02 C406.978195,177.999705 406.498292,177.86259 406.07,177.62 C405.71,177.42 405.07,177.02 405.02,176.62 C405.02,176.62 407.18,176.62 407.38,176.62 L409.05,176.62 C409.18,176.6 409.73,176.53 409.84,176.62 Z"/>
    <path fill="#000000" fill-rule="nonzero" d="M357.14,172.31 C355.066667,174.023333 352.98,175.723333 350.88,177.41 C349.88,178.19 348.64,178.63 348.56,179.91 C348.48,181.19 349.78,182.97 350.49,184.03 C355.04,190.91 359.96,197.46 365.12,203.89 C365.94,204.89 367.04,206.04 368.32,205.78 C368.932553,205.594401 369.484747,205.249279 369.92,204.78 L377.07,198.33 C376.51,198.33 374.14,202.39 373.79,202.98 C372.857609,204.561674 372.042102,206.2094 371.35,207.91 C373.246146,206.419194 374.855622,204.596251 376.1,202.53 C383.22,192.13 390.41,181.2 399.23,172.12 C399.01,180.39 398.96,187.62 404.91,194.34 C402.91,188.97 400.91,183.34 401.44,177.67 C401.953262,172.106194 404.798032,167.019759 409.27,163.67 C404.944337,159.232057 399.294184,156.319245 393.17,155.37 C388.54,154.78 384.05,155.91 379.73,157.49 C376.293778,158.629848 372.991172,160.138653 369.88,161.99 C363.73,165.86 358.01,171.05 350.73,172.68 L350.3,172.77 C348.647542,173.198729 346.903798,173.115029 345.3,172.53 C345.57,173.67 346.86,174.23 348.02,174.39 C351.02,174.8 354.38,173.64 357.02,172.25"/>
    <path fill="#FFFFFF" fill-rule="nonzero" d="M386.35 174.93L381.86 176.6C381.48 176.74 381 176.86 380.73 176.6 380.601668 176.422913 380.534927 176.208639 380.54 175.99L380.27 173.11 377.41 176.35C375.936399 176.158271 374.496211 175.764575 373.13 175.18 372.852748 175.095234 372.617288 174.90972 372.47 174.66 372.374567 174.319306 372.43303 173.95391 372.63 173.66 373.583333 171.66 374.56 169.66 375.56 167.66L368.68 169.47 358.3 149.26 358.56 149.1C364.141646 152.239683 369.488926 155.778914 374.56 159.69 379.636836 163.617554 383.802399 168.59849 386.77 174.29M317.13 198C321.188109 197.113958 325.424884 198.229877 328.52 201 329.243939 201.517067 329.675475 202.350379 329.68 203.24 329.475816 203.981849 329.001356 204.620407 328.35 205.03L327.18 205.98C326.29 206.7 325.08 207.45 324.1 206.86 323.517598 206.364675 323.125255 205.682493 322.99 204.93 321.90785 201.831855 319.398524 199.445389 316.25 198.52L317.03 198.07 316.26 198"/>
    <path fill="#B76F4B" fill-rule="nonzero" d="M512.36,184 C523.36,176.53 539.65,182.48 544.8,194.29 C545.955492,197.070071 546.696724,200.004673 547,203 C547.69,208.81 546.38,214.39 546.63,220.09 C545.427688,219.930344 544.240414,219.672822 543.08,219.32 C540.634775,226.020362 534.955745,231.021524 528,232.6 C521.030166,234.025293 513.822651,231.699921 509,226.47 C504.4,221.33 502.83,214.12 502.74,207.23 C502.62,198.5 505.15,188.95 512.36,184 Z"/>
    <path fill="#FFFFFF" fill-rule="nonzero" d="M543.72,194 C540.72,194.19 537.72,194.38 534.72,194.61 C524.233493,195.439403 513.80089,196.848221 503.47,198.83 C503.096525,200.670024 502.859216,202.535079 502.76,204.41 L543.56,200.63 C544.545523,200.571608 545.521508,200.403913 546.47,200.13 C546.118259,198.145374 545.544662,196.206547 544.76,194.35 C544.7,194.22 544.63,194.09 544.57,193.96 L543.72,194 Z"/>
    <path fill="#992816" fill-rule="nonzero" d="M527.11 209.94C530.29 209.36 533.49 208.903333 536.71 208.57 537.861179 208.370023 539.04219 208.424636 540.17 208.73 540.33 209.04 539.89 209.3 539.55 209.37L525.12 212.32M526.2 212.94L537.5 211.16C537.736681 211.088717 537.992745 211.125297 538.2 211.26 538.399564 211.477875 538.399564 211.812125 538.2 212.03 537.989201 212.224483 537.730275 212.359124 537.45 212.42 532.851926 213.843659 528.089151 214.667145 523.28 214.87 522.49 214.87 521.53 215.04 521.28 215.78"/>
    <path fill="#000000" fill-rule="nonzero" d="M446,204.33 C446.414244,205.820026 447.222621,207.170776 448.34,208.24 C450.289775,209.791117 452.795314,210.464572 455.26,210.1 C454.46,210.23 459.06,215.78 459.65,216.16 C462.133529,217.814882 465.290336,218.086435 468.02,216.88 C468.23,216.79 472.79,219.19 473.59,219.34 C475.9562,219.802744 478.400634,219.665223 480.7,218.94 C482.05,218.51 483.08,217.76 484.47,218.11 C486.27,218.56 487.72,220 489.7,220.33 C492.25,220.75 494.63,219.85 497.17,220.33 C500.070661,220.866769 503.023021,221.071421 505.97,220.94 C512.113268,220.583772 518.102279,218.876528 523.51,215.94 C531.283443,211.66168 537.692227,205.27716 542,197.52 C545.51,191.27 545.34,184.18 538,181.09 C530.358026,177.90728 521.896074,177.262293 513.86,179.25 C506.22,181.14 501.3,187.56 498.15,194.52 C495.36,200.68 493.98,207.37 492.63,213.99 C490.358659,212.322277 487.209556,212.564516 485.22,214.56 C481.42,210.19 474.14,209.49 469.74,213.25 C467.300824,210.131535 463.441722,208.469559 459.5,208.84 C458.914565,208.97729 458.301382,208.935483 457.74,208.72 C457.248939,208.366676 456.873212,207.876144 456.66,207.31 C455.223208,204.635641 452.693456,202.719163 449.73,202.06 C448.824097,201.97833 447.950334,201.683649 447.18,201.2 C446.25,200.43 446.09,199.1 445.85,197.91 C445.221217,194.893129 443.623391,192.164533 441.3,190.14 C442.23,187.58 443.3,184.34 441.83,182.03 C441.25,181.1 440.29,180.32 440.17,179.22 C440.150005,178.67391 440.2279,178.128648 440.4,177.61 C441.270764,174.148943 441.054282,170.503669 439.78,167.17 C439.894088,168.924702 439.549455,170.678882 438.78,172.26 C438.030676,173.511831 437.449034,174.856668 437.05,176.26 C436.663013,177.70171 437.151258,179.236754 438.3,180.19 C437.84427,182.969255 438.015096,185.815212 438.8,188.52 C439.07,189.64 439.87,190.19 439.97,191.24 C440.12,192.82 438.87,194.24 439.39,196.1 C439.931363,198.021992 441.313756,199.595567 443.15,200.38 C444.79,201.06 445.38,202.66 446,204.33 Z"/>
    <path fill="#992816" fill-rule="nonzero" d="M469.84,321 C461.84,320.21 454.63,325.78 448.91,331.46 C443.19,337.14 437.41,343.6 429.54,345.39 C421.03,347.32 412.19,343.14 405.66,337.39 C401.31,333.54 397.5,328.66 396.6,322.92 C393.79,332.33 397.28,342.61 402.8,350.72 C412.69,365.26 429.66,375.05 447.25,375.16 C464.84,375.27 482.39,365.16 490.12,349.36"/>
    <path fill="#B76F4B" fill-rule="nonzero" d="M548.55,343 C548.208592,342.4065 547.83469,341.832294 547.43,341.28 C542.15,334.07 533.43,329.28 527.43,322.71 C525.105027,320.184168 523.366925,317.175782 522.34,313.9 C520.15,306.83 521.49,299.23 523.89,292.4 C524.18,291.58 524.25,290.34 525.19,289.99 C525.553273,289.888212 525.92465,289.817952 526.3,289.78 C526.824265,289.669634 527.336644,289.508888 527.83,289.3 C529.1017,288.836292 530.341108,288.288413 531.54,287.66 C532.925348,286.914479 534.143632,285.893571 535.12,284.66 C535.913333,283.653333 536.696667,282.653333 537.47,281.66 C537.55,281.56 538.67,279.96 538.72,279.98 C531.72,276.98 528.52,268.88 526.84,261.44 C525.16,254 524,245.89 519,240.16 C517.539269,238.383875 515.598951,237.064875 513.41,236.36 C511.559809,235.94807 509.654911,235.839991 507.77,236.04 C499.95,236.45 492.31,237.49 484.54,238.6 C477.308333,239.555707 470.169846,241.117878 463.2,243.27 C451.04,247.18 439.42,253.89 431.8,264.14 C427.71,269.64 424.8,276.25 424.8,283.14 C424.8,290.03 428,297.04 433.86,300.59 C428.78,291.24 432.63,278.12 441.96,273 C453.51,266.66 467.34,272.66 480.69,273.68 C475.849718,280.921319 471.541721,288.504598 467.8,296.37 C462.8,306.96 458.72,318.91 461.68,330.26 C465.58,345.17 480.53,354.62 495.37,358.79 C508.43,362.46 521.28,365.29 524.09,380.46 C525.33,387.16 525.09,394 524.87,400.78 C524.7,405.3 522.46,417.5 525.68,420.91 C526.16,413.91 528.42,408.43 531.97,402.21 C536.636667,393.97 540.996667,385.553333 545.05,376.96 C547.7,371.29 550.23,365.47 551.13,359.28 C551.93,353.73 551.31,347.83 548.55,343 Z"/>
    <path fill="#992816" fill-rule="nonzero" d="M535.65,278.13 C535.299335,279.793885 535.532403,281.527775 536.31,283.04 L536.99,282.16 C536.541589,281.09001 536.389601,279.919009 536.55,278.77 C536.24,278.56 535.94,278.35 535.65,278.13 Z"/>
    <path fill="#B76F4B" fill-rule="nonzero" d="M517.24,235.77 C517.267614,235.77 517.29,235.747614 517.29,235.72 C517.29,235.692386 517.267614,235.67 517.24,235.67 C517.212386,235.67 517.19,235.692386 517.19,235.72 C517.19,235.747614 517.212386,235.77 517.24,235.77 Z"/>
    <path fill="#000000" fill-rule="nonzero" d="M497.4 236.76C497.332692 236.770658 497.268135 236.794442 497.21 236.83 496.92 237.03 496.85 237.83 496.76 238.16 496.626667 238.646667 496.496667 239.133333 496.37 239.62 496.116667 240.62 495.886667 241.62 495.68 242.62 495.266667 244.62 494.933333 246.653333 494.68 248.72 494.214157 252.883049 494.103758 257.078212 494.35 261.26 494.829187 269.537954 496.565746 277.694725 499.5 285.45 501.97 291.95 505.42 298.25 510.39 303.19 512.801414 305.620997 515.612228 307.620023 518.7 309.1 522.04 310.67 526.23 311.96 529.7 309.89 532.41 308.25 533.7 305.1 534.24 302.12 534.532914 300.432125 534.686765 298.723052 534.7 297.01 534.746667 294.723333 534.686667 292.436667 534.52 290.15 534.525975 288.791501 534.313255 287.440895 533.89 286.15 533.565462 286.337695 533.254678 286.548226 532.96 286.78 532.41 287.19 532.96 289.1 532.96 289.78 533.053333 290.853333 533.12 291.926667 533.16 293 533.254433 295.143417 533.22104 297.290556 533.06 299.43 532.84 302.24 532.21 305.43 530.21 307.57 529.166728 308.691837 527.737849 309.377699 526.21 309.49 524.273789 309.536786 522.352204 309.14358 520.59 308.34 517.579582 307.093348 514.816151 305.318792 512.43 303.1 507.51 298.59 504.01 292.66 501.52 286.52 498.579195 279.218429 496.735868 271.521611 496.05 263.68 495.291123 255.632514 495.920272 247.514469 497.91 239.68 498.103333 238.946667 498.31 238.213333 498.53 237.48 498.66 237.06 498.81 236.87 498.29 236.78 497.997018 236.719263 497.695414 236.712486 497.4 236.76L497.4 236.76zM457 192.33C457.414244 193.820026 458.222621 195.170776 459.34 196.24 461.289775 197.791117 463.795314 198.464572 466.26 198.1 465.46 198.23 470.06 203.78 470.65 204.16 473.133529 205.814882 476.290336 206.086435 479.02 204.88 479.23 204.79 483.79 207.19 484.59 207.34 486.9562 207.802744 489.400634 207.665223 491.7 206.94 493.05 206.51 494.08 205.76 495.47 206.11 497.97 206.73 503.47 210.9 505.25 206.63 505.630139 205.581773 505.520032 204.418305 504.95 203.46 504.241348 201.89241 502.670141 200.894694 500.95 200.92 500.54 200.92 495.59 201.86 496.2 202.56 492.4 198.19 485.12 197.49 480.72 201.25 478.280824 198.131535 474.421722 196.469559 470.48 196.84 469.894565 196.97729 469.281382 196.935483 468.72 196.72 468.228939 196.366676 467.853212 195.876144 467.64 195.31 466.203208 192.635641 463.673456 190.719163 460.71 190.06 459.804097 189.97833 458.930334 189.683649 458.16 189.2 457.23 188.43 457.07 187.1 456.83 185.91 456.201217 182.893129 454.603391 180.164533 452.28 178.14 453.21 175.58 454.28 172.34 452.81 170.03 452.23 169.1 451.27 168.32 451.15 167.22 451.130005 166.67391 451.2079 166.128648 451.38 165.61 452.250764 162.148943 452.034282 158.503669 450.76 155.17 450.874088 156.924702 450.529455 158.678882 449.76 160.26 449.010676 161.511831 448.429034 162.856668 448.03 164.26 447.643013 165.70171 448.131258 167.236754 449.28 168.19 448.82427 170.969255 448.995096 173.815212 449.78 176.52 450.05 177.64 450.85 178.19 450.95 179.24 451.1 180.82 449.85 182.24 450.37 184.1 450.911363 186.021992 452.293756 187.595567 454.13 188.38 455.79 189.06 456.38 190.66 457 192.33z"/>
    <path fill="#000000" fill-rule="nonzero" d="M507.38,236.1 C503.806831,247.425814 503.228037,259.48402 505.7,271.1 C506.900331,276.825075 508.818842,282.375652 511.41,287.62 C512.759726,290.346427 514.29674,292.976058 516.01,295.49 C517.5,297.68 519.17,300.49 521.61,301.7 C523.33,302.57 525.29,302.7 526.61,301.07 C527.93,299.44 528.29,297.17 528.47,295.17 C528.568449,294.076276 528.598507,292.977471 528.56,291.88 C528.56,291.54 528.56,289.28 528.21,289.21 C527.86,289.14 527.91,289.8 527.95,290.06 C528.01,290.48 528.056667,290.9 528.09,291.32 C528.161405,292.168012 528.181442,293.019568 528.15,293.87 C528.091298,295.594887 527.784827,297.302366 527.24,298.94 C526.65,300.67 525.47,301.94 523.51,301.74 C521.915547,301.469798 520.484617,300.600508 519.51,299.31 C516.027108,295.170573 513.160809,290.549465 511,285.59 C506.48881,275.717493 504.348506,264.926936 504.75,254.08 C504.975658,248.015233 506.028726,242.009715 507.88,236.23 C508,235.92 507.47,235.79 507.38,236.1 Z"/>
    <path fill="#FFFFFF" fill-rule="nonzero" d="M522.24,194.39 C518.81683,193.734347 515.481225,192.684001 512.3,191.26 C511.885723,191.114212 511.533171,190.83217 511.3,190.46 C511.15978,190.044854 511.15978,189.595146 511.3,189.18 L512.3,184.84 L509.51,189.21 L510.95,184.34 C510.120232,185.933369 509.073606,187.404031 507.84,188.71 C505.733788,187.464483 503.727728,186.056897 501.84,184.5 C500.32,183.25 498.74,181.5 499.14,179.59 C499.43,178.22 500.69,177.11 500.62,175.71 L496.81,180 C492.86788,175.669672 489.777266,170.635126 487.7,165.16 L487.79,164.88 C502.481276,171.095731 515.683137,180.363963 526.52,192.07"/>
    <path fill="#992816" fill-rule="nonzero" d="M499.63,182.27 C502.21208,180.167015 504.24669,177.470212 505.56,174.41 C499.933763,170.719296 493.986377,167.543118 487.79,164.92 L487.7,165.2 C489.781739,170.660946 492.872139,175.681573 496.81,180 L500.5,175.68 C500.56,177.08 499.3,178.19 499.02,179.56 C498.850303,180.508616 499.070211,181.485586 499.63,182.27 L499.63,182.27 Z"/>
    <path fill="#FFFFFF" fill-rule="nonzero" d="M518.57,198.18 C516.634377,198.875577 514.618244,199.322486 512.57,199.51 C511.63,199.59 510.33,199.32 510.32,198.38 C510.32,197.71 510.99,196.9 510.46,196.48 C509.929215,197.597635 508.834687,198.340077 507.6,198.42 C506.388034,198.481855 505.17493,198.322593 504.02,197.95 C503.473529,197.863874 502.965182,197.616664 502.56,197.24 C501.85,196.42 502.3,195.16 502.78,194.24 C502.263688,195.209757 501.25859,195.819721 500.16,195.83 C499.082181,195.823929 498.01458,195.620577 497.01,195.23 L491.89,193.59 L491.84,193.34 C501.234915,191.146964 511.080269,191.944102 520,195.62"/>
    <path fill="#992816" fill-rule="nonzero" d="M491.79,193.27 L491.84,193.52 L496.96,195.16 C497.964518,195.550794 499.032159,195.754155 500.11,195.76 C501.20859,195.749721 502.213688,195.139757 502.73,194.17 C502.25,195.17 501.8,196.4 502.51,197.17 C502.915182,197.546664 503.423529,197.793874 503.97,197.88 L504,197.88 C504.496142,197.41363 504.926734,196.882118 505.28,196.3 C505.986704,195.045981 506.274021,193.598884 506.1,192.17 C501.301827,191.785694 496.473067,192.156877 491.79,193.27 L491.79,193.27 Z"/>
    <path fill="#872910" fill-rule="nonzero" d="M336.07,413 C336.208071,413 336.32,412.888071 336.32,412.75 C336.32,412.611929 336.208071,412.5 336.07,412.5 C335.931929,412.5 335.82,412.611929 335.82,412.75 C335.82,412.888071 335.931929,413 336.07,413 Z"/>
    <path fill="#FFFFFF" fill-rule="nonzero" d="M159.88 208.26C163.38 204.76 166.83 201.21 170.19 197.53L180.51 186.23 185.67 180.58C186.39 179.8 189.5 175.37 190.43 175.37 188.604925 172.994549 186.442003 170.899008 184.01 169.15 183.401546 168.732327 182.770595 168.348415 182.12 168 181.24 167.53 164.65 185.23 162.85 186.95 159.52 190.12 156.05 193.14 152.7 196.29 151.01 197.88 149.36 199.51 147.78 201.2 146.911468 201.956004 146.139025 202.815767 145.48 203.76 145.04 204.61 145.48 206.21 145.59 207.14 145.59 207.44 145.67 207.73 145.72 208.03L146.65 214.47C146.810538 215.751604 147.04088 217.023494 147.34 218.28 147.47 218.8 147.48 219.48 148.1 219.45 148.72 219.42 149.22 218.75 149.56 218.45 153 215 156.47 211.68 159.88 208.26zM140.17 156.32C126.44 155.52 112.67 156.51 98.95 157.5L85.95 158.44C93.4439709 162.82555 101.710267 165.731484 110.3 167 114.51 167.62 118.77 167.84 123.02 168.06L151.74 169.54C159.98 169.97 168.18 169.83 176.39 169.99 176.850121 170.020749 177.312231 169.980272 177.76 169.87 178.653989 169.490809 179.406122 168.840126 179.91 168.01 180.251293 167.640478 180.474189 167.177272 180.55 166.68 180.64 164.86 173.26 162.86 171.79 162.33 168.382564 161.135044 164.91037 160.13345 161.39 159.33 154.415294 157.724187 147.316146 156.717192 140.17 156.32L140.17 156.32zM171.39 172.24C146.989424 171.054605 122.533792 171.749995 98.24 174.32 97.4529022 174.315072 96.6721532 174.461038 95.94 174.75 96.0061418 174.891226 96.1301087 174.996963 96.28 175.04 102.099073 177.054181 108.105967 178.478012 114.21 179.29 122.64 180.29 131.21 179.9 139.65 179.47 147.92 179.04 156.26 179.15 164.47 177.89 167.47 177.43 170.58 176.75 172.84 174.75 173.205571 174.4688 173.480315 174.086245 173.63 173.65 173.89 172.65 173.06 172.31 172.28 172.3"/>
    <path d="M91.58,191.22 L93.06,190.92"/>
    <path fill="#FFFFFF" fill-rule="nonzero" d="M189.39 185.56C188.841903 186.484789 187.881074 187.088101 186.81 187.18 185.750714 187.392399 184.668331 187.466351 183.59 187.4L183.59 187.33 189.51 185.22M125.4 183.69C129.32 183.36 133.23 183.08 137.14 182.69L165.38 179.98C165.095171 181.801231 163.988983 183.390454 162.38 184.29 160.794541 185.181308 159.095808 185.854073 157.33 186.29 147.65 189.16 138.33 193.51 128.26 194.64 126.539912 194.901895 124.790088 194.901895 123.07 194.64 121.644606 194.311112 120.257179 193.835232 118.93 193.22 116.34 192.13 113.75 191.03 111.25 189.74 109.991345 189.092682 108.766429 188.381764 107.58 187.61 106.9 187.16 106.22 187.04 106.12 186.22 110.02 185 114.7 184.95 118.77 184.47 121 184.07 123.2 183.87 125.4 183.69zM154.79 190.21C143.516667 195.436667 132.276667 200.723333 121.07 206.07 123.472459 207.02255 125.965163 207.729486 128.51 208.18 130.067818 208.512728 131.671434 208.573625 133.25 208.36 135.102075 207.959097 136.847485 207.168208 138.37 206.04 141.444045 203.814667 144.312212 201.31799 146.94 198.58L154.79 190.87"/>
    <path fill="#000000" fill-rule="nonzero" d="M208.37,127.48 L227.75,133.1 L247.13,138.72 L266.51,144.34 L286,150 L305.38,155.62 L307.78,156.32 C308.198459,156.420323 308.621309,156.171656 308.737036,155.757192 C308.852763,155.342728 308.619901,154.910973 308.21,154.78 L288.83,149.16 L269.45,143.54 L250,137.91 L230.53,132.26 L211.15,126.64 L208.75,125.94 C208.331541,125.839677 207.908691,126.088344 207.792964,126.502808 C207.677237,126.917272 207.910099,127.349027 208.32,127.48 L208.37,127.48 Z"/>
    <path fill="#000000" fill-rule="nonzero" d="M228.87 132.84C230.624209 126.431839 233.012678 120.214449 236 114.28L236 113.87C229.1383 109.159725 220.762597 107.187082 212.52 108.34L212.43 108.95C213.494178 115.101759 213.70282 121.3711 213.05 127.58M265.71 149L278.71 152.78 278.95 151.91 276.95 151.33 276.71 152.2 300.4 159.11 307.09 161.11C307.330244 161.176274 307.578726 161.035244 307.645 160.795 307.711274 160.554756 307.570244 160.306274 307.33 160.24L283.6 153.3 276.91 151.3C276.754589 151.257128 276.588112 151.300423 276.473279 151.413577 276.358446 151.52673 276.312702 151.692552 276.353279 151.848577 276.393856 152.004602 276.514589 152.127128 276.67 152.17L278.67 152.75C278.910244 152.816274 279.158726 152.675244 279.225 152.435 279.291274 152.194756 279.150244 151.946274 278.91 151.88L265.91 148.1C265.669756 148.033726 265.421274 148.174756 265.355 148.415 265.288726 148.655244 265.429756 148.903726 265.67 148.97L265.71 149z"/>
    <path fill="#FFFFFF" fill-rule="nonzero" d="M292.4,172.19 L284.27,186.19 L287.53,187.19 L284.42,189.19 C283.931191,189.39703 283.626458,189.890216 283.66,190.42 L283.46,193.01 C283.335997,193.68383 283.412492,194.379237 283.68,195.01 C283.823332,195.309283 284.083286,195.536569 284.399025,195.638664 C284.714764,195.740759 285.058577,195.708704 285.35,195.55 C284.195968,197.841242 283.329406,200.266274 282.77,202.77 C286.77,202.31 289.59,198.48 291.08,194.71 C293.85,187.71 293.96,179.87 292.68,172.44"/>
    <path fill="#6D1F0F" fill-rule="nonzero" d="M291.08,194.65 C291.774553,192.880327 292.313266,191.053389 292.69,189.19 C289.525118,190.318002 286.438371,191.654257 283.45,193.19 C283.359173,193.786618 283.438907,194.396758 283.68,194.95 C283.823332,195.249283 284.083286,195.476569 284.399025,195.578664 C284.714764,195.680759 285.058577,195.648704 285.35,195.49 C284.195968,197.781242 283.329406,200.206274 282.77,202.71 C286.8,202.26 289.58,198.43 291.08,194.65 Z"/>
    <path fill="#FFFFFF" fill-rule="nonzero" d="M291.87,174.51 L295.55,185.84 L297.49,185.17 L297.17,187.55 C297.124266,187.733865 297.124266,187.926135 297.17,188.11 C297.241203,188.277982 297.339137,188.433326 297.46,188.57 L298.71,190.17 C298.999743,190.598813 299.378297,190.960315 299.82,191.23 C300.26,191.45 300.82,191.34 300.82,190.9 C301.515541,192.723292 302.386284,194.474825 303.42,196.13 C304.95,194.31 304.18,190.99 302.88,188.2 C300.241719,182.95415 296.559811,178.302422 292.06,174.53"/>
    <path fill="#6D1F0F" fill-rule="nonzero" d="M302.92,188.19 C302.300058,186.870433 301.591782,185.594201 300.8,184.37 C299.97882,186.284289 299.310075,188.26043 298.8,190.28 C299.063317,190.660346 299.404109,190.980691 299.8,191.22 C300.24,191.44 300.8,191.33 300.8,190.89 C301.495484,192.713317 302.366229,194.464856 303.4,196.12 C305,194.3 304.22,191 302.92,188.19 Z"/>
    <path fill="#000000" fill-rule="nonzero" d="M295.92,152.79 C293.8855,159.216659 292.360777,165.793698 291.36,172.46 C291.249623,172.8894 291.49621,173.329734 291.92,173.46 C292.126872,173.518468 292.3485,173.492301 292.536067,173.387263 C292.723634,173.282225 292.861753,173.106934 292.92,172.9 C293.920777,166.233698 295.4455,159.656659 297.48,153.23 C297.79,152.23 296.25,151.83 295.94,152.8 L295.92,152.79 Z"/>
    <path fill="#362C3B" fill-rule="nonzero" d="M439.41,242.14 C439.548071,242.14 439.66,242.028071 439.66,241.89 C439.66,241.751929 439.548071,241.64 439.41,241.64 C439.271929,241.64 439.16,241.751929 439.16,241.89 C439.16,242.028071 439.271929,242.14 439.41,242.14 Z"/>
    <path fill="#766D7C" fill-rule="nonzero" d="M327.48,90.1 L346.86,95.72 L366.24,101.34 L385.61,107 L405.08,112.65 L424.46,118.27 L426.86,118.97 C427.066187,119.01131 427.269155,118.885917 427.324484,118.683041 C427.379814,118.480166 427.268611,118.26909 427.07,118.2 L407.69,112.58 L388.31,106.96 L368.93,101.34 L349.46,95.69 L330.09,90 L327.69,89.3 C327.483813,89.2586901 327.280845,89.3840835 327.225516,89.5869588 C327.170186,89.7898341 327.281389,90.0009103 327.48,90.07 L327.48,90.1 Z"/>
    <path fill="#000000" fill-rule="nonzero" d="M198.24,230.3 L277.16,269.07 L356.08,307.84 L400.47,329.65 C402.2,330.5 403.72,327.91 401.98,327.06 L323.06,288.29 L244.14,249.52 L199.76,227.7 C198.03,226.85 196.51,229.44 198.25,230.29 L198.24,230.3 Z"/>
    <path fill="#000000" fill-rule="nonzero" d="M416.45,337 C414.845626,336.757357 413.256383,336.423483 411.69,336 C406.48,334.65 401,333.67 395.79,332.32 C397.664735,328.267833 399.921617,324.403676 402.53,320.78 C407.11,326.23 412.32,331.17 416.45,337 Z"/>
    <path fill="#992816" fill-rule="nonzero" d="M378,295.52 C376.667719,294.788159 375.051659,294.797595 373.728015,295.544945 C372.404371,296.292294 371.56153,297.671192 371.5,299.19 C371.5,302.78 375.19,304.44 378.27,303.36 C381.435641,302.276226 383.476027,299.198286 383.241467,295.860498 C383.006907,292.52271 380.556101,289.760384 377.27,289.13 C373.66,288.39 370.03,290.61 367.84,293.34 C365.519728,296.095697 364.707835,299.818434 365.67,303.29 C366.649971,306.687999 369.470557,309.237374 372.95,309.87 C376.952879,310.299518 380.957006,309.070815 384.03,306.47 C386.97234,304.015752 388.690623,300.394803 388.731033,296.563476 C388.771444,292.73215 387.129919,289.075763 384.24,286.56 C383.51,285.94 382.44,287 383.18,287.62 C387.089004,290.96937 388.365339,296.471788 386.33,301.2 C385.09682,303.715745 383.054219,305.744259 380.53,306.96 C377.74,308.38 374.03,309.21 371.1,307.74 C365.57,304.95 365.76,297.61 369.64,293.55 C371.64,291.45 374.76,289.77 377.69,290.8 C380.309629,291.682285 381.969995,294.260003 381.69,297.01 C381.29,300.01 378.4,302.92 375.23,302.08 C374.111838,301.862761 373.22919,301.00271 372.983031,299.890557 C372.736871,298.778405 373.174137,297.626209 374.096184,296.957399 C375.018231,296.288588 376.249248,296.230687 377.23,296.81 C378.09,297.25 378.85,295.96 377.99,295.51 L378,295.52 Z"/>
    <path fill="#000000" fill-rule="nonzero" d="M576.58,273.55 C576.66,278.99 578.87,285.28 583.24,288.79 C584.86,290.09 586.87,290.12 588.1,288.31 C589.61,286.08 589.26,282.87 588.42,280.46 C588.31,280.16 587.83,280.29 587.94,280.59 C588.71,282.79 589.09,285.66 587.85,287.77 C586.05,290.85 583.2,288.3 581.68,286.41 C578.758075,282.75163 577.142515,278.221726 577.09,273.54 C577.09,273.401929 576.978071,273.29 576.84,273.29 C576.701929,273.29 576.59,273.401929 576.59,273.54 L576.58,273.55 Z"/>
    <path fill="#000000" fill-rule="nonzero" d="M575.08,273.52 C574.01,273.52 573.65,274.52 573.5,275.52 C573.238492,277.348506 573.198201,279.201857 573.38,281.04 C573.660541,284.5584 574.603773,287.992036 576.16,291.16 C576.99,292.85 579.16,296.92 581.44,294.57 C583.72,292.22 584.44,288.44 584.07,285.38 C584.07,285.06 583.53,285.06 583.57,285.38 C583.898816,288.060333 583.313958,290.773226 581.91,293.08 C581.46,293.81 581.02,294.54 580.11,294.65 C579.2,294.76 578.44,294.04 577.9,293.26 C577.210164,292.21303 576.617689,291.105067 576.13,289.95 C575.028213,287.45436 574.303624,284.808767 573.98,282.1 C573.82,280.8 573.1,274.1 575.08,274.1 C575.218071,274.1 575.33,273.988071 575.33,273.85 C575.33,273.711929 575.218071,273.6 575.08,273.6 L575.08,273.52 Z"/>
  </g>
</svg>
