<svg xmlns="http://www.w3.org/2000/svg" width="48" height="48" viewBox="0 0 48 48">
  <g fill="none" fill-rule="evenodd">
    <rect width="48" height="48" fill="#000000"/>
    <path fill="#CC0B15" fill-rule="nonzero" d="M19.6,35 C18.82248,35 18.9546,34.70642 18.68644,33.9661 L16.4,26.44118 L34,16"/>
    <path fill="#B72323" fill-rule="nonzero" d="M19.6,35 C20.2,35 20.4651,34.7256 20.8,34.4 L24,31.2884 L20.0084,28.8814"/>
    <path fill="#E50914" fill-rule="nonzero" d="M20.008,28.882 L29.68,36.0278 C30.7837,36.63678 31.58028,36.32148 31.8552,35.0031 L35.7922,16.4505 C36.19528,14.83446 35.17618,14.1015 34.12032,14.58086 L11.00232,23.49506 C9.4243,24.128 9.4335,25.00838 10.71468,25.40066 L16.64728,27.25232 L30.38188,18.58732 C31.03026,18.19414 31.62534,18.405522 31.13692,18.839"/>
  </g>
</svg>
